<svg xmlns="http://www.w3.org/2000/svg" viewBox="0 0 210 210">
  <path fill="#4d4d4d" d="M72.72734666 124.38573966l13.88333454 13.88333455-65.05453098 65.05453097a6.1604 6.1604 0 0 1-8.71212123 0l-5.26207653-5.26207653a6.0321 6.0321 0 0 1 0-8.53067763zM112.49 54.434v20.221H92.269v7.9861h20.221v20.22h7.9861v-20.22h20.22V74.655h-20.22V54.434zM162.06 54.434v20.221h-20.221v7.9861h20.221v20.22h7.9861v-20.22h20.22V74.655h-20.22V54.434z"/>
  <path fill="#2980b9" d="M129.64 151.21c-23.256-1.9971-44.881-15.433-56.913-35.361-4.0116-6.6444-7.434-15.434-8.9591-23.008-4.3723-21.716 1.2784-44.759 15.174-61.877 3.5236-4.341 9.1763-9.5662 14.259-13.181 23.051-16.393 55.805-17.464 79.669-2.6044 11.844 7.375 21.615 17.79 28.259 30.122.66218 1.2291 1.204 2.2649 1.204 2.3019 0 .03701-3.4917 2.2495-7.7593 4.9166s-7.9386 4.9661-8.1578 5.1087c-.38329.24949-.42056.21554-.97637-.8894-1.7498-3.4786-4.7623-8.1386-7.4515-11.527-2.09-2.6332-7.1005-7.7248-9.4148-9.5673-7.6615-6.0995-16.906-9.8135-27.407-11.011-2.5657-.29258-8.8618-.29898-11.435-.01161-8.7845.98108-16.191 3.527-23.334 8.0211-3.2323 2.0337-5.6183 3.904-8.3179 6.5205-9.1259 8.8448-14.796 20.823-16.099 34.013-.27931 2.8267-.11584 10.264.27969 12.725.96933 6.0309 2.8676 11.785 5.6565 17.144 5.1856 9.9663 14.073 18.419 24.618 23.412 9.8978 4.687 20.324 6.2237 31.354 4.6211 16.94-2.4613 32.842-14.505 41.24-31.234.843-1.6794 1.6703-3.4047 1.8385-3.8341.16816-.42939.366-.74646.43962-.7046.0736.04186 3.8093 2.0597 8.3016 4.4841 4.4922 2.4244 8.1932 4.4278 8.2245 4.452.13059.10109-2.4349 5.616-3.6264 7.7956-7.3432 13.432-18.524 24.387-32.123 31.472-7.9336 4.1337-17.152 6.8675-25.746 7.6357-1.895.16937-11.038.21541-12.796.0644z"/>
</svg>