<svg xmlns="http://www.w3.org/2000/svg" viewBox="0 0 1000 1000">
  <path class="qb-logo-sec" fill="#fff" d="M682.4 405.4a89.6 89.6 0 00-77.9 49.1c-15.3 31.2-12.5 66.7-17.3 98.6a3.5 3.5 0 000 .5c-2 14.3-4.8 28.4-8.5 42.3a203.5 203.5 0 01-30.1 69c-3.7 5-7.7 9.9-12 14.3-4.3 4.6-9.2 9.3-12.7 15.4-3 5.3-4.4 11.4-2.7 17.7 1 3.5 3 7.4 6.9 9.6a3.5 3.5 0 001.7.5c7.4 0 14.8-.1 22.3-.8a426 426 0 0034.7-4.7c16.6-2.8 33.5-6 50-6a3.5 3.5 0 00.6-.1c27.2-4.3 54.6-6.8 82-7.5a3.5 3.5 0 001.7.4l5.4-.1h.3a3.5 3.5 0 001.4.3c13.3.2 26.6 0 39.4 1.7 6.7.8 13 2.4 18.4 5.5l3.5 2.4c.8.8 1 1.3 1 2l-.2.6a3.5 3.5 0 00-.2 2.3 61.9 61.9 0 0012.2 25c2.8 3.5 5.8 6.7 9 9.8 3.6 3.5 7.4 5.7 11.2 8a201.2 201.2 0 0125.9 19.7 3.5 3.5 0 005.6-4c-1.5-3.6-2.8-7.6-4.6-11.6-2.2-5-4.7-9.6-6.8-14.4 2.3 1 4.5 2.2 6.6 3.6a3.5 3.5 0 001.2.5c5.8 1.3 12.3 5.3 18 8.7 3.6 2 7.1 4.3 10.6 6.7a3.5 3.5 0 004.7-5.2 335.5 335.5 0 00-29.8-30.4c-8.2-7.2-16.7-14.1-25.5-20.5-4.4-3.2-8.8-6.2-13.2-9.2-2.1-1.4-4.5-2.7-6.6-4a3.5 3.5 0 00-.7-.4c-4.3-1.6-8.6-3.5-13-5.2l-5.6-2a3.5 3.5 0 00-.6-.2l-8.8-1.7-23.1-4-22-3.8a3.5 3.5 0 00-.3 0l-22.3-2.1-15-1.4c-5.1-.5-10.4-.5-14.5-1.7a3.5 3.5 0 00-.7 0 298.6 298.6 0 00-110.6 13.9s-.2 0-.5-.6l-.2-.4 52.7-40.7 46.2-35.5c12.5-9.6 25-19.5 36.7-30.1A222.2 222.2 0 00738 551a3.5 3.5 0 000-.1l.6-.8a3.5 3.5 0 00.5-1.3c.6-2.5 1.5-4.8 2.7-6.9 2.9-5 5.5-10 7.8-15.1a3.5 3.5 0 000-.2c4-9.8 6.7-20 8.5-30.3a3.5 3.5 0 000-.2c1-9 1-18.1 0-27.1a3.5 3.5 0 000-.3c-1.4-8.1-3.6-16-6.5-23.7a3.5 3.5 0 00-.1-.2c-2.2-4.6-4.6-9-7.2-13.3a3.5 3.5 0 00-.6-.7 87 87 0 00-61.1-25.5zM441.2 629.7c-4.3 0-8.6.5-12.8 1.4a3.5 3.5 0 00-.7.2l-3.6 1.4c-10.8 4.5-21.3 10-31.2 16-9.5 5.8-18.1 12.5-27 18.2a69 69 0 01-17.8 8.7 3.5 3.5 0 00-.6.2c-7.4 3.6-15 6.8-22.8 9.4-9.3 3.3-19.4 5.8-28.9 10.4-10 4.7-18 12.2-21 23.6l-.7 3.7a3.5 3.5 0 000 1 194.3 194.3 0 01-42 147.7 3.5 3.5 0 00-.5.8 62.6 62.6 0 01-17.7 23 3.5 3.5 0 00-1.6.2c-1 .2-2.5-.3-5.4-1-3.2-.8-6.3-1.3-9.5-1.9l-5.2-.6a3.5 3.5 0 00-1 0 91 91 0 00-8.3 2c-10.7 3-21 7.2-31.1 11.2-10.6 4.1-21 8.7-31.3 13.5l-10 4.7a3.5 3.5 0 001.8 6.7l37.3-4.4a3.5 3.5 0 00.4 0 3.5 3.5 0 00.1 0c.6 0 1.1.2 1.6.3a3.5 3.5 0 00.3 0c2 .5 4.1.8 6.3.8l.2.3c-6 8-13 15-21 21.2a3.5 3.5 0 003.1 6.2c20.6-6.3 41.7-12.8 60.8-23.7a3.5 3.5 0 001.4-1.5c0 .2.2 0 0 0 4.8-3.4 10.3-6.3 15.6-10.1 4.8-3.6 9.5-7.4 13.8-11.6 8.3-8 15.4-17 22.4-25.7a3.5 3.5 0 00.3-.5l3.6-6.5a358.2 358.2 0 0029.3-71.6c3.5-12.3 6.5-24.8 8.7-37.4.7-3.3 1.1-8.8 2.4-13.4.6-2.3 1.5-4.3 2.3-5.5.9-1.1 1.4-1.4 2.3-1.4a3.5 3.5 0 001.2-.3h.3v-.1c13.4-5.2 27-10.2 40.4-15.8 23.6-9.7 46.7-20.2 69.6-31.6 11.4-5.6 22.7-11.5 34-17.4l18.7-9.9a3.5 3.5 0 00.9-.6 38 38 0 006.6-8.2 22.4 22.4 0 002.2-18.5 3.5 3.5 0 000-.1l-.7-1.8a3.5 3.5 0 00-1-1.5 46 46 0 00-21.6-9.1c-4.3-.8-8.6-1.1-12.9-1zM744.8 48.9c-4.1 0-7.8 2.8-10.2 6.8a29 29 0 00-3.7 14.6 29 29 0 003.7 14.7c2.4 4 6 6.7 10.2 6.7 4 0 7.8-2.7 10.2-6.7a29 29 0 003.7-14.7 29 29 0 00-3.7-14.6c-2.4-4-6.1-6.8-10.2-6.8z"/>
  <path class="qb-logo-pri" fill="#000" d="M907.2 478.8a177.8 177.8 0 0028.5-52.3c6.7-20.2 9-41.6 6.7-62.7-4.5-43.1-25.5-83-56.3-113.2a273.4 273.4 0 00-109-63c-18.5-5.9-40.8-11.8-53.2-28.1-8.7-11.5-11.5-30.1-2.8-42.5 1.1-1.5 2.5-3 3.9-4.1 17 .3 34-.5 50.9-2.8 17.9-2.3 35.7-6.7 52-14.6 9-4.4 18.2-9.6 25.4-16.7 1.4-1.3.5-3.4-1-4a2.5 2.5 0 00-2.6-.9 75.5 75.5 0 01-54.3-6.8l-3.2-1.9a28.8 28.8 0 00-7.4-15.1 71.5 71.5 0 00-120.3 17.7c-2.8 5.2-5 10.9-6.6 16.7-2.2 8.8-3 18-2.4 27.1-.2 11 .6 22 2.2 32.9 2.1 15.7 6.2 31.3 12 46a141 141 0 0023.8 40.6c11.2 13 25 21.8 40.2 29.2 15.3 7.3 32.4 14.5 42 29.2 3 4.4 5 9.4 5.6 14.7 0 2.6-.2 5.3-.5 7.9-1.2 5.5-4.1 11-8.6 14.4a17.2 17.2 0 01-5.6 2.8c-.2-.4-.4-.8-.8-1.1a258.5 258.5 0 00-152.4-62.4 264.4 264.4 0 00-215.6 89c-4.5-1.1-9.5-1.2-14-1.7a325 325 0 01-41.7-7.5c-17.4-4.5-33.8-12-48-23a2 2 0 00-.7-1.1A17 17 0 00280 319a3 3 0 00-2 2c-6.8 26.4-4.2 55.2 4.2 80.8a167.2 167.2 0 0061 83.2c3.8 2.8 7.7 5.3 11.8 7.7 4 31.4 20.2 60.4 41.8 83.3 3.9 4 7.8 8 12 11.5a226.3 226.3 0 01-43.6 57.1 193.7 193.7 0 01-78.1 43.9c-5.7 1.6-11.7 3-16.7 6.4-11.6 7.7-11.2 20.9-9.5 33.2a177.8 177.8 0 01-21.7 113.6c-6.8 12-15.3 22.5-24.4 32.8-.3-.4-.5-.7-1-1-17.5-12.3-40.5 1.1-56 10.5a424.6 424.6 0 01-98 43.3c-2.9.8-4.2 4.7-1.9 6.8 4.8 4.4 11 5.4 17.3 5 8-.4 16-1.7 23.9-2.6l37.8-4.5a114.5 114.5 0 01-32.4 18.4A355 355 0 0160 964.1c-3.6 1-4 7.1 0 7.8a208.7 208.7 0 00192.4-68.7c6.9-6.5 11.6-15.5 16-23.7 2.6-5 5-10 7.4-15a389 389 0 0044.7-116.4 619 619 0 00193.8-84.8l6-4 4-2.7c5-3.2 9.6-6.7 14.2-10.3l1.9.4c-5.4 7.6-11 15-16.8 22.3-5.8 7.2-12 14.3-16.8 22.3-8 13.3-10.9 31.8 1 43.9a23 23 0 009 5.6c.6.2 1.2.3 1.8.2a18.9 18.9 0 007.4.5c5-.1 9.7-1.7 14.4-3l19.7-6c3.7-1.1 7.6-2 11.4-3.3 50-8.5 100.2-14.2 150.8-16.1 15.3-.6 31.8-2 46.7 2.6a46.2 46.2 0 0023.2 46c.1 0 .3 0 .5.2 4.8 3 10.1 5.6 15.2 8.5a175.7 175.7 0 0175 84.8c1.6 4 6.6 3.3 7.2-1 2.4-19.5.4-40-6.7-58.6.7 0 1.5-.2 2.2-.5l1.3 1.6a234 234 0 0130.5 46.9c1.4 2.9 6.6 1.6 6.3-1.7-1.6-14-5.1-27.8-10.4-40.9l-.3-.6c-14.4-35.2-41-65-71.9-87.7-12.3-9-25.2-17.2-38.7-24.5-.8-.5-1.8-.6-2.7-.3-10.5-4.6-22-7.7-33-11A483 483 0 00639.3 658l-5.9.2 11.2-8.8c9 .3 18.4-1.9 27-3.6 9.5-1.7 18.8-4 28-6.7 11.4-3.4 23.5-8 34.2-14.3a196.9 196.9 0 0063.8-40c5.6-5.4 11.1-11.2 15.7-17.6a15 15 0 002.6-8.8c33.5-22.4 66.5-47.5 91.3-79.6zM745 51.5c6.2 0 11.2 8.3 11.2 18.7 0 10.4-5 18.8-11.2 18.8-6.2 0-11.3-8.4-11.3-18.8s5-18.7 11.3-18.7zM472 659.9a34.5 34.5 0 01-6 7.4c-6.3 3.2-12.5 6.6-18.8 10A1098.2 1098.2 0 01344 726.1c-13.3 5.4-26.9 10.4-40.4 15.7l-.3.1c-8.4.2-9.2 17.5-10.3 23.2a357.6 357.6 0 01-37.7 108l-3.5 6.5c-7 8.8-14 17.6-22.1 25.4a135 135 0 01-13.4 11.2c-5 3.6-10.6 6.5-15.6 10.1-.5.4-.8.8-1 1.3-18.7 10.7-39.6 17-60.2 23.4a114 114 0 0022-22.3c1.9-2.3-.6-5.5-3.1-5.5a35.3 35.3 0 01-7.7-1.1c-.5-.2-1-.2-1.5 0l-37.4 4.4 10.1-4.7c10.2-4.8 20.6-9.3 31.1-13.5 10.1-3.9 20.3-8 30.8-11 2.6-.8 5.3-1.4 8-2l5 .7c3 .5 6.1 1 9.2 1.8 2.5.7 4.9 1.7 7.3.9.7.3 1.6.3 2.2-.2a65.7 65.7 0 0019.3-24.8 199.1 199.1 0 0042.7-150.4l.7-3.4a32.2 32.2 0 0119-21.4c9.1-4.3 19.1-6.8 28.6-10.2 7.9-2.7 15.6-6 23.2-9.5a71.3 71.3 0 0018.7-9.2c9.1-5.7 17.7-12.4 27-18 9.8-6 20.1-11.4 30.7-15.8l3.6-1.5c8-1.6 16.3-1.7 24.4-.3a42.3 42.3 0 0120 8.4l.6 1.6c1.6 5.3 1 11-2 15.8zm282.3-164.2a148 148 0 01-8.2 29.7c-2.3 5-4.8 10-7.6 14.8a28.7 28.7 0 00-3.1 8l-.6.7c-9 12.4-19.7 23.4-31 33.6a619.9 619.9 0 01-36.6 30l-46.1 35.4-52.8 40.9c-3.3 2.6.3 8.1 4 7A295 295 0 01681.6 682c4.7 1.4 10.2 1.2 15.2 1.7l14.8 1.4 22.4 2 22 4 23 4 8.8 1.6 5.6 2 13 5.3c2.2 1.5 4.7 2.8 6.5 4l13.1 9.1a325 325 0 0154.7 50.3c-3.5-2.4-7-4.7-10.7-6.9-5.8-3.3-12.4-7.5-19-9-3-2-6.3-3.7-9.8-5l-.3-.2h-.5l-.7-.3c-1.8-.5-3.3 1.9-2 3.2l.7.4c-.1.5 0 1 .1 1.5l7.4 15.6c1.7 3.7 3 7.7 4.6 11.6a204.7 204.7 0 00-26.4-20c-3.7-2.5-7.3-4.6-10.6-7.7-3.1-3-6-6.1-8.7-9.5-5.6-7-9.4-15-11.5-23.6.3-.6.5-1.4.5-2.1 0-3.6-3.6-5.8-6.3-7.4-6-3.5-12.8-5.1-19.7-6-13-1.7-26.5-1.5-39.8-1.7-.6-.3-1.1-.3-1.7-.3h-5.5a3 3 0 00-1.4-.3c-27.8.7-55.4 3.2-82.8 7.5-17 .1-34 3.3-50.7 6.1-11.4 2-22.8 3.8-34.3 4.7-7.3.7-14.7.9-22 .8a12.8 12.8 0 01-5.2-7.5 18.8 18.8 0 012.3-15c3.2-5.5 7.8-10.1 12.2-14.7 4.5-4.6 8.6-9.5 12.4-14.6a206 206 0 0030.7-70.3 356 356 0 008.6-42.8v-.3c4.8-32.5 2.2-67.5 17-97.6a86 86 0 0174.8-47c22.1-.5 43 9.2 58.6 24.4 2.7 4.2 5 8.5 7 13 2.9 7.4 5 15 6.3 23 1 8.7 1 17.6 0 26.3z"/>
</svg>