<svg xmlns="http://www.w3.org/2000/svg" viewBox="0 0 80 80">
  <path fill="#c1272d" d="M56.106 48.82v.06c0 4.356-1.809 8.292-4.667 11.141L40.23 48.88V32.982c4.586 0 8.196 1.788 11.065 4.672.01.01.14.014.145.025 2.834 2.858 4.665 6.794 4.665 11.14"/>
  <path fill="#333" d="M40.17 4.722c-5.974 0-10.833 4.533-10.833 10.104 0 3.456 1.87 6.51 4.714 8.333A26.335 26.335 0 0023 28.704l-1.056-1.055c.492-.71.445-1.57-.122-2.136-.647-.647-1.608-.697-2.255-.05l-2.814 2.814c-.647.647-.598 1.608.05 2.256.567.566 1.427.613 2.136.12l1.041 1.042a26.283 26.283 0 00-6.376 17.185c0 14.555 11.842 26.398 26.397 26.398 14.556 0 26.397-11.843 26.397-26.398 0-12.423-8.626-22.867-20.203-25.662 2.897-1.815 4.807-4.899 4.807-8.392 0-5.57-4.86-10.104-10.832-10.104zm0 2.032c4.852 0 8.8 3.621 8.8 8.072 0 3.28-2.143 6.104-5.211 7.366v-4.146h1.961c.28 0 .508-.227.508-.508v-5.687a.508.508 0 00-.508-.508H35.094a.507.507 0 00-.507.508v5.687c0 .28.227.508.507.508h1.962v4.329c-3.32-1.156-5.688-4.103-5.688-7.549 0-4.45 3.948-8.072 8.801-8.072zM40 25.529c12.876 0 23.35 10.475 23.35 23.35 0 12.876-10.474 23.353-23.35 23.353-12.876 0-23.35-10.477-23.35-23.352 0-12.876 10.474-23.35 23.35-23.35zm-.828 2.042V31.1h2.117V27.57zm-13.5 5.462l-1.435 1.435 2.513 2.514 1.436-1.436zm28.725 0l-2.513 2.513 1.435 1.436 2.514-2.514zM39.642 45.617c-.682.013-1.36.29-1.929.858l-.115.115c-1.3 1.3-1.071 3.173.337 4.355 3.14 2.636 9.34 6.885 12.725 9.396.497.368 1.244-.2.802-.807-2.124-2.913-6.758-9.582-9.395-12.723-.665-.792-1.548-1.21-2.425-1.194zm-20.93 2.415v2.117h3.88v-2.117zm39.158 0v2.117h3.527v-2.117zM26.75 60.68l-2.513 2.513 1.436 1.437 2.513-2.514zm26.57 0l-1.436 1.436 2.513 2.514 1.436-1.436zm-14.148 6.05v3.528h2.117V66.73z"/>
</svg>
