<?xml version="1.0" encoding="utf-8"?>
<!-- Generator: Adobe Illustrator 21.1.0, SVG Export Plug-In . SVG Version: 6.00 Build 0)  -->
<svg version="1.1" id="Calque_1" xmlns="http://www.w3.org/2000/svg" xmlns:xlink="http://www.w3.org/1999/xlink" x="0px" y="0px"
	 viewBox="0 0 1416.1 1517.8" style="enable-background:new 0 0 1416.1 1517.8;" xml:space="preserve">
<style type="text/css">
	.st0{fill:none;}
	.st1{fill:#265954;}
</style>
<title>Fichier 1</title>
<g id="Calque_2">
	<g id="Calque_2-2">
		<path class="st0" d="M665.4,986.9c-8.7-7.5-21.1-11.4-31.8-13.4c-12.9-2.2-26.1-2.1-39,0.5c-1.9,0.8-3.8,1.5-5.7,2.3
			c-17,7.1-33.5,15.6-49.2,25.2c-14.8,9-28.5,19.7-43.1,28.9c-8.5,5.4-19.1,11.7-29.9,14.6c-12,5.8-24.4,11-37,15.3
			c-15.1,5.4-31.1,9.4-45.6,16.3c-15,7.1-26.2,17.7-30.4,34.1c-0.5,1.8-0.8,3.6-1.1,5.4c4.1,31,3.5,62.5-1.8,93.4
			c-9.1,53.9-32,104.5-66.5,146.9c-7.1,15.4-17.7,29.7-30.8,39.6c-1,0.8-2.4,0.9-3.6,0.4c-3.8,1.2-7.6-0.4-11.6-1.4
			c-4.9-1.2-9.7-2.1-14.7-2.9c-2.7-0.4-5.3-0.7-8-1c-4.3,0.8-8.6,1.8-12.8,3c-16.7,4.8-33,11.3-49.1,17.7
			c-16.8,6.6-33.4,13.8-49.7,21.5c-5.3,2.5-10.7,5.1-16.2,7.5c19.9-2.4,39.8-4.8,59.7-7.1c0.8-0.2,1.7-0.2,2.5,0c1,0.2,2,0.4,3,0.7
			c3,0.6,6.1,1,9.2,1.1c4.1,0.2,8,5.1,5.1,8.9c-10,13.4-21.9,25.3-35.2,35.5c32.9-10.1,66.2-20.3,96-37.3c0.4-0.8,1.1-1.6,1.8-2.1
			c8-5.8,16.8-10.4,24.8-16.2c7.5-5.5,14.7-11.5,21.4-17.9c13-12.4,24.2-26.6,35.3-40.6c1.9-3.4,3.9-6.9,5.7-10.3
			c19.5-36,35-74,46.3-113.3c5.6-19.5,10.3-39.3,13.9-59.2c1.7-9.2,3-36.8,16.5-37.1l0.5-0.2c21.5-8.4,43.1-16.3,64.5-25.2
			c37.5-15.5,74.4-32.2,110.8-50.3c18.2-9,36.2-18.3,54.1-27.8c10-5.3,20-10.7,30.1-15.8c3.7-3.5,7-7.5,9.6-11.9
			c4.6-7.5,5.7-16.6,3-25C666,988.6,665.7,987.7,665.4,986.9z"/>
		<ellipse class="st0" cx="1099.3" cy="72.4" rx="18" ry="30"/>
		<path class="st0" d="M1104.4,673.4c-3.3-7.1-7.1-14.1-11.2-20.7c-25-24.2-58.3-39.6-93.7-39.1c-49.8,0.8-97.5,30.6-119.5,75.3
			c-23.6,48-19.3,103.9-27.2,155.8c0,0.2,0,0.3,0,0.5c-3.2,23.1-7.7,46-13.7,68.5c-10.3,39.5-24.8,79-49,112.2
			c-6,8.2-12.6,16.1-19.6,23.4c-7,7.4-14.4,14.6-19.5,23.5c-4.3,7.5-6.1,15.5-3.7,23.9c1.3,4.6,4,9.5,8.3,12
			c11.7,0.1,23.4-0.2,35.1-1.2c18.4-1.5,36.7-4.5,54.9-7.5c26.5-4.4,53.8-9.6,80.9-9.8c43.8-6.9,88-10.9,132.3-12
			c0.8,0,1.6,0.2,2.3,0.6l8.7-0.2c1,0,1.9,0.1,2.8,0.5c21.2,0.3,42.6,0.1,63.6,2.8c11,1.4,21.9,4,31.5,9.6c4.3,2.5,10,6,10,11.7
			c0,1.2-0.3,2.4-0.8,3.5c3.2,13.8,9.5,26.6,18.4,37.6c4.3,5.4,8.9,10.4,13.9,15.2c5.2,5,10.9,8.4,17,12.2
			c12,7.7,23.5,16.1,34.4,25.3c2.6,2.2,5.2,4.4,7.7,6.7c-2.6-6.1-4.6-12.5-7.3-18.4c-3.8-8.4-8.1-16.5-11.8-25
			c-0.3-0.7-0.5-1.6-0.3-2.4l-0.9-0.7c-2.4-2,0.2-5.9,3-5.1l1.2,0.4c0.3,0,0.5,0.1,0.7,0.2l0.6,0.3c5.5,2,10.7,4.7,15.5,8
			c10.6,2.4,21.3,9.1,30.4,14.4c5.9,3.4,11.6,7.1,17.2,10.9c-3.5-4.2-7.1-8.3-10.8-12.3c-11.5-12.4-23.6-24.3-36.3-35.6
			c-12.9-11.4-26.3-22.3-40.3-32.4c-6.9-5-13.9-9.8-20.9-14.5c-3-2-6.9-4.1-10.5-6.5c-7-2.7-13.8-5.6-20.8-8.3
			c-3-1.1-5.9-2.2-8.9-3.3c-4.6-0.9-9.2-1.8-13.9-2.6l-37-6.4c-11.7-2-23.4-4.1-35.1-6.2c-11.9-1.1-23.8-2.2-35.7-3.3l-23.8-2.2
			c-7.9-0.7-16.6-0.6-24.3-2.8c-59-3.7-118.2,3.8-174.5,22c-6,2-11.8-7-6.5-11.2c28-21.9,56.2-43.6,84.4-65.2
			c24.6-18.9,49.2-37.8,73.7-56.7c19.9-15.4,39.7-31,58.4-47.9c18.1-16.3,35.3-33.9,49.6-53.6l0.9-1.3c1-4.5,2.6-8.8,4.9-12.7
			c4.5-7.7,8.6-15.6,12.2-23.6c6-15.3,10.4-31.2,13.1-47.4c1.5-14,1.5-28.1,0.1-42.1C1112.3,697.6,1108.9,685.3,1104.4,673.4z"/>
		<path class="st1" d="M1358.5,725.1c19.5-25.2,35.5-53.2,45.6-83.5c10.6-32.2,14.3-66.4,10.7-100.1c-7.2-69-40.8-132.7-90-181
			c-48.6-47.7-109.8-79.8-174.2-100.5c-29.6-9.5-65.2-18.9-84.9-45c-13.9-18.4-18.4-48.1-4.5-67.8c1.8-2.5,3.9-4.8,6.2-6.7
			c27.2,0.6,54.3-0.8,81.3-4.4c28.6-3.7,57-10.7,83.1-23.3c14.5-7,29-15.4,40.6-26.7c2.2-2.1,0.8-5.4-1.5-6.4
			c-1-1.3-2.7-1.9-4.3-1.4c-16.7,4.3-34.1,4.9-51.1,1.9c-8.3-1.5-16.4-3.9-24.1-7.2c-4-1.7-7.8-3.6-11.6-5.6c-1.7-1-3.4-2-5.1-3
			c-0.8-8.9-6-17.3-11.8-24.2c-8.5-9.9-18.6-18.2-29.9-24.6c-47-27.3-106.7-17.7-142.8,22.9c-8,9-14.5,19.1-19.5,30
			c-4.5,8.4-8.1,17.4-10.5,26.7c-3.6,14.1-4.9,28.7-3.9,43.3c-0.2,17.6,1,35.1,3.6,52.5c3.4,25.2,9.8,50,19,73.7
			c9.3,23.5,21.7,45.7,38.2,64.8c17.8,20.6,39.8,34.8,64.2,46.5s51.7,23.2,67.1,46.7c4.7,7.1,8,15.1,8.9,23.5
			c-0.1,4.2-0.3,8.4-0.7,12.6c-1.9,8.9-6.6,17.6-13.8,23.1c-2.7,2-5.7,3.5-8.9,4.4c-0.3-0.7-0.7-1.3-1.3-1.8
			c-66.9-59.2-154.7-93.4-243.5-99.6c-86.8-6.1-174.2,16.2-248.4,61.5c-20.5,12.5-40,26.8-58.1,42.6c-13.6,11.7-26.3,24.4-38,38
			c-7.2-1.7-15.1-1.9-22.4-2.7s-14.6-1.8-21.8-2.9c-15.1-2.2-30-5.2-44.8-9c-27.7-7.3-54-19.1-76.5-36.9c-0.2-0.7-0.7-1.3-1.3-1.7
			c-6.9-4.3-13.2-5.6-21.3-4c-1.7,0.4-3,1.8-3.4,3.4c-10.8,42-6.5,88,6.9,128.9c13.6,41.4,37.4,79.8,69,109.8
			c8.9,8.4,18.3,16.2,28.3,23.2c6.1,4.4,12.4,8.5,18.9,12.2c6.3,50.3,32.4,96.6,66.9,133.2c6.1,6.4,12.4,12.6,19,18.4
			c-18.8,33.7-41,64.9-69.5,91.2c-28.3,26.1-61.2,46.8-97,60.8c-9.1,3.6-18.4,6.6-27.9,9.3c-9.1,2.5-18.7,4.9-26.6,10.2
			c-18.5,12.3-17.9,33.4-15.2,53.1c5.6,40.3,3.2,80.8-8.3,119.9c-6.3,21.5-15.1,42.1-26.3,61.5c-11,19.2-24.5,36-39.1,52.5
			c-0.4-0.6-0.8-1.1-1.4-1.5c-28.1-19.8-64.8,1.7-89.7,16.7c-31.3,18.9-64.1,35.3-98,48.9c-19.2,7.7-38.7,14.4-58.6,20.2
			c-4.5,1.3-6.6,7.5-2.9,10.9c7.7,7,17.6,8.6,27.7,8.1c12.7-0.7,25.5-2.8,38.1-4.3l60.4-7.2c-5.9,4.8-12.1,9.2-18.5,13.2
			c-10.6,6.3-21.7,11.8-33.2,16.3c-23,9.3-47.1,15.7-71.1,21.9c-5.8,1.5-6.4,11.3,0,12.4c89.1,16,183.7-7.5,256-61.8
			c18.7-14,36.4-29.9,51.3-48c11-10.3,18.6-24.8,25.5-37.8c4.2-7.9,8.2-15.9,11.9-24c23.4-40.1,42.2-82.8,56.1-127.1
			c6.1-19.3,11.2-39,15.3-58.9c96.4-23.6,188.8-61.6,273.9-112.7c12.1-7.3,24-14.8,35.7-22.7c3.1-2.1,6.4-4.2,9.6-6.4
			c2.2-1.4,4.4-2.9,6.5-4.3c7.8-5.2,15.3-10.7,22.6-16.5l3,0.6c-8.6,12.1-17.6,23.9-26.8,35.6c-9.2,11.6-19.2,22.9-26.8,35.6
			c-12.8,21.3-17.4,50.8,1.6,70.2c4,4,8.9,7.1,14.3,8.9c1,0.4,2,0.5,3,0.3c1.9,0.6,3.9,1,5.9,1.1c2,0.1,4,0,6-0.3
			c7.8-0.1,15.4-2.6,22.9-4.8c10.5-3.1,21-6.3,31.4-9.5c5.9-1.8,12.2-3.3,18.3-5.2c79.7-13.6,160-22.8,240.9-25.8
			c24.5-0.9,50.8-3.1,74.6,4.2c-2.3,17.8,2,35.9,12.1,50.8c2.6,3.8,5.6,7.2,9,10.4c4.4,5,9.8,10.2,16,12.3c0.2,0.1,0.4,0.1,0.7,0.2
			c7.8,4.8,16.2,9,24.3,13.7c34,19.4,63.6,45.8,86.8,77.3c13.3,18,24.4,37.5,33,58.2c2.6,6.2,10.6,5.2,11.5-1.6
			c3.9-31.2,0.7-64.1-10.7-93.7c1.2-0.1,2.4-0.3,3.6-0.8c0.7,0.8,1.4,1.6,2.1,2.5c19.2,23,35.5,48.1,48.7,75
			c2.3,4.6,10.6,2.6,10-2.7c-2.5-22.4-8.1-44.4-16.6-65.3c-0.1-0.3-0.3-0.7-0.4-1c-23.1-56.3-65.6-103.9-114.9-140.2
			c-19.7-14.4-40.3-27.4-61.8-39c-1.3-0.8-2.9-1-4.4-0.5c-16.7-7.4-35.1-12.4-52.6-17.5c-18.6-5.4-37.4-10.1-56.4-14
			c-38-8-76.5-13-115.2-15.2c-10.6-0.6-21.2-1-31.9-1c-3.2,0-6.3,0.1-9.5,0.2c6-4.7,12-9.4,17.9-14.1c14.3,0.5,29.3-3,43.2-5.7
			c15-2.8,29.9-6.4,44.6-10.7c18.3-5.5,37.6-12.7,54.6-22.8c37.5-15,72.8-35.9,102-64c8.9-8.6,17.8-17.9,25-28.1
			c2.8-4.1,4.3-9,4.2-14.1C1266.1,816.5,1318.8,776.5,1358.5,725.1z M1099.3,42.4c9.9,0,18,13.4,18,30s-8.1,30-18,30s-18-13.4-18-30
			S1089.3,42.4,1099.3,42.4z M663.3,1014.5c-2.6,4.4-5.9,8.4-9.6,11.9c-10.1,5.1-20.1,10.5-30.1,15.8c-17.9,9.5-35.9,18.8-54.1,27.8
			c-36.3,18-73.2,34.8-110.8,50.3c-21.3,8.8-43,16.8-64.5,25.2l-0.5,0.2c-13.5,0.3-14.8,27.9-16.5,37.1c-3.6,20-8.2,39.7-13.9,59.2
			c-11.3,39.3-26.8,77.3-46.3,113.3c-1.9,3.5-3.8,6.9-5.7,10.3c-11.2,14.1-22.3,28.2-35.3,40.6c-6.7,6.4-13.9,12.4-21.4,17.9
			c-8,5.8-16.8,10.4-24.8,16.2c-0.8,0.6-1.4,1.3-1.8,2.1c-29.8,17-63.1,27.2-96,37.3c13.3-10.2,25.2-22.1,35.2-35.5
			c2.9-3.8-1.1-8.8-5.1-8.9c-3.1-0.1-6.2-0.5-9.2-1.1c-1-0.3-2-0.5-3-0.7c-0.8-0.2-1.7-0.2-2.5,0c-19.9,2.4-39.8,4.8-59.7,7.1
			c5.5-2.4,10.9-5,16.2-7.5c16.3-7.7,32.9-14.8,49.7-21.5c16.1-6.3,32.4-12.9,49.1-17.7c4.2-1.2,8.5-2.2,12.8-3c2.7,0.3,5.4,0.6,8,1
			c4.9,0.8,9.8,1.7,14.7,2.9c4,1,7.8,2.7,11.6,1.4c1.2,0.5,2.6,0.4,3.6-0.4c13.1-9.9,23.7-24.2,30.8-39.6
			c34.4-42.4,57.3-93,66.5-146.9c5.3-30.9,5.9-62.3,1.8-93.4c0.3-1.8,0.7-3.7,1.1-5.4c4.2-16.4,15.4-27,30.4-34.1
			c14.5-6.9,30.5-11,45.6-16.3c12.6-4.4,25-9.5,37-15.3c10.8-2.9,21.4-9.2,29.9-14.6c14.6-9.2,28.4-19.9,43.1-28.9
			c15.7-9.6,32.2-18.1,49.2-25.2c1.9-0.8,3.8-1.6,5.7-2.3c12.9-2.6,26.1-2.7,39-0.5c10.7,2,23.2,5.8,31.8,13.4
			c0.4,0.9,0.7,1.7,1,2.6C669,997.8,667.9,1006.9,663.3,1014.5L663.3,1014.5z M1114.2,752.2c-2.7,16.2-7.1,32.1-13.1,47.4
			c-3.7,8.1-7.7,16-12.2,23.6c-2.3,4-3.9,8.3-4.9,12.7l-0.9,1.3c-14.3,19.7-31.5,37.3-49.6,53.6c-18.7,16.9-38.5,32.5-58.4,47.9
			c-24.5,18.9-49.1,37.9-73.7,56.7c-28.2,21.7-56.3,43.4-84.4,65.2c-5.3,4.2,0.5,13.1,6.5,11.2c56.3-18.2,115.5-25.7,174.5-22
			c7.6,2.2,16.4,2,24.3,2.8l23.7,2.2c11.9,1.1,23.8,2.2,35.7,3.3c11.7,2.1,23.4,4.2,35.1,6.2l37,6.4c4.6,0.8,9.2,1.7,13.9,2.6
			c3,1,6,2.1,8.9,3.3c7,2.7,13.8,5.7,20.8,8.3c3.6,2.4,7.5,4.5,10.5,6.5c7,4.7,14,9.5,20.9,14.5c13.9,10.1,27.4,20.9,40.3,32.4
			c12.7,11.3,24.8,23.1,36.3,35.6c3.7,4,7.3,8.1,10.8,12.3c-5.6-3.8-11.3-7.5-17.2-10.9c-9.2-5.3-19.8-12-30.4-14.4
			c-4.8-3.3-10-6-15.5-8l-0.6-0.3c-0.2-0.1-0.5-0.2-0.7-0.2l-1.2-0.4c-2.8-0.8-5.3,3.1-3,5.1l0.9,0.7c-0.1,0.8,0,1.6,0.3,2.4
			c3.7,8.4,7.9,16.6,11.8,25c2.7,5.9,4.8,12.3,7.3,18.4c-2.5-2.3-5.1-4.5-7.7-6.7c-10.9-9.2-22.4-17.6-34.4-25.3
			c-6-3.8-11.8-7.2-17-12.2c-5-4.7-9.6-9.8-13.9-15.2c-8.9-11-15.1-23.9-18.4-37.6c0.5-1.1,0.8-2.3,0.8-3.5c0.1-5.7-5.7-9.2-10-11.7
			c-9.6-5.6-20.5-8.2-31.5-9.6c-20.9-2.7-42.4-2.5-63.6-2.8c-0.9-0.4-1.8-0.5-2.8-0.5l-8.7,0.2c-0.7-0.4-1.5-0.6-2.3-0.6
			c-44.3,1.1-88.5,5.1-132.3,12c-27.1,0.2-54.4,5.3-80.9,9.8c-18.2,3.1-36.5,6-54.9,7.5c-11.6,1-23.4,1.3-35.1,1.2
			c-4.2-2.5-7-7.4-8.3-12c-2.4-8.4-0.6-16.4,3.7-23.9c5.1-8.9,12.5-16.2,19.5-23.5c7.1-7.4,13.7-15.2,19.8-23.4
			c24.3-33.3,38.7-72.7,49-112.2c6-22.5,10.5-45.4,13.7-68.5c0-0.2,0-0.3,0-0.5c7.8-51.8,3.6-107.7,27.2-155.8
			c22-44.8,69.7-74.6,119.5-75.3c35.4-0.6,68.8,14.8,93.7,39.1c4.2,6.7,7.9,13.6,11.2,20.7c4.5,11.9,7.9,24.2,10,36.7
			C1115.7,724.1,1115.7,738.2,1114.2,752.2z"/>
	</g>
</g>
</svg>
