<?xml version="1.0" encoding="UTF-8" standalone="no"?>
<!DOCTYPE svg PUBLIC "-//W3C//DTD SVG 1.1//EN" "http://www.w3.org/Graphics/SVG/1.1/DTD/svg11.dtd">
<svg width="100%" height="100%" viewBox="0 0 894 270" version="1.1" xmlns="http://www.w3.org/2000/svg" xmlns:xlink="http://www.w3.org/1999/xlink" xml:space="preserve" xmlns:serif="http://www.serif.com/" style="fill-rule:evenodd;clip-rule:evenodd;">
    <g transform="matrix(0.494257,0,0,0.494257,21.2545,10.2001)">
        <g>
            <g>
                <g>
                    <path d="M437.047,126.178L218.5,0L-0.047,126.178L-0.047,378.534L218.5,504.712L437.047,378.534L437.047,126.178ZM-0.047,126.178L-0.047,278.859C1.8,282.993 4.087,287.126 6.813,291.259C20.446,312.99 40.896,323.856 68.162,323.856C94.884,323.856 119.287,313.408 141.373,292.513C160.459,274.403 176.41,248.354 189.225,214.364C202.041,180.374 208.448,150.145 208.448,123.677C208.721,106.961 206.403,91.498 201.495,77.289C196.587,63.08 188.407,50.125 176.955,38.423C173.821,35.221 170.473,32.342 166.909,29.786L-0.047,126.178Z" style="fill:rgb(70,69,69);"/>
                    <g>
                        <path d="M306.788,369.609C306.788,366.076 307.869,363.192 310.032,360.957C312.267,358.722 314.863,357.605 317.818,357.605C322.865,357.605 325.389,359.948 325.389,364.634C325.389,366.725 324.668,368.852 323.226,371.015C321.856,373.178 319.693,374.62 316.737,375.341C319.188,377.359 322.288,378.369 326.037,378.369L326.47,378.369C329.57,378.369 332.31,377.503 334.689,375.773C337.14,373.971 339.231,371.231 340.961,367.554C342.692,363.877 343.989,360.597 344.855,357.713C345.72,354.829 346.729,351.044 347.883,346.358C349.685,339.148 351.415,332.407 353.074,326.135C356.174,313.446 357.724,305.335 357.724,301.802C357.724,297.405 356.75,293.98 354.804,291.529C352.857,289.077 350.262,287.852 347.017,287.852C342.115,287.852 337.176,290.231 332.202,294.989C327.299,299.676 323.478,306.525 320.738,315.537C320.162,317.339 319.693,318.421 319.332,318.781C319.044,319.142 318.179,319.322 316.737,319.322C314.502,319.322 313.385,318.601 313.385,317.159C313.385,315.645 314.142,313.122 315.656,309.589C317.242,305.984 319.369,302.163 322.036,298.126C324.704,294.088 328.308,290.555 332.851,287.527C337.465,284.499 342.331,282.985 347.45,282.985C357.904,282.985 365.005,287.996 368.754,298.017C370.557,294.629 373.296,291.276 376.973,287.96C380.65,284.644 385.156,282.985 390.491,282.985C394.889,282.985 399.179,284.067 403.361,286.23C407.614,288.32 409.741,291.889 409.741,296.936C409.741,300.757 408.552,303.677 406.172,305.696C403.793,307.642 401.378,308.616 398.927,308.616C396.259,308.616 394.276,307.895 392.979,306.453C391.753,304.939 391.14,303.316 391.14,301.586C391.14,300.865 391.212,300.036 391.357,299.099C391.501,298.089 392.294,296.648 393.736,294.773C395.25,292.826 397.341,291.565 400.008,290.988C397.629,288.897 394.385,287.852 390.275,287.852C381.552,287.852 375.027,295.746 370.701,311.535C367.313,325.883 364.825,336.012 363.239,341.924C360.427,353.892 359.021,361.318 359.021,364.202C359.021,369.393 360.031,373.07 362.049,375.232C364.14,377.323 366.592,378.369 369.403,378.369C374.45,378.369 379.389,376.026 384.219,371.339C389.122,366.581 392.979,359.696 395.791,350.684C396.367,348.881 396.836,347.836 397.196,347.548C397.557,347.187 398.422,347.007 399.792,347.007C402.027,347.007 403.108,347.728 403.036,349.17C403.036,350.467 402.279,352.883 400.765,356.415C399.323,359.876 397.268,363.697 394.601,367.879C392.005,371.988 388.401,375.593 383.786,378.693C379.244,381.793 374.306,383.343 368.971,383.343C365.005,383.343 360.968,382.226 356.859,379.991C352.821,377.756 349.829,373.827 347.883,368.203C342.115,378.224 334.905,383.271 326.254,383.343C320.919,383.343 316.34,382.082 312.519,379.558C308.698,377.035 306.788,373.718 306.788,369.609Z" style="fill:white;fill-rule:nonzero;"/>
                    </g>
                    <g>
                        <path d="M211.257,260.874C207.504,260.874 204.811,259.872 203.179,257.87C201.547,255.867 200.649,253.613 200.486,251.11C200.486,249.441 200.976,246.937 201.955,243.599C202.934,240.26 204.648,236.338 207.096,231.831C209.544,227.325 213.216,223.069 218.112,219.063C223.008,215.057 228.801,212.136 235.493,210.3L243.326,209.048L246.264,209.048C251.65,209.048 254.832,209.132 255.811,209.299C266.093,211.135 274.661,215.558 281.515,222.568C288.37,229.578 293.266,237.34 296.204,245.852C299.141,254.364 300.528,263.628 300.365,273.643C300.365,289.499 296.53,307.609 288.86,327.972C281.189,348.335 271.642,363.941 260.218,374.79C246.998,387.309 232.392,393.568 216.398,393.568C200.078,393.568 187.838,387.058 179.678,374.039C174.618,366.361 172.089,358.684 172.089,351.006L172.089,348.252C172.089,328.723 179.188,311.114 193.387,295.424C207.585,279.735 223.334,271.807 240.634,271.64C250.589,271.64 258.096,274.227 263.155,279.401C268.215,284.575 271.56,290.167 273.192,296.176L273.927,293.422C277.191,279.568 278.823,268.135 278.823,259.121C278.823,244.433 275.477,234.085 268.786,228.076C262.095,222.067 254.506,218.979 246.019,218.812C233.289,218.812 223.416,224.154 216.398,234.836C223.089,235.837 226.435,239.176 226.435,244.851C226.435,249.023 224.966,252.695 222.029,255.867C219.091,259.038 215.5,260.707 211.257,260.874ZM267.072,311.448C267.072,300.432 264.706,292.587 259.973,287.913C255.24,283.24 249.691,280.903 243.326,280.903C233.045,280.903 223.987,284.742 216.153,292.42C212.073,297.094 208.891,302.017 206.606,307.192C204.321,312.366 201.628,320.878 198.528,332.729C195.59,344.747 194.121,353.509 194.121,359.017C194.121,374.874 202.281,382.802 218.601,382.802C220.56,382.802 222.029,382.719 223.008,382.552C235.574,380.382 245.693,372.871 253.363,360.019C255.811,355.846 258.667,348.836 261.931,338.988C265.195,329.14 266.909,319.96 267.072,311.448Z" style="fill:white;fill-rule:nonzero;"/>
                        <path d="M211.257,260.874C207.504,260.874 204.811,259.872 203.179,257.87C201.547,255.867 200.649,253.613 200.486,251.11C200.486,249.441 200.976,246.937 201.955,243.599C202.934,240.26 204.648,236.338 207.096,231.831C209.544,227.325 213.216,223.069 218.112,219.063C223.008,215.057 228.801,212.136 235.493,210.3L243.326,209.048L246.264,209.048C251.65,209.048 254.832,209.132 255.811,209.299C266.093,211.135 274.661,215.558 281.515,222.568C288.37,229.578 293.266,237.34 296.204,245.852C299.141,254.364 300.528,263.628 300.365,273.643C300.365,289.499 296.53,307.609 288.86,327.972C281.189,348.335 271.642,363.941 260.218,374.79C246.998,387.309 232.392,393.568 216.398,393.568C200.078,393.568 187.838,387.058 179.678,374.039C174.618,366.361 172.089,358.684 172.089,351.006L172.089,348.252C172.089,328.723 179.188,311.114 193.387,295.424C207.585,279.735 223.334,271.807 240.634,271.64C250.589,271.64 258.096,274.227 263.155,279.401C268.215,284.575 271.56,290.167 273.192,296.176L273.927,293.422C277.191,279.568 278.823,268.135 278.823,259.121C278.823,244.433 275.477,234.085 268.786,228.076C262.095,222.067 254.506,218.979 246.019,218.812C233.289,218.812 223.416,224.154 216.398,234.836C223.089,235.837 226.435,239.176 226.435,244.851C226.435,249.023 224.966,252.695 222.029,255.867C219.091,259.038 215.5,260.707 211.257,260.874ZM267.072,311.448C267.072,300.432 264.706,292.587 259.973,287.913C255.24,283.24 249.691,280.903 243.326,280.903C233.045,280.903 223.987,284.742 216.153,292.42C212.073,297.094 208.891,302.017 206.606,307.192C204.321,312.366 201.628,320.878 198.528,332.729C195.59,344.747 194.121,353.509 194.121,359.017C194.121,374.874 202.281,382.802 218.601,382.802C220.56,382.802 222.029,382.719 223.008,382.552C235.574,380.382 245.693,372.871 253.363,360.019C255.811,355.846 258.667,348.836 261.931,338.988C265.195,329.14 266.909,319.96 267.072,311.448Z" style="fill:none;fill-rule:nonzero;stroke:white;stroke-width:1px;"/>
                    </g>
                    <path d="M57.878,106.601C52.613,106.601 48.835,105.195 46.546,102.384C44.256,99.572 42.997,96.41 42.768,92.895C42.768,90.553 43.455,87.038 44.829,82.353C46.202,77.667 48.606,72.161 52.04,65.836C55.474,59.51 60.625,53.536 67.493,47.913C74.361,42.29 82.489,38.19 91.875,35.613L102.864,33.856L106.985,33.856C114.54,33.856 119.004,33.973 120.377,34.207C134.8,36.785 146.819,42.993 156.435,52.833C166.05,62.673 172.918,73.567 177.039,85.515C181.16,97.464 183.106,110.467 182.877,124.524C182.877,146.78 177.497,172.2 166.737,200.783C155.977,229.365 142.584,251.271 126.559,266.499C108.015,284.07 87.525,292.856 65.09,292.856C42.196,292.856 25.026,283.719 13.579,265.445C6.482,254.668 2.934,243.891 2.934,233.114L2.934,229.248C2.934,201.837 12.892,177.12 32.81,155.097C52.727,133.075 74.819,121.946 99.086,121.712C113.052,121.712 123.583,125.344 130.68,132.606C137.777,139.869 142.47,147.718 144.759,156.152L145.789,152.286C150.368,132.841 152.657,116.792 152.657,104.141C152.657,83.524 147.964,68.998 138.578,60.564C129.191,52.13 118.546,47.796 106.641,47.562C88.784,47.562 74.934,55.059 65.09,70.053C74.476,71.458 79.169,76.144 79.169,84.11C79.169,89.967 77.109,95.121 72.988,99.572C68.867,104.024 63.83,106.367 57.878,106.601ZM136.174,177.589C136.174,162.126 132.854,151.115 126.215,144.555C119.576,137.995 111.792,134.715 102.864,134.715C88.441,134.715 75.735,140.103 64.746,150.88C59.023,157.44 54.559,164.352 51.353,171.614C48.148,178.877 44.371,190.826 40.021,207.46C35.9,224.328 33.84,236.628 33.84,244.359C33.84,266.616 45.287,277.745 68.18,277.745C70.927,277.745 72.988,277.628 74.361,277.393C91.989,274.348 106.183,263.805 116.943,245.765C120.377,239.908 124.384,230.068 128.963,216.245C133.541,202.423 135.945,189.537 136.174,177.589Z" style="fill:rgb(0,148,232);fill-rule:nonzero;"/>
                </g>
            </g>
        </g>
    </g>
    <g transform="matrix(1,0,0,1,269,121.229)">
        <path d="M5.859,0L52.539,0L52.539,-12.158L20.605,-12.158L20.605,-29.883L50.732,-29.883L50.732,-41.406L20.605,-41.406L20.605,-58.301L52.539,-58.301L52.539,-70.459L5.859,-70.459L5.859,0Z" style="fill:rgb(0,148,232);fill-rule:nonzero;"/>
        <path d="M63.184,0L77.881,0L77.881,-46.143L78.174,-46.143L110.107,0L122.9,0L122.9,-70.459L108.203,-70.459L108.203,-24.658L107.91,-24.658L76.074,-70.459L63.184,-70.459L63.184,0Z" style="fill:rgb(0,148,232);fill-rule:nonzero;"/>
        <path d="M133.105,0L187.5,0L187.5,-12.158L150.83,-12.158L150.83,-12.451L186.523,-60.889L186.523,-70.459L133.936,-70.459L133.936,-58.301L168.945,-58.301L168.945,-58.008L133.105,-9.619L133.105,0Z" style="fill:rgb(0,148,232);fill-rule:nonzero;"/>
        <path d="M217.725,0L232.471,0L232.471,-26.318L257.031,-70.459L241.064,-70.459L225.293,-40.381L224.951,-40.381L209.131,-70.459L193.213,-70.459L217.725,-26.318L217.725,0Z" style="fill:rgb(0,148,232);fill-rule:nonzero;"/>
        <path d="M264.209,0L277.344,0L277.344,-47.656L277.734,-47.656L296.777,0L306.055,0L325.049,-47.656L325.488,-47.656L325.488,0L338.623,0L338.623,-70.459L321.582,-70.459L301.563,-19.824L301.27,-19.824L281.25,-70.459L264.209,-70.459L264.209,0Z" style="fill:rgb(0,148,232);fill-rule:nonzero;"/>
        <path d="M350.342,0L397.021,0L397.021,-12.158L365.088,-12.158L365.088,-29.883L395.215,-29.883L395.215,-41.406L365.088,-41.406L365.088,-58.301L397.021,-58.301L397.021,-70.459L350.342,-70.459L350.342,0Z" style="fill:rgb(0,148,232);fill-rule:nonzero;"/>
    </g>
    <g transform="matrix(1,0,0,1,0,98)">
        <g>
            <g transform="matrix(1,0,0,1,269,121.229)">
                <path d="M5.859,0L52.539,0L52.539,-12.158L20.605,-12.158L20.605,-29.883L50.732,-29.883L50.732,-41.406L20.605,-41.406L20.605,-58.301L52.539,-58.301L52.539,-70.459L5.859,-70.459L5.859,0Z" style="fill:rgb(70,69,69);fill-rule:nonzero;"/>
                <path d="M59.424,0L75.342,0L90.723,-24.707L91.211,-24.707L106.689,0L123.486,0L100.684,-35.205L100.684,-35.4L123.779,-70.459L107.324,-70.459L92.432,-45.068L91.895,-45.068L76.904,-70.459L59.57,-70.459L81.836,-35.645L81.836,-35.498L59.424,0Z" style="fill:rgb(70,69,69);fill-rule:nonzero;"/>
                <path d="M131.738,0L146.484,0L146.484,-22.217L160.059,-22.217C174.902,-22.217 184.814,-31.787 184.814,-46.289L184.814,-46.387C184.814,-60.889 174.902,-70.459 160.059,-70.459L131.738,-70.459L131.738,0ZM156.445,-58.789C164.893,-58.789 169.873,-54.346 169.873,-46.338L169.873,-46.24C169.873,-38.232 164.893,-33.74 156.445,-33.74L146.484,-33.74L146.484,-58.789L156.445,-58.789Z" style="fill:rgb(70,69,69);fill-rule:nonzero;"/>
                <path d="M193.506,0L239.063,0L239.063,-12.158L208.252,-12.158L208.252,-70.459L193.506,-70.459L193.506,0Z" style="fill:rgb(70,69,69);fill-rule:nonzero;"/>
            </g>
            <g transform="matrix(1,0,0,1,508.014,121.229)">
                <path d="M37.646,1.221C58.594,1.221 71.631,-12.793 71.631,-35.205L71.631,-35.303C71.631,-57.666 58.545,-71.68 37.646,-71.68C16.797,-71.68 3.662,-57.715 3.662,-35.303L3.662,-35.205C3.662,-12.793 16.699,1.221 37.646,1.221ZM37.646,-11.279C26.074,-11.279 18.701,-20.459 18.701,-35.205L18.701,-35.303C18.701,-50.049 26.123,-59.18 37.646,-59.18C49.219,-59.18 56.592,-50 56.592,-35.303L56.592,-35.205C56.592,-20.605 49.365,-11.279 37.646,-11.279Z" style="fill:rgb(70,69,69);fill-rule:nonzero;"/>
                <path d="M81.104,0L95.85,0L95.85,-25.537L107.666,-25.537L120.801,0L137.5,0L122.656,-27.734C130.469,-30.811 135.4,-38.525 135.4,-47.803L135.4,-47.9C135.4,-62.061 126.025,-70.459 110.205,-70.459L81.104,-70.459L81.104,0ZM95.85,-36.719L95.85,-58.936L108.398,-58.936C115.674,-58.936 120.313,-54.639 120.313,-47.9L120.313,-47.803C120.313,-40.869 115.918,-36.719 108.594,-36.719L95.85,-36.719Z" style="fill:rgb(70,69,69);fill-rule:nonzero;"/>
                <path d="M145.117,0L191.797,0L191.797,-12.158L159.863,-12.158L159.863,-29.883L189.99,-29.883L189.99,-41.406L159.863,-41.406L159.863,-58.301L191.797,-58.301L191.797,-70.459L145.117,-70.459L145.117,0Z" style="fill:rgb(70,69,69);fill-rule:nonzero;"/>
                <path d="M202.441,0L217.188,0L217.188,-25.537L229.004,-25.537L242.139,0L258.838,0L243.994,-27.734C251.807,-30.811 256.738,-38.525 256.738,-47.803L256.738,-47.9C256.738,-62.061 247.363,-70.459 231.543,-70.459L202.441,-70.459L202.441,0ZM217.188,-36.719L217.188,-58.936L229.736,-58.936C237.012,-58.936 241.65,-54.639 241.65,-47.9L241.65,-47.803C241.65,-40.869 237.256,-36.719 229.932,-36.719L217.188,-36.719Z" style="fill:rgb(70,69,69);fill-rule:nonzero;"/>
            </g>
        </g>
    </g>
</svg>
