<svg xmlns="http://www.w3.org/2000/svg" viewBox="0 0 894 270">
  <path class="logo-pri" fill="#67c52a" d="M337.38 51.43v24.4c-2.1-2.8-4.7-4.9-7.8-6.4-3.2-1.5-6.5-2.2-10-2.2-6.2 0-11.2 2.1-15.1 6.2-3.9 4.2-5.8 9.3-5.8 15.5s2 11.3 5.9 15.3 9 6 15.3 6c3.3 0 6.5-.7 9.7-2.2 3.1-1.5 5.7-3.5 7.9-6.1v24.4c-7.9 2.4-13.9 3.6-18 3.6-11.1 0-20.9-3.8-29.4-11.5-8.4-7.5-12.6-17.4-12.6-29.6 0-11.2 3.8-20.8 11.5-28.7 3.9-3.9 8.4-7 13.7-9.3 5.3-2.2 10.6-3.4 16.1-3.4 6 .1 12.2 1.4 18.6 4zm38.4.6c6.6-3.4 13.6-5 21.2-5 7.5 0 14.6 1.7 21.2 5 6.6 3.4 11.9 8.2 16 14.4s6.1 13.2 6.1 20.9c0 12.7-4.1 23-12.2 31.1s-18.5 12.1-31.1 12.1-23-4-31.1-12.1-12.2-18.4-12.2-31.1c0-7.7 2-14.6 6.1-20.9s9.4-11.1 16-14.4zm36.8 20.9c-4.4-4.2-9.6-6.2-15.6-6.2s-11.2 2.1-15.6 6.2c-4.4 4.2-6.5 9-6.5 14.4 0 6.6 2.1 12.2 6.4 16.7s9.5 6.7 15.7 6.7 11.4-2.2 15.7-6.7 6.4-10 6.4-16.7c0-5.4-2.1-10.2-6.5-14.4zm40.3 54.9l13.3-78.3h20l15.9 41.9 16.8-41.9h20.3l11.8 78.3h-20.4l-5.7-45.1h-.2l-18.8 45.1h-8.1l-18-45.1h-.2l-6.5 45.1zm115.8 0v-78.3h31.2c8.8 0 15.7 2.1 20.8 6.4s7.6 10.7 7.6 19.4c0 17.7-9.2 26.6-27.7 26.6h-11.5v26h-20.4zm20.4-61.9v19.5h3.4c1.9 0 3.4 0 4.4-.1 1 0 2.3-.2 3.8-.6 1.6-.3 2.7-.8 3.5-1.5.8-.6 1.4-1.6 2-2.8s.9-2.8.9-4.7-.3-3.5-.8-4.8c-.6-1.3-1.2-2.3-2-3s-1.9-1.2-3.4-1.5-2.8-.5-3.8-.6c-1.1-.1-2.6-.1-4.6-.1h-3.4zm76.3-16.4v78.3h-20.4v-78.3zm42.6 0v61.1h24.4v17.2h-44.8v-78.3zm83.8 17.3h-24.2v13.1h23v17.2h-23v13.5h24.2v17.2h-44.6v-78.3h44.6zm62.2 29l24.6 32.1h-25.3l-19.2-30.1h-.2v30.1h-20.5v-78.3h30.4c8.2 0 14.7 2 19.7 6s7.5 10 7.5 18.1c0 5.6-1.5 10.5-4.5 14.5-2.9 4.1-7.1 6.6-12.5 7.6zm-20.2-30.7v19.5h2c9.4 0 14.1-3.3 14.1-9.8s-4.7-9.8-14.1-9.8h-2zM228.18 192.43c-1.1-2.1-1.1-4.6 0-6.6 1.4-2.5 2.6-5 3.8-7.6.8-1.9-.5-4-2.6-4h-22.5c-2.3 0-4.5 1.2-5.7 3.1-2.9 4.4-6.3 8.7-10.1 12.5-14.5 14.5-33.7 22.4-54.1 22.4-20.5 0-39.7-8-54.1-22.4-14.6-14.4-22.5-33.6-22.5-54.1s8-39.7 22.4-54.1c14.5-14.5 33.7-22.4 54.1-22.4 20.5 0 39.7 8 54.1 22.4 3.9 3.9 7.2 8.1 10.1 12.5 1.3 1.9 3.4 3.1 5.7 3.1h22.6c2.1 0 3.4-2.1 2.6-4-1.2-2.6-2.4-5.1-3.8-7.6-1.1-2.1-1.1-4.6 0-6.6l7.6-13.8c1.5-2.7 1-6-1.2-8.2l-19.1-19.1c-2.2-2.2-5.5-2.6-8.2-1.2l-13.9 7.7c-2.1 1.1-4.6 1.1-6.6 0-6.6-3.6-13.6-6.5-20.8-8.6-2.3-.7-4.1-2.4-4.7-4.7l-4.4-15.2c-.9-2.9-3.5-5-6.6-5h-27c-3.1 0-5.8 2-6.6 5l-4.4 15.2c-.7 2.3-2.4 4-4.7 4.7-7.2 2.1-14.2 5-20.8 8.6-2.1 1.1-4.6 1.2-6.6 0l-13.9-7.7c-2.7-1.5-6-1-8.2 1.2l-19.1 19.1c-2.2 2.2-2.6 5.5-1.2 8.2l7.7 13.9c1.1 2.1 1.1 4.6 0 6.6-3.6 6.6-6.5 13.6-8.6 20.8-.7 2.3-2.4 4.1-4.7 4.7l-15.2 4.4c-2.9.9-5 3.5-5 6.6v27c0 3.1 2 5.8 5 6.6l15.2 4.4c2.3.7 4 2.4 4.7 4.7 2.1 7.2 5 14.2 8.6 20.8 1.1 2.1 1.2 4.6 0 6.6l-7.7 13.9c-1.5 2.7-1 6 1.2 8.2l19.1 19.1c2.2 2.2 5.5 2.6 8.2 1.2l13.9-7.7c2.1-1.1 4.6-1.1 6.6 0 6.6 3.6 13.6 6.5 20.8 8.6 2.3.7 4.1 2.4 4.7 4.7l4.4 15.2c.9 2.9 3.5 5 6.6 5h27c3.1 0 5.8-2 6.6-5l4.4-15.2c.7-2.3 2.4-4 4.7-4.7 7.2-2.1 14.2-5 20.8-8.6 2.1-1.1 4.6-1.2 6.6 0l13.9 7.7c2.7 1.5 6 1 8.2-1.2l19.1-19.1c2.2-2.2 2.6-5.5 1.2-8.2z"/>
  <path class="logo-sec" fill="#3c3c3f" d="M322.08 161.13h-24.1v13h22.8v17.1h-22.8v13.5h24.1v17.1h-44.3v-77.9h44.3zm44.6 19.2l-24.9-36.3h24.9l11.9 20.1 11.9-20.1h24.9l-24.9 36.3 28.8 41.6h-24.4l-16.3-25.4-17.9 25.4h-24.5zm67 41.6v-77.9h31c8.7 0 15.6 2.1 20.7 6.4 5.1 4.2 7.6 10.7 7.6 19.3 0 17.6-9.2 26.4-27.6 26.4h-11.5v25.8zm20.3-61.6v19.4h3.4c1.9 0 3.4 0 4.4-.1 1 0 2.3-.2 3.8-.6 1.5-.3 2.7-.8 3.5-1.4s1.4-1.5 2-2.8c.6-1.2.9-2.8.9-4.6 0-1.9-.3-3.5-.8-4.8-.6-1.3-1.2-2.3-2-2.9-.8-.7-1.9-1.2-3.4-1.5s-2.8-.5-3.8-.6c-1.1-.1-2.6-.1-4.6-.1zm75.6-16.3v60.7h24.3v17.1h-44.5v-77.9h20.2zm56.5 2.4c6.5-3.3 13.6-5 21.1-5s14.5 1.7 21.1 5c6.5 3.3 11.8 8.1 15.9 14.3s6.1 13.1 6.1 20.8c0 12.6-4 22.9-12.1 30.9s-18.4 12-30.9 12-22.8-4-30.9-12-12.1-18.3-12.1-30.9c0-7.6 2-14.6 6.1-20.8 3.8-6.2 9.1-10.9 15.7-14.3zm36.5 20.8c-4.3-4.1-9.5-6.2-15.5-6.2s-11.2 2.1-15.5 6.2-6.5 8.9-6.5 14.4c0 6.6 2.1 12.1 6.4 16.6 4.3 4.4 9.5 6.7 15.6 6.7s11.3-2.2 15.6-6.7c4.3-4.4 6.4-10 6.4-16.6.1-5.4-2.1-10.2-6.5-14.4zm86.3 22.8l24.5 31.9h-25.2l-19.1-30h-.2v30h-20.2v-77.9h30.3c8.1 0 14.7 2 19.6 6 5 4 7.4 10 7.4 18 0 5.6-1.5 10.4-4.5 14.5-3.1 4-7.3 6.5-12.6 7.5zm-20.1-30.5v19.4h2c9.4 0 14-3.2 14-9.7s-4.7-9.7-14-9.7zm103.1 1.6h-24.1v13h22.8v17.1h-22.8v13.5h24.1v17.1h-44.3v-77.9h44.3zm61.8 28.9l24.5 31.9h-25.2l-19.1-30h-.2v30h-20.3v-77.9h30.3c8.1 0 14.7 2 19.6 6 5 4 7.4 10 7.4 18 0 5.6-1.5 10.4-4.5 14.5-2.9 4-7.1 6.5-12.5 7.5zm-20-30.5v19.4h2c9.4 0 14-3.2 14-9.7s-4.7-9.7-14-9.7zM91.08 96.83h92.7v17.2h-92.7zm0 30.6h76.4v17.2h-76.4zm0 30.6h92.7v17.2h-92.7z"/>
</svg>