<svg xmlns="http://www.w3.org/2000/svg" viewBox="0 0 210 210">
  <path class="cppi-logo-sec" fill="#000" d="M86.7 138.22l-64.953 64.953c-2.5698 2.5698-6.7075 2.5698-9.2782 0l-4.6391-4.6401c-2.5698-2.5698-2.5698-6.7075 0-9.2782l64.953-64.953c4.6344 4.6438 13.489 13.489 13.917 13.917zM112.97 91.765V81.087H91.709v-6.3311h21.261v-21.356h6.3303l.024 10.654.024 10.654 21.308.04804v6.3295l-21.308.04804-.024 10.654-.024 10.654H112.97zM163.3 91.765V81.087h-21.261v-6.3311H163.3v-21.356h6.3303l.024 10.654.024 10.654 21.308.04804v6.3295l-21.308.04804-.024 10.654-.024 10.654H163.3z"/>
  <path class="cppi-logo-pri" fill="none" stroke="#2980b9" stroke-linecap="square" stroke-width="19" d="M191.21 108.07a63.508 63.508 0 0 1-70.527 31.65 63.508 63.508 0 0 1-48.848-59.914 63.508 63.508 0 0 1 45.205-62.708 63.508 63.508 0 0 1 72.282 27.407"/>
</svg>
