<?xml version="1.0" encoding="utf-8"?>
<svg version="1.1" width="2470" height="2680" viewBox="0 0 2470 2680"
	xmlns="http://www.w3.org/2000/svg"
	xmlns:xlink="http://www.w3.org/1999/xlink"
	xml:space="preserve">
	<style type="text/css">
		path    { stroke: #000; fill: #000;    }
		.blue   { stroke: none; fill: #001ec8; }
		.purple { stroke: none; fill: #14127b; }
		.lace{
			fill: none;
			stroke: #000050;
			stroke-width: 4.56;
			stroke-linecap: round;
			stroke-dasharray: 4.56, 9.12;
		}
		#beak { stroke-width: 1.4543; }
		#eye  { fill: #fff; }
		#slogan{
			font-family: DejaVu Sans, DejaVuSans, sans-serif;
			font-size: 160px;
			letter-spacing: 2.058;
		}
	</style>
	<g id="mascot">
		<path d="M1611.977,893.89c0,0,9.516-105.79,218.437-113.147c176.135,10.486,299.541,181.092,341.412,235.654c0,0-152.667,101.169-309.918-74.527C1680.564,779.166,1611.977,893.89,1611.977,893.89z"/>
		<path d="M1611.977,893.89c0,0,9.516-105.79,218.437-113.147c176.135,10.486,299.541,181.092,341.412,235.654c0,0-152.667,101.169-309.918-74.527C1680.564,779.166,1611.977,893.89,1611.977,893.89z"/>
		<path d="M1609.99,951.172c0,0-17.842,77.477,85.748,137.389c72.271,41.798,31.627,53.267,31.627,53.267s33.552,6.073,89.941-45.237c80.09-72.877,39.384-130.639,39.384-130.639s-84.44-119.765-160.184-28.007C1696.505,937.944,1672.542,966.059,1609.99,951.172z"/>
		<path d="M1609.99,951.172c0,0-17.842,77.477,85.748,137.389c72.271,41.798,31.627,53.267,31.627,53.267s33.552,6.073,89.941-45.237c80.09-72.877,39.384-130.639,39.384-130.639s-84.44-119.765-160.184-28.007C1696.505,937.944,1672.542,966.059,1609.99,951.172z"/>
		<path d="M1886.471,988.581c0,0,11.138,114.979-147.041,163.575c0,0,162.152-61.352,338.891,89.662c0,0,18.5-138.54,102.683-209.607C2171.425,1034.984,2039.909,1121.692,1886.471,988.581z"/>
		<path d="M1886.471,988.581c0,0,11.138,114.979-147.041,163.575c0,0,162.152-61.352,338.891,89.662c0,0,18.5-138.54,102.683-209.607C2171.425,1034.984,2039.909,1121.692,1886.471,988.581z"/>
		<path d="M1620.416,927.717c0,0,52.75,50.553,101.022-46.643C1721.438,881.075,1661.457,839.26,1620.416,927.717z"/>
		<path d="M1620.416,927.717c0,0,52.75,50.553,101.022-46.643C1721.438,881.075,1661.457,839.26,1620.416,927.717z"/>
		<path id="eye" d="M1663.644,906.901c1.978,6.592-1.131,13.3-6.948,14.985c-5.818,1.685-12.139-2.292-14.12-8.884c-1.978-6.589,1.134-13.297,6.952-14.982C1655.345,896.335,1661.666,900.312,1663.644,906.901z"/>
		<path d="M2425.161,1516.737c10.324-223.678,6.519-390.567-146.927-494.139c-197.333-224.644-429.309-530.796-380.538-901.605c35.248-267.985,54.6-5.352,54.6-5.352s43.629,382.154,187.388,504.897C2505.941,943.871,2506.367,1121.287,2425.161,1516.737z"/>
		<path d="M2425.161,1516.737c10.324-223.678,6.519-390.567-146.927-494.139c-197.333-224.644-429.309-530.796-380.538-901.605c35.248-267.985,54.6-5.352,54.6-5.352s43.629,382.154,187.388,504.897C2505.941,943.871,2506.367,1121.287,2425.161,1516.737z"/>
		<path d="M1828.757,315.384c0,0,52.75,258.796,193.011,419.396c147.362,168.734,110.844,131.4,234.271,285.874c0,0-13.726-12.4-55.464,0.307c0,0-112.847-170.83-224.24-222.873c0,0-139.636-143.078-161.395-297.193C1779.606,250.634,1811.812,220.859,1828.757,315.384z"/>
		<path d="M1828.757,315.384c0,0,52.75,258.796,193.011,419.396c147.362,168.734,110.844,131.4,234.271,285.874c0,0-13.726-12.4-55.464,0.307c0,0-112.847-170.83-224.24-222.873c0,0-139.636-143.078-161.395-297.193C1779.606,250.634,1811.812,220.859,1828.757,315.384z"/>
		<path d="M1948.479,783.247c0,0-125.77-141.083-137.986-179.972c-21.57-68.681-29.621-88.42-36.591-29.45c-3.865,32.725,19.875,183.652,86.226,190.548C1904.166,768.949,1948.479,783.247,1948.479,783.247z"/>
		<path d="M1948.479,783.247c0,0-125.77-141.083-137.986-179.972c-21.57-68.681-29.621-88.42-36.591-29.45c-3.865,32.725,19.875,183.652,86.226,190.548C1904.166,768.949,1948.479,783.247,1948.479,783.247z"/>
		<path d="M265.722,564.054c-8.152,108.752,34.836,295.607,94.35,374.47c116.74,238.76,440.318,520.593,886.586,435.668c138.708-39.579,259.46,24.864,346.052,98.731c83.282,84.862,112.474,99.424,169.505,65.834c-59.141-57.281-122.45-124.229-121.132-212.485c4.155-64.08,27.511-126.884,68.622-161.109c-40.588-142.423-268.016-149.301-369.352-139.12c-131.23,8.867-262.996,76.582-380.2,89.509c-325.448-26.657-561.363-250.677-637.996-595.553C289.667,361.155,273.87,455.302,265.722,564.054z"/>
		<path d="M265.722,564.054c-8.152,108.752,34.836,295.607,94.35,374.47c116.74,238.76,440.318,520.593,886.586,435.668c138.708-39.579,259.46,24.864,346.052,98.731c83.282,84.862,112.474,99.424,169.505,65.834c-59.141-57.281-122.45-124.229-121.132-212.485c4.155-64.08,27.511-126.884,68.622-161.109c-40.588-142.423-268.016-149.301-369.352-139.12c-131.23,8.867-262.996,76.582-380.2,89.509c-325.448-26.657-561.363-250.677-637.996-595.553C289.667,361.155,273.87,455.302,265.722,564.054z"/>
		<path d="M562.838,1304.813c230.013,136.835,460.685,181.856,650.958,111.34c0,0,173.715-105.567,417.032,116.186c0,0-273.168,145.195-534.295,135.596c-94.496-3.474-390.567-65.621-583.404-262.864c-175.166-179.173-177.987-366.224-99.331-247.676C491.29,1274.181,562.838,1304.813,562.838,1304.813z"/>
		<path d="M562.838,1304.813c230.013,136.835,460.685,181.856,650.958,111.34c0,0,173.715-105.567,417.032,116.186c0,0-273.168,145.195-534.295,135.596c-94.496-3.474-390.567-65.621-583.404-262.864c-175.166-179.173-177.987-366.224-99.331-247.676C491.29,1274.181,562.838,1304.813,562.838,1304.813z"/>
		<path d="M965.398,1707.048c335.49,31.676,535.63-83.299,681.562-151.143c24.455,174.479-266.714,305.736-474.431,287.002c-138.928-6.75-333.321-37.361-454.117-163.129c-11.647-12.125-91.392-113.813,36.099-35.268C837.091,1683.747,895.998,1693.123,965.398,1707.048z"/>
		<path d="M965.398,1707.048c335.49,31.676,535.63-83.299,681.562-151.143c24.455,174.479-266.714,305.736-474.431,287.002c-138.928-6.75-333.321-37.361-454.117-163.129c-11.647-12.125-91.392-113.813,36.099-35.268C837.091,1683.747,895.998,1693.123,965.398,1707.048z"/>
		<path d="M1684.492,1568.591c63.313,127.972,114.759,155.246,291.324,232.417c107.66,49.228,142.959,77.509,117.842,122.341c0,0,133.856-71.649,196.353-165.761c0,0-339.162-60.108-515.42-210.421C1729.984,1583.869,1684.492,1568.591,1684.492,1568.591z"/>
		<path d="M1684.492,1568.591c63.313,127.972,114.759,155.246,291.324,232.417c107.66,49.228,142.959,77.509,117.842,122.341c0,0,133.856-71.649,196.353-165.761c0,0-339.162-60.108-515.42-210.421C1729.984,1583.869,1684.492,1568.591,1684.492,1568.591z"/>
		<path d="M1670.934,1581.267c0,0,5.497,149.755-207.863,248.039c-153.561,70.739,39.722,44.073,138.258-3.812c101.34-49.249,123.406-118.457,108.874-175.288C1699.108,1606.821,1682.043,1593.276,1670.934,1581.267z"/>
		<path d="M1670.934,1581.267c0,0,5.497,149.755-207.863,248.039c-153.561,70.739,39.722,44.073,138.258-3.812c101.34-49.249,123.406-118.457,108.874-175.288C1699.108,1606.821,1682.043,1593.276,1670.934,1581.267z"/>
		<path d="M2421.78,1531.324c0,0-61.757,173.345-118.533,221.491c0,0,36.291,8.63,49.189,85.811C2389.425,1748.033,2421.78,1531.324,2421.78,1531.324z"/>
		<path d="M2421.78,1531.324c0,0-61.757,173.345-118.533,221.491c0,0,36.291,8.63,49.189,85.811C2389.425,1748.033,2421.78,1531.324,2421.78,1531.324z"/>
		<path d="M2298.067,1774.257c0,0,60.485,207.06-215.383,436.233c-121.197,100.688-246.916,149.312-391.878,178.315c0,0-287.012,47.125-352.704-156.11c0,0,58.862,34.805,211.641,24.406C1979.896,2227.826,2259.594,1990.693,2298.067,1774.257z"/>
		<path d="M2298.067,1774.257c0,0,60.485,207.06-215.383,436.233c-121.197,100.688-246.916,149.312-391.878,178.315c0,0-287.012,47.125-352.704-156.11c0,0,58.862,34.805,211.641,24.406C1979.896,2227.826,2259.594,1990.693,2298.067,1774.257z"/>
		<path d="M1496.487,2128.527c0,0,38.184,92.072,159.839,90.203c210.235-3.234,551.609-189.684,614.506-413.938c0,0-176.721,209.97-498.868,285.338C1562.705,2139.085,1496.487,2128.527,1496.487,2128.527z"/>
		<path d="M1496.487,2128.527c0,0,38.184,92.072,159.839,90.203c210.235-3.234,551.609-189.684,614.506-413.938c0,0-176.721,209.97-498.868,285.338C1562.705,2139.085,1496.487,2128.527,1496.487,2128.527z"/>
		<path d="M2319.562,1784.373c67.984,66.106,49.556,575.534-455.449,704.963c0,0-201.498,64.398-354.49-55.349c201.174,25.111,498.821-106.314,617.34-227.303C2258.872,2072.029,2338.648,1933.761,2319.562,1784.373z"/>
		<path d="M2319.562,1784.373c67.984,66.106,49.556,575.534-455.449,704.963c0,0-201.498,64.398-354.49-55.349c201.174,25.111,498.821-106.314,617.34-227.303C2258.872,2072.029,2338.648,1933.761,2319.562,1784.373z"/>
		<path d="M947.427,945.126c251.781-104.964,473.12-102.836,658.46-50.581c0,0-8.138,17.765-24.361,13.907c-5.711-1.357,1.667,12.11,26.509,40.646C1419.208,872.766,1193.775,886.398,947.427,945.126z"/>
		<path id="beak" d="M947.427,945.126c251.781-104.964,473.12-102.836,658.46-50.581c0,0-8.138,17.765-24.361,13.907c-5.711-1.357,1.667,12.11,26.509,40.646C1419.208,872.766,1193.775,886.398,947.427,945.126z"/>
		<path class="blue" d="M2072.565,1258.561c0,0-40.71-39.82-105.351-69.183c-32.318-14.681-73.917-29.034-112.812-29.92c-47.728-1.085-90.031-8.288-139.967,30.381c-161.914,198.937,48.743,442.226,554.504,543.472C2215.211,1728.684,1632.122,1148.595,2072.565,1258.561z"/>
		<path class="lace" d="M2072.565,1258.561c0,0-40.71-39.82-105.351-69.183c-32.318-14.681-73.917-29.034-112.812-29.92c-47.728-1.085-90.031-8.288-139.967,30.381c-161.914,198.937,48.743,442.226,554.504,543.472C2215.211,1728.684,1632.122,1148.595,2072.565,1258.561z"/>
		<path class="blue" d="M2089,1250.758c0,0,6.621-47.435,31.076-105.404c24.456-57.972,69.361-122.52,135.318-108.428c99.035,38.683,198.1,202.659,144.854,504.171c-27.158,96.066-92.941,186.513-92.941,186.513C2319.081,1729.811,2292.455,846.947,2089,1250.758z"/>
		<path class="lace" d="M2089,1250.758c0,0,6.621-47.435,31.076-105.404c24.456-57.972,69.361-122.52,135.318-108.428c99.035,38.683,198.1,202.659,144.854,504.171c-27.158,96.066-92.941,186.513-92.941,186.513C2319.081,1729.811,2292.455,846.947,2089,1250.758z"/>
		<path class="purple" d="M2093.633,1281.527c-180.681-66.114-247.607,81.789,206.231,465.208C2290.286,1535.207,2251.655,961.503,2093.633,1281.527z"/>
		<path class="lace" d="M2093.633,1281.527c-180.681-66.114-247.607,81.789,206.231,465.208C2290.286,1535.207,2251.655,961.503,2093.633,1281.527z"/>
	</g>
</svg>
