<svg xmlns="http://www.w3.org/2000/svg" width="355.555555555556" height="177.777777777778">
<path d="M49.7777777777778 7.32929319639176 h280.888888888889 v141.785858051661 h-280.888888888889 Z M64 33.9959598630584 h252.444444444444 v88.4525247183276 h-252.444444444444 Z" stroke="none" fill="#3F87AF" fill-rule="evenodd"/>
<path d="M64 111.781817914719 h252.444444444444 v10.6666666666667 h-252.444444444444 Z" stroke="none" fill="#8C96A0"/>
<path d="M64 33.9959598630584 h252.444444444444 v10.6666666666667 h-252.444444444444 Z" stroke="none" fill="#8C96A0"/>
<path d="M64 44.6626265297251 h252.444444444444 v67.1191913849942 h-252.444444444444 Z" stroke="none" fill="#FFFFFF"/>
<path d="M99.1179703874409 137.550135143052 C93.2711853763986 133.302197180425,88.084448516421 128.213312506961,83.725936053644 122.448484581386 L110.089961763567 122.448484581386 Z" stroke="none" fill="#8C96A0"/>
<path d="M99.1179703874409 18.8943093013927 C93.2711853763986 23.1422472640192,88.084448516421 28.2311319374834,83.725936053644 33.9959598630584 L110.089961763567 33.9959598630584 Z" stroke="none" fill="#8C96A0"/>
<path d="M126.968649704419 100.555210486665 C109.380820468897 87.7769045717629,109.380820468897 61.5564287615705,126.968649704419 48.7781228466684 L116.780371998016 34.7551616108359 C89.6658019265873 54.45504989631,89.6658019265873 94.8782834370233,116.780371998016 114.578171722497 Z" stroke="none" fill="#8C96A0"/>
<path d="M113.645517319123 118.89292902583 C83.5996423751073 97.0633230878727,83.5996423751073 52.2700102454607,113.645517319123 30.4404043075029 L102.673525942996 15.3387537458372 C62.3680839449271 44.6223714674879,62.3680839449271 104.710961865845,102.673525942996 133.994579587496 Z" stroke="none" fill="#8C96A0"/>
<path d="M123.413094148863 104.110766042221 C105.825264913342 91.3324601273184,105.825264913342 65.111984317126,123.413094148863 52.3336784022239 L113.22481644246 38.3107171663915 C86.1102463710318 58.0106054518656,86.1102463710318 98.4338389925788,113.22481644246 118.133727278053  Z" stroke="none" fill="#3F87AF"/>
<path d="M110.089961763567 122.448484581386 C80.0440868195518 100.618878643428,80.0440868195518 55.8255658010162,110.089961763567 33.9959598630584L83.725936053644 33.9959598630584 C63.9432065006372 60.1617750913602,63.9432065006372 96.2826693530842,83.725936053644 122.448484581386" stroke="none" fill="#3F87AF"/>
<text font-family="Helvetica" font-weight="bold" font-size="56.8888888888889px" x="145.777777777778" y="103.111111111111" fill="#8C96A0">Clean</text>
<text font-family="Helvetica" font-weight="bold" font-size="56.8888888888889px" x="144.888888888889" y="102.222222222222" fill="#8C96A0">Clean</text>
<text font-family="Helvetica" font-weight="bold" font-size="56.8888888888889px" x="144" y="101.333333333333" fill="#8C96A0">Clean</text>
<text font-family="Helvetica" font-weight="bold" font-size="56.8888888888889px" x="143.111111111111" y="100.444444444444" fill="#8C96A0">Clean</text>
<text font-family="Helvetica" font-weight="bold" font-size="56.8888888888889px" x="142.222222222222" y="99.5555555555556" fill="#3F87AF">Clean</text>
</svg>