<?xml version="1.0" encoding="utf-8"?>
<!-- Generator: Adobe Illustrator 22.0.1, SVG Export Plug-In . SVG Version: 6.00 Build 0)  -->
<svg version="1.1" id="logo_x5F_firebase_x5F_192px_x5F_clr"
	 xmlns="http://www.w3.org/2000/svg" xmlns:xlink="http://www.w3.org/1999/xlink" x="0px" y="0px" width="1080px" height="1080px"
	 viewBox="0 0 1080 1080" enable-background="new 0 0 1080 1080" xml:space="preserve">
<g>
	<path fill="#01579B" d="M225.6,852.14L44.84,671.38c-21.41-22.01-34.76-53.08-34.76-83.43c0-14.05,7.94-36.03,13.9-48.67
		l166.86-347.62L225.6,852.14z"/>
	<path fill="#40C4FF" d="M844.37,226.42L663.61,45.66c-15.79-15.85-48.67-34.76-76.48-34.76c-23.9,0-47.36,4.78-62.57,13.9
		L190.84,191.66L844.37,226.42z"/>
	<polygon fill="#40C4FF" points="441.13,1067.66 879.13,1067.66 879.13,879.95 552.37,775.66 253.41,879.95 	"/>
	<path fill="#29B6F6" d="M190.84,754.8c0,55.77,6.99,69.45,34.76,97.33l27.81,27.81h625.72L573.22,532.33L190.84,191.66V754.8z"/>
	<path fill="#01579B" d="M747.03,191.66H190.84l688.29,688.29h187.71V448.9L844.37,226.42
		C813.12,195.05,785.37,191.66,747.03,191.66z"/>
	<path opacity="0.2" fill="#FFFFFF" d="M232.56,859.09c-27.81-27.92-34.76-55.43-34.76-104.29V198.61l-6.95-6.95V754.8
		C190.84,803.66,190.84,817.21,232.56,859.09l20.86,20.86l0,0L232.56,859.09z"/>
	<polygon opacity="0.2" fill="#263238" points="1059.89,441.95 1059.89,873 872.18,873 879.13,879.95 1066.85,879.95 1066.85,448.9 
			"/>
	<path opacity="0.2" fill="#FFFFFF" d="M844.37,226.42c-34.46-34.46-62.73-34.76-104.29-34.76H190.84l6.95,6.95h542.29
		C760.86,198.61,813.2,195.14,844.37,226.42L844.37,226.42z"/>
	<radialGradient id="SVGID_1_" cx="538.4626" cy="539.2802" r="528.3827" gradientUnits="userSpaceOnUse">
		<stop  offset="0" style="stop-color:#FFFFFF;stop-opacity:0.1"/>
		<stop  offset="1" style="stop-color:#FFFFFF;stop-opacity:0"/>
	</radialGradient>
	<path opacity="0.2" fill="url(#SVGID_1_)" d="M1059.89,441.95L844.37,226.42L663.61,45.66c-15.79-15.85-48.67-34.76-76.48-34.76
		c-23.9,0-47.36,4.78-62.57,13.9L190.84,191.66L23.98,539.28c-5.96,12.64-13.9,34.61-13.9,48.67c0,30.35,13.35,61.41,34.76,83.43
		l166.58,165.38c3.99,4.86,8.66,9.84,14.18,15.38l6.95,6.95l20.86,20.86l180.76,180.76l6.95,6.95h431.05h6.95V879.95h187.71v-0.5
		V448.9L1059.89,441.95z"/>
</g>
</svg>
