<svg width="242" height="153" xmlns="http://www.w3.org/2000/svg" version="1.1">
 <metadata id="metadata34">image/svg+xml</metadata>

 <g>
  <title>Layer 1</title>
  <g fill="#a90533" id="g8">
   <path id="path10" d="m37.98939,153.3383c-18.80333,-19.92491 -29.80499,-47.45125 -29.77711,-80.29402c-0.02598,-29.04523 9.10004,-54.01093 24.78891,-73.00816l-0.02535,0.00951l-32.97584,0l0,153.29584l37.96594,0l0.02345,-0.003l0,0l0,-0.00017z"/>
   <path id="path12" d="m211.65877,153.35097c8.10012,-8.67548 15.3581,-18.89267 21.93489,-30.57742l-36.49901,-18.24951c-12.81837,20.83929 -31.56404,40.02091 -57.48594,40.14891c-37.72641,-0.128 -52.54907,-32.3878 -52.46732,-73.91049l140.97742,0c0.1882,-4.68784 0.1882,-6.86765 0,-9.12412c0.92008,-24.70337 -5.62693,-45.46788 -17.53663,-61.63834l-0.0615,0.04626l31.74147,0l0,153.29584l-30.67248,0l0.0691,0.009l0,0l0,-0.00013z"/>
   <path id="path14" d="m89.42321,35.17592c1.56071,-18.79952 16.38273,-31.44237 33.76158,-31.48039c17.49735,0.03802 30.13957,12.68087 30.56792,31.48039l-64.3295,0l0,0z"/>
  </g>
 </g>
</svg>