<?xml version="1.0" encoding="UTF-8"?>
<svg id="vlpa" version="1.1" viewBox="0 0 984.6 440.8" xml:space="preserve" xmlns="http://www.w3.org/2000/svg" xmlns:cc="http://creativecommons.org/ns#" xmlns:dc="http://purl.org/dc/elements/1.1/" xmlns:rdf="http://www.w3.org/1999/02/22-rdf-syntax-ns#"><title>OpenCL logo</title><desc>A heterogenous computing API from Khronos Group</desc><metadata><rdf:RDF><cc:Work rdf:about=""><dc:format>image/svg+xml</dc:format><dc:type rdf:resource="http://purl.org/dc/dcmitype/StillImage"/><dc:title/></cc:Work></rdf:RDF></metadata>
<style type="text/css">
	.st0{fill:#ABD038;}
	.st1{fill:#EE332D;}
	.st2{fill:#F2BA1A;}
	.st3{fill:#3DAE2B;}
	.st4{fill:#010101;}
</style>
<path class="st0" d="m421.6 60.1c14.6-22.8 31.8-49.8 37.4-58.6-63.9 4.8-123 21.4-173 46.7 7.7 14.4 17.7 32.5 25.4 46.5 26.5-9.9 55.3-16.7 85.7-19.6 10-1 19-6.5 24.5-15z"/>
<path class="st1" d="m654.9 152.3c13.9 6.6 27.4 8.6 46.3 8.6 34.6 0 99.9 0.1 135.8 0.2-31.6-52.5-85.8-96.2-153.7-124.8-24.1 16.1-93.1 62.3-104.1 69.6 43.6 21.3 62 39.9 75.7 46.4z"/>
<path class="st2" d="m472.2 0.7c-1.9 5.6-18.9 56.6-24.3 73.1 27.4 1.2 53.8 5.4 78.5 12.3 14.7 4.1 30.5 2.6 44.1-4.4l99.6-50.8c-51.5-19.7-110.1-30.9-172.4-30.9-8.6 0-17.1 0.3-25.5 0.7z"/>
<path class="st3" d="m149.3 174.7 32.3 0.1c8.7 0 17-3.6 22.9-10 17.5-19.1 39-35.9 63.7-49.8 8.8-4.9 13.7-14.8 12.1-24.7-2.4-15.6-5-31.7-5.7-36-56.3 30.5-100.1 72.1-125.3 120.4z"/>
<g transform="translate(-56.3,-38.2)">
	<polygon class="st4" points="974 239.5 966.5 239.5 966.5 233.9 987.9 233.9 987.9 239.5 980.5 239.5 980.5 258.8 974 258.8"/>
	<polyline class="st4" points="1019 233.9 1019 258.8 1012 258.8 1012 239.9 1012 239.9 1007 258.8 1002 258.8 997 239.9 996.9 239.9 996.9 258.8 990.8 258.8 990.8 233.9 990.8 233.9 1e3 233.9 1005 250.5 1005 250.5 1009 233.9"/>
</g>
<g transform="matrix(.9924 0 0 1 -53.46 -38.2)">
	<path class="st4" d="m216.7 260.3c-7.9-9.2-17.6-16.5-29.1-21.8-11.4-5.4-24.4-8.1-38.8-8.1s-27.3 2.7-38.8 8.1c-11.4 5.4-21.1 12.7-29.1 21.8-7.9 9.2-14 19.9-18.2 32.1s-6.4 25.2-6.4 38.8c0 13.8 2.1 26.9 6.4 39.1 4.2 12.2 10.3 22.9 18.2 32.1s17.6 16.4 29.1 21.7c11.4 5.3 24.4 8 38.8 8s27.3-2.7 38.8-8c11.4-5.3 21.1-12.5 29.1-21.7 7.9-9.2 14-19.9 18.2-32.1s6.4-25.3 6.4-39.1c0-13.7-2.1-26.6-6.4-38.8-4.2-12.2-10.3-22.9-18.2-32.1zm-12.6 97.9c-2.3 8.8-5.7 16.7-10.4 23.6s-10.8 12.5-18.2 16.6c-7.5 4.1-16.4 6.2-26.6 6.2-10.3 0-19.1-2.1-26.6-6.2s-13.6-9.7-18.2-16.6c-4.7-6.9-8.2-14.8-10.4-23.6-2.3-8.8-3.4-17.8-3.4-27s1.1-18.2 3.4-27 5.7-16.7 10.4-23.6 10.8-12.4 18.2-16.6c7.5-4.1 16.4-6.2 26.6-6.2 10.3 0 19.1 2.1 26.6 6.2s13.6 9.7 18.2 16.6c4.7 6.9 8.2 14.8 10.4 23.6 2.3 8.8 3.4 17.8 3.4 27s-1.2 18.2-3.4 27z"/>
	<path class="st4" d="m384.5 306c-5.4-6.7-12.2-12-20.4-15.9s-17.8-5.8-28.8-5.8c-9 0-17.4 1.8-25.1 5.3-7.8 3.5-13.8 9.3-18.1 17.4h-0.5v-19h-29.2v191h30.8v-69.6h0.5c2.3 3.8 5.3 7.1 8.8 9.8 3.5 2.8 7.3 5.1 11.5 6.9 4.1 1.8 8.5 3.1 13 3.9s9 1.2 13.5 1.2c10.3 0 19.2-2 26.8-6.1 7.6-4 13.8-9.4 18.8-16.2 5-6.7 8.7-14.5 11.1-23.3s3.6-17.9 3.6-27.3c0-10.3-1.4-19.9-4.1-28.9-2.7-8.8-6.8-16.7-12.2-23.4zm-16.6 69.8c-1.4 5.8-3.6 11.1-6.8 15.7s-7.2 8.3-12 11.2c-4.9 2.9-10.8 4.3-17.8 4.3-6.3 0-11.9-1.3-16.6-3.8-4.8-2.5-8.9-5.9-12.3-10.3-3.4-4.3-6-9.5-7.7-15.5s-2.6-12.5-2.6-19.6c0-14.9 3.3-26.9 9.9-35.9s16.4-13.5 29.3-13.5c6.3 0 11.9 1.4 16.8 4.2s8.9 6.5 12.2 11.1 5.7 9.8 7.3 15.8c1.6 5.9 2.4 12.1 2.4 18.3-0.1 6.2-0.7 12.2-2.1 18z"/>
	<path class="st4" d="m531.8 309.3c-5.8-7.6-13-13.6-21.8-18.2-8.7-4.6-18.6-6.9-29.6-6.9-10.5 0-19.8 2-28.1 5.9-8.3 4-15.4 9.3-21.2 16.1-5.9 6.7-10.4 14.6-13.5 23.5-3.2 8.9-4.7 18.3-4.7 28.2 0 10.8 1.5 20.7 4.5 29.7s7.4 16.7 13.2 23.2c5.9 6.5 13 11.5 21.5 15.1s18.2 5.4 29.2 5.4c7.6 0 14.8-1 21.8-3.1 6.9-2.1 13.2-5.1 18.8-9.2 5.6-4 10.4-9 14.3-15 4-5.9 6.8-12.7 8.4-20.2h-29.2c-2.7 7.7-6.8 13.5-12.3 17.4s-12.8 5.8-21.8 5.8c-6.5 0-12.1-1.1-16.8-3.4-4.7-2.2-8.6-5.3-11.6-9-3.1-3.8-5.4-8.2-6.9-13.2s-2.3-10.3-2.3-15.7h102.7c1.3-10.4 0.6-20.5-2-30.4-2.7-9.7-6.9-18.4-12.6-26zm-88.2 36.2c0.2-5.2 1.2-10.1 3.1-14.6s4.4-8.4 7.6-11.7 6.9-5.9 11.4-7.8c4.4-1.9 9.3-2.8 14.7-2.8 5.2 0 10 1 14.2 3.1s7.8 4.8 10.8 8.1 5.3 7.2 7 11.7 2.7 9.2 3.1 14z"/>
	<path class="st4" d="m673.3 296.1c-8.8-7.9-20.9-11.9-36.2-11.9-9.2 0-17.6 2.2-25.1 6.6-7.6 4.4-13.7 10.5-18.4 18.2l-0.5-0.5v-20.5h-29.2v139.5h30.8v-82.3c0-5 0.8-9.8 2.4-14.3s3.9-8.4 6.8-11.7 6.4-5.9 10.5-7.8 8.8-2.8 14.1-2.8c9.2 0 16 2.5 20.3 7.4s6.7 12.9 7 23.9v87.7h30.8v-95.8c0-15.9-4.5-27.8-13.3-35.7z"/>
	<path class="st4" d="m840.7 352.1c-1.5 12-5.8 21.9-12.6 29.4-6.7 7.3-16.2 11.1-28.2 11.1-9 0-16.6-1.7-22.8-5.2-6.2-3.4-11.3-8-15.2-13.7s-6.8-12.3-8.6-19.6-2.7-14.9-2.7-22.6c0-8.1 0.9-16 2.7-23.6 1.8-7.5 4.7-14.2 8.6-20.1 3.9-5.8 8.9-10.4 15.2-13.9 6.2-3.4 13.9-5.2 22.8-5.2 4.8 0 9.6 0.8 14 2.4s8.5 3.8 12 6.7c3.5 2.8 6.5 6.2 8.8 9.9s3.8 7.8 4.5 12.3l0.3 1.9h44.8l-0.3-2.5c-1.3-11.2-4.4-21.3-9.3-30s-11.2-16.1-18.8-22c-7.5-5.9-16.1-10.4-25.6-13.5s-19.7-4.6-30.3-4.6c-14.9 0-28.5 2.6-40.2 7.9-11.7 5.2-21.8 12.6-30 21.8-8.1 9.2-14.4 20.1-18.8 32.5-4.3 12.4-6.5 25.8-6.5 39.9 0 13.8 2.2 27 6.5 39.2s10.6 23 18.8 32c8.1 9 18.2 16.3 30 21.5 11.7 5.2 25.3 7.9 40.2 7.9 11.9 0 23-1.9 32.9-5.6 10-3.7 18.8-9.1 26.2-16s13.5-15.3 18-25.1c4.5-9.7 7.3-20.8 8.4-32.8l0.2-2.4h-44.7z"/>
	<polygon class="st4" points="902.4 233.9 902.4 427.5 1041 427.5 1041 388.1 948.6 388.1 948.6 233.9"/>
</g>
</svg>