<?xml version="1.0" encoding="utf-8"?>
<!-- Generator: Adobe Illustrator 28.1.0, SVG Export Plug-In . SVG Version: 6.00 Build 0)  -->
<svg version="1.1" id="Layer_1" xmlns="http://www.w3.org/2000/svg" xmlns:xlink="http://www.w3.org/1999/xlink" x="0px" y="0px"
	 viewBox="0 0 900 900" style="enable-background:new 0 0 900 900;" xml:space="preserve">
<style type="text/css">
	.st0{fill:url(#SVGID_1_);}
	.st1{fill:url(#SVGID_00000019674646477668803660000004853486206102334595_);}
	.st2{fill:#FF6633;}
	.st3{fill:#1FBEC9;}
	.st4{fill:url(#SVGID_00000094601211090812083030000011770382400873951901_);}
	.st5{fill:url(#SVGID_00000145742574544887165730000000051871512990356112_);}
</style>
<g>
	<g>
		
			<linearGradient id="SVGID_1_" gradientUnits="userSpaceOnUse" x1="508.1032" y1="469.6421" x2="553.6288" y2="410.4037" gradientTransform="matrix(1 0 0 -1 0 900)">
			<stop  offset="0" style="stop-color:#15768C"/>
			<stop  offset="0.1694" style="stop-color:#188B9D"/>
			<stop  offset="0.3807" style="stop-color:#1A9EAC"/>
			<stop  offset="0.5982" style="stop-color:#1CA9B5"/>
			<stop  offset="0.8297" style="stop-color:#1CADB8"/>
		</linearGradient>
		<path class="st0" d="M374.8,482.7c47.2,32.1,102.5,43.4,153,25.9c57.9-20,96.1-73.3,107.6-138.4c-38,28.2-87.3,55.5-142.9,77.6
			C451.2,464.1,411.1,475.8,374.8,482.7z"/>
		
			<linearGradient id="SVGID_00000110450548971295283910000010371313037166367672_" gradientUnits="userSpaceOnUse" x1="274.8267" y1="722.6879" x2="453.1015" y2="816.0701" gradientTransform="matrix(1 0 0 -1 0 900)">
			<stop  offset="6.610756e-02" style="stop-color:#FF6633"/>
			<stop  offset="0.2371" style="stop-color:#FF7133"/>
			<stop  offset="0.6373" style="stop-color:#FF8733"/>
			<stop  offset="0.8966" style="stop-color:#FF8F33"/>
		</linearGradient>
		<path style="fill:url(#SVGID_00000110450548971295283910000010371313037166367672_);" d="M514.4,99.8
			c-44.8-27-95.9-35.6-142.8-19.3C316.4,99.6,279,148.9,265.8,210c38-28.2,87.3-55.5,143-77.7C445.5,117.7,481.3,106.9,514.4,99.8z"
			/>
		<path class="st2" d="M687,127.8c-11.5-38.4-81.6-47.5-172.6-28c-33,7.1-68.9,17.9-105.6,32.6c-55.7,22.1-105,49.5-143,77.7
			c-56.2,41.7-87.6,85.2-78.2,116.4c7.7,25.8,43.3,38.3,93.2,36.6c49.7-1.7,113.6-17.6,178.7-48.9c-78.2,17.3-137.5,14.8-136.1-7.8
			c2.1-33.1,81.7-96.1,200.5-140.4c17.2-6.4,33.3-12,48.4-16.7c50.9-16,89.7-22.8,115-20.3C687.2,128.5,687.1,128.1,687,127.8z"/>
		<path class="st3" d="M713.7,253.6c-8-26.7-45.9-39.2-98.7-36.4c-48.9,2.7-110.5,18.5-173.1,48.6c78.2-17.3,137.5-14.8,136.1,7.8
			c-2.1,33.1-81.7,96.1-200.5,140.4c-20,7.5-38.6,13.8-55.8,19c-47.3,14.4-83.6,20.4-107.6,18c0.1,0.3,0.2,0.7,0.3,1
			c11,36.7,75.5,46.6,160.5,30.5c36.3-6.9,76.4-18.6,117.7-35c55.6-22.1,104.9-49.4,142.9-77.6C691.6,328.4,723.1,284.9,713.7,253.6
			z"/>
		
			<linearGradient id="SVGID_00000176743141088842700890000008363157872437393296_" gradientUnits="userSpaceOnUse" x1="271.8158" y1="600.7686" x2="533.2855" y2="724.712" gradientTransform="matrix(1 0 0 -1 0 900)">
			<stop  offset="0" style="stop-color:#ED5F2F"/>
			<stop  offset="1" style="stop-color:#FF6633"/>
		</linearGradient>
		<path style="fill:url(#SVGID_00000176743141088842700890000008363157872437393296_);" d="M323.3,306.2
			c2.1-33.1,81.7-96.1,200.5-140.4c17.2-6.4,33.3-12,48.4-16.7c-17.2-20.1-36.9-36.7-57.9-49.4c-33,7.1-68.9,17.9-105.6,32.6
			c-55.7,22.1-105,49.5-143,77.7c-9.6,44.2-6.6,94.6,11.5,144.2c1.1,3,2.2,5.9,3.4,8.8c49.7-1.7,113.6-17.6,178.7-48.9
			C381.2,331.4,321.9,328.9,323.3,306.2z"/>
		
			<linearGradient id="SVGID_00000013914580096290273190000001191777895756599742_" gradientUnits="userSpaceOnUse" x1="327.1469" y1="490.9255" x2="576.7316" y2="586.0054" gradientTransform="matrix(1 0 0 -1 0 900)">
			<stop  offset="0" style="stop-color:#1BACB5"/>
			<stop  offset="0.9115" style="stop-color:#1FBEC9"/>
		</linearGradient>
		<path style="fill:url(#SVGID_00000013914580096290273190000001191777895756599742_);" d="M622.1,234.8c-2.2-6-4.6-11.8-7.1-17.5
			c-48.9,2.7-110.5,18.5-173.1,48.6c78.2-17.3,137.5-14.8,136.1,7.8c-2.1,33.1-81.7,96.1-200.5,140.4c-20,7.5-38.6,13.8-55.8,19
			c15.8,19.7,33.8,36.3,53.2,49.5c36.3-6.9,76.4-18.6,117.7-35c55.6-22.1,104.9-49.4,142.9-77.6C642.7,328.1,639,281.1,622.1,234.8z
			"/>
	</g>
	<g id="Layer_3">
		<g>
			<path d="M161,764.9c-12.4-4.1-23.1-9.9-32.1-17.2l19.9-28c14.5,11.4,31.4,17.2,50.7,17.2c9.6,0,17.3-1.7,23-4.9
				c5.7-3.3,8.5-7.8,8.5-13.5c0-5.3-2.7-9.5-7.9-12.5c-5.3-3-13.7-5.1-25.2-6.3c-22.3-2.5-38.6-7.8-48.9-15.8
				c-10.3-8-15.6-19.5-15.6-34.3c0-10,2.7-18.9,8.4-26.5c5.6-7.7,13.5-13.6,23.6-17.9s21.9-6.3,35-6.3c11.4,0,22.5,1.7,33.3,4.9
				c10.8,3.2,20.4,7.9,28.7,13.9l-18.1,27c-12.8-8.9-26.9-13.5-42.3-13.5c-9.5,0-17.2,1.6-22.7,4.7c-5.7,3.2-8.5,7.3-8.5,12.7
				c0,5.2,2.5,9.1,7.4,12c4.9,2.8,13.1,4.9,24.6,6.3c22.1,2.5,38.6,8,49.6,16.6c10.9,8.5,16.3,20.2,16.3,35.1
				c0,10.4-2.8,19.5-8.7,27.3c-5.8,7.9-13.8,14-24.3,18.4c-10.4,4.3-22.4,6.5-36,6.5C186.2,771.1,173.3,769,161,764.9z"/>
			<path d="M289.2,602.8h36.7v164.5h-36.7V602.8z"/>
			<path d="M474.5,651.2v116.2h-31.8l-2.3-13.9c-9.8,10.9-22.6,16.2-38.3,16.2c-10.8,0-20.3-2.5-28.7-7.6
				c-8.3-5.1-14.8-12.2-19.5-21.4c-4.7-9.1-7-19.6-7-31.3c0-11.7,2.3-22.2,7-31.3c4.7-9.1,11.1-16.3,19.5-21.4
				c8.3-5.1,17.9-7.6,28.7-7.6c7.8,0,15,1.4,21.5,4.1c6.5,2.8,12.2,6.7,16.9,11.9l2.3-13.6h31.8V651.2z M430.7,730.6
				c5.2-5.4,7.8-12.5,7.8-21.2c0-8.8-2.6-15.8-7.8-21.2c-5.2-5.4-11.8-8-19.9-8s-14.7,2.8-19.8,8.3c-5.1,5.4-7.5,12.5-7.5,21.1
				s2.5,15.7,7.5,21.1c5.1,5.4,11.6,8.3,19.8,8.3C418.8,738.6,425.5,735.9,430.7,730.6z"/>
			<path d="M607.7,662.7c8.5,9.4,12.7,22.5,12.7,39v65.5h-36.7v-63.5c0-7.5-1.9-13.5-5.6-17.6c-3.8-4.2-8.9-6.3-15.4-6.3
				c-7.2,0-12.9,2.4-17.3,7.3c-4.3,4.8-6.5,11.2-6.5,19v61.1h-36.7v-116H534l2.3,13.6c4.5-5.2,10-9.1,16.2-12
				c6.3-2.8,13.2-4.3,20.9-4.3C587.8,648.6,599.2,653.3,607.7,662.7z"/>
			<path d="M760.8,763.2c4.2,6.3,6.4,13.6,6.4,22c0,9.7-2.7,18.3-7.9,25.8c-5.3,7.4-12.8,13.2-22.4,17.2c-9.6,4-20.9,6-33.6,6
				c-12.5,0-23.4-2-32.7-6.1c-9.3-4.1-16.6-9.9-21.6-17.4c-5.1-7.5-7.5-16.2-7.5-26c0-2.5,0.1-4.3,0.3-5.7H677
				c-0.3,7.7,1.9,13.6,6.4,17.9c4.6,4.3,11.2,6.3,20,6.3c7.8,0,14.1-1.7,18.9-5.3c4.8-3.5,7.3-8.1,7.3-14s-2.2-10.6-6.7-13.7
				c-4.4-3.2-10.8-4.8-19.1-4.8c-12.8,0-24-2.4-33.6-7.3c-9.6-4.8-16.9-11.7-22.2-20.6c-5.3-8.8-7.8-19.2-7.8-30.9
				c0-11.3,2.7-21.3,8-30.2c5.3-8.8,12.8-15.8,22.4-20.6c9.6-4.9,20.5-7.4,32.8-7.4c9.5,0,18.3,1.9,26.2,5.7l13.6-16.9l26.9,19.5
				l-15.4,18c7.8,8.9,11.7,19.5,11.7,32c0,8.6-2,16.6-6.2,23.8c-4.2,7.3-10,13.2-17.4,18C750.5,751.9,756.5,756.9,760.8,763.2z
				 M723,726.4c5-5,7.4-11.7,7.4-20s-2.5-14.9-7.4-19.9c-4.9-4.9-11.5-7.4-19.8-7.4c-8.1,0-14.7,2.5-19.6,7.4
				c-5,4.9-7.4,11.6-7.4,19.9c0,8.1,2.5,14.7,7.4,19.9c5,5.1,11.5,7.6,19.6,7.6C711.5,734,718,731.5,723,726.4z"/>
		</g>
		<g>
			<path d="M813.3,651.4v5.2h-7.8v20.3h-6v-20.3h-7.7v-5.2H813.3z"/>
			<path d="M839.3,651.4h5.3v25.5h-5.9v-15.9l-7.4,9.1h-1.2l-7.5-9.2v15.9h-5.9v-25.5h5.3l8.6,10.8L839.3,651.4z"/>
		</g>
	</g>
</g>
</svg>
