<svg width="500" height="500" viewBox="0 0 500 500" fill="none" xmlns="http://www.w3.org/2000/svg">
<rect width="500" height="500" rx="250" fill="black"/>
<path d="M121 279.4C121 218.428 170.428 169 231.4 169H266.6C327.572 169 377 218.428 377 279.4C377 311.212 351.212 337 319.4 337H178.6C146.788 337 121 311.212 121 279.4Z" fill="white"/>
<path d="M334.298 145.487C336.832 143.673 340.376 145.325 340.615 148.433L344.763 202.419C344.998 205.471 341.858 207.644 339.084 206.351L290.913 183.889C288.14 182.595 287.787 178.793 290.275 177.011L334.298 145.487Z" fill="white" stroke="white" stroke-width="6"/>
<path d="M158.554 144.637C158.693 143.111 160.428 142.302 161.687 143.177L210.413 177.027C211.68 177.907 211.516 179.83 210.117 180.482L156.001 205.717C154.602 206.369 153.024 205.259 153.164 203.723L158.554 144.637Z" fill="white" stroke="white" stroke-width="6"/>
<path d="M158.242 148.058C158.52 145.004 161.989 143.387 164.507 145.136L207.556 175.042C210.09 176.802 209.761 180.648 206.964 181.952L159.154 204.247C156.357 205.551 153.199 203.331 153.48 200.258L158.242 148.058L155.254 147.785L158.242 148.058Z" fill="white" stroke="white" stroke-width="6"/>
<path d="M164.587 167.074C164.774 163.045 169.409 160.884 172.615 163.331L181.42 170.05C184.408 172.33 183.906 176.968 180.5 178.557L171.182 182.902C167.776 184.49 163.901 181.893 164.074 178.139L164.587 167.074Z" fill="black"/>
<path d="M326.859 163.331C330.065 160.884 334.7 163.045 334.887 167.074L335.4 178.139C335.573 181.893 331.698 184.49 328.292 182.902L318.974 178.557C315.568 176.968 315.066 172.33 318.054 170.05L326.859 163.331Z" fill="black"/>
<ellipse cx="215.5" cy="287" rx="31.5" ry="7" fill="white"/>
<path d="M181 232C193.81 224.201 201.231 223.802 215 232" stroke="black" stroke-width="8" stroke-linecap="round"/>
<path d="M290 232C302.81 224.201 310.231 223.802 324 232" stroke="black" stroke-width="8" stroke-linecap="round"/>
<path d="M254.443 260.562C242.534 282.846 239.654 282.201 218.257 271.378" stroke="black" stroke-width="8" stroke-linecap="round"/>
<path d="M254.269 261.069C259.428 285.79 272.366 279.434 288.757 271.878" stroke="black" stroke-width="8" stroke-linecap="round"/>
<path d="M244.325 254.105C244.579 253.09 245.491 252.378 246.538 252.378H261.152C262.655 252.378 263.938 253.464 264.185 254.947C264.233 255.233 264.24 255.524 264.206 255.811L264.119 256.549C263.627 260.728 260.085 263.878 255.877 263.878H252.716C248.044 263.878 244.257 260.09 244.257 255.419V254.658C244.257 254.472 244.28 254.286 244.325 254.105Z" fill="black"/>
<path d="M144 268.964C158.588 265.206 166.725 265.468 181.175 269.613M144 268.964C158.588 265.206 166.725 265.468 181.175 269.613" stroke="black" stroke-width="8" stroke-linecap="round"/>
<path d="M136.429 288.3C150.233 282.478 158.244 281.096 172.926 281.206" stroke="black" stroke-width="8" stroke-linecap="round"/>
<path d="M334 265.468C349.489 265.251 356.916 268.507 367.966 280.591" stroke="black" stroke-width="8" stroke-linecap="round"/>
<path d="M324.85 278.655C343.924 276.719 349.195 281.54 358.35 289.956" stroke="black" stroke-width="8" stroke-linecap="round"/>
</svg>
