<?xml version="1.0" encoding="utf-8"?>
<!-- Generator: Adobe Illustrator 28.1.0, SVG Export Plug-In . SVG Version: 6.00 Build 0)  -->
<svg version="1.1" xmlns="http://www.w3.org/2000/svg" xmlns:xlink="http://www.w3.org/1999/xlink" x="0px" y="0px"
	 viewBox="0 0 1500 500" style="enable-background:new 0 0 1500 500;" xml:space="preserve">
<style type="text/css">
	.st0{display:none;}
	.st1{display:inline;fill:#004BA9;}
	.st2{fill:#FFFFFF;}
</style>
<g id="Layer_1">
</g>
<g id="Layer_2" class="st0">
	<path class="st1" d="M-439.5,519.3c-88.8-42.7-122.5-77.4-114.7-109c7.2-29.5,79.2-61,147.6-65.1c140.4-8.4,202.4,12.1,344.6,52.5
		c-124.1-86.3-246.9-125.4-392.2-114.6c-128.9,9.6-198.5,63.6-200.6,113.9C-657.9,467-529.5,507.4-439.5,519.3z"/>
</g>
<g id="Layer_3">
	<g>
		<path class="st2" d="M540.4,190H648c14.9,0,27.6,2.1,38.1,6.5c10.5,4.4,18.9,10,25.6,17.2c6.5,7.1,11.4,15.3,14.4,24.5
			s4.5,18.6,4.5,28.5c0,9.5-1.5,18.9-4.5,28.2c-3,9.3-7.8,17.4-14.4,24.6c-6.5,7.1-15,12.9-25.6,17.2c-10.4,4.4-23.2,6.5-38.1,6.5
			h-55.2v85.5h-52.4L540.4,190L540.4,190z M592.8,302.4h40.8c6,0,11.8-0.5,17.4-1.4c5.5-0.9,10.4-2.6,14.7-5.1
			c4.3-2.5,7.6-6.1,10.2-10.9c2.5-4.6,3.9-10.8,3.9-18.4c0-7.5-1.3-13.7-3.9-18.4c-2.5-4.6-6-8.3-10.2-10.9
			c-4.3-2.5-9.2-4.3-14.7-5.1c-5.5-0.9-11.4-1.4-17.4-1.4h-40.8V302.4L592.8,302.4z"/>
		<path class="st2" d="M1033.8,416.3c-1.1-4.8-2.1-9.8-2.6-15.2c-0.5-5.3-0.9-10.5-1.1-15.7c-0.1-5.1-0.4-9.7-0.6-13.4
			c-0.5-6-1.3-12-2.5-18.1c-1.3-6-3.3-11.5-5.9-16.6c-2.8-5-6.1-9.4-10.4-13c-4.3-3.6-9.5-6.4-16.1-8.2v-0.6
			c13.4-5.4,23.1-13.2,29-23.5c5.9-10.2,8.9-22.3,8.9-36.4c0-9.2-1.6-17.7-4.9-25.6c-3.3-8-7.9-14.9-14-20.9
			c-6.1-6-13.5-10.7-22.1-14.2c-8.7-3.4-18.3-5.1-29-5.1H856.4c10.2,11.3,21.4,24.8,32.3,40.8h55c12,0,21.1,2.6,27.1,7.9
			c6,5.3,9,13.7,9,25.2c0,12-3,20.7-9,26.1c-6,5.4-15,8-27.1,8h-57.4v-64c-15-6.6-32.4-13.3-52.4-20.1v214.5h52.4v-93.2h52.4
			c13.2,0,22.7,2.9,28.5,8.7c5.9,5.9,9.7,15,11.4,27.5c1.4,9.7,2.4,19.7,3,30.1c0.8,10.5,2.5,19.6,5.4,27.1h52.4
			C1036.9,425.3,1035.1,421.1,1033.8,416.3z"/>
		<path class="st2" d="M1052.3,297.8h92.2l12.1,37h-92.2L1052.3,297.8z"/>
		<path class="st2" d="M1289.4,428.4H1230L1152.2,189h54.3l53.3,168.4h0.7l54-168.4h54.3L1289.4,428.4z"/>
		<g>
			<polygon class="st2" points="1362.2,404.9 1352.9,404.9 1352.9,428.9 1344.9,428.9 1344.9,404.9 1335.7,404.9 1335.7,398 
				1362.2,398 			"/>
			<polygon class="st2" points="1365.7,398 1377.6,398 1382.9,418.6 1383,418.6 1388.2,398 1400.2,398 1400.2,428.9 1392.6,428.9 
				1392.6,405.4 1392.5,405.4 1386,428.9 1379.8,428.9 1373.3,405.4 1373.3,405.4 1373.3,428.9 1365.7,428.9 			"/>
		</g>
		<path class="st2" d="M751.9,190h-2.6v238.6h52.4v-225C786.4,199.1,769.8,194.5,751.9,190z"/>
		<path class="st2" d="M515.1,325.2c-5.6-8.7-12.4-15.4-20.2-20.6c-7.8-5.1-15.7-8.8-23.6-11.2c-7.9-2.4-14-4-18.6-4.9
			c-14.9-3.9-27-6.9-36.2-9.4c-9.3-2.5-16.4-4.9-21.7-7.4c-5.3-2.5-8.8-5.1-10.5-8c-1.8-2.9-2.6-6.8-2.6-11.4
			c0-5.1,1.1-9.3,3.4-12.7c2.3-3.4,5-6.1,8.5-8.4c3.5-2.1,7.3-3.8,11.5-4.6c4.1-0.9,8.4-1.4,12.7-1.4c6.5,0,12.4,0.5,17.9,1.6
			c5.5,1.1,10.3,3,14.5,5.6c4.1,2.6,7.6,6.4,10.2,11c2.5,4.6,4,10.5,4.5,17.7h50.8c0-13.8-2.6-25.6-7.9-35.2
			c-5.3-9.8-12.3-17.7-21.2-24c-8.9-6.3-19.2-10.8-30.6-13.5c-11.4-2.8-23.5-4.1-35.9-4.1c-10.7,0-21.4,1.5-32.1,4.4
			c-10.7,3-20.2,7.4-28.7,13.4c-8.5,6-15.3,13.5-20.6,22.6c-5.3,8.9-7.9,19.6-7.9,31.9c0,11,2,20.3,6.1,28c4.1,7.6,9.5,14,16.2,19.2
			c6.6,5.1,14.2,9.3,22.7,12.5c8.5,3.1,17.2,5.9,26.1,8.2c8.7,2.4,17.2,4.6,25.7,6.6c8.4,2,16.1,4.4,22.7,7c6.6,2.6,12,6,16.2,10
			c4.1,4,6.1,9.2,6.1,15.7c0,6-1.5,11-4.6,14.9c-3.1,3.9-7,6.9-11.7,9.2c-4.6,2.3-9.7,3.8-15,4.5c-5.4,0.8-10.4,1.1-15,1.1
			c-6.9,0-13.5-0.9-20.1-2.5c-6.5-1.6-12.2-4.1-16.9-7.6c-3.9-2.8-7.1-6.4-9.8-10.5c-15.6-2.5-34.9-5.8-56.1-9.5
			c1.1,9,3.6,17.1,7.3,24.3c5.6,10.8,13,19.6,22.6,26.5c9.4,6.9,20.3,11.9,32.7,15.2c12.3,3.3,25.1,4.9,38.2,4.9
			c16.2,0,30.5-1.9,42.9-5.6c12.4-3.9,22.7-9.2,31.1-15.9c8.4-6.8,14.7-14.8,18.9-24.2c4.3-9.3,6.4-19.4,6.4-30.3
			C523.6,344.7,520.7,333.7,515.1,325.2z"/>
		<path class="st2" d="M216,219.8c7.9-73.5,163.8-119.6,348.2-103c84,7.6,181.2,36.3,261.5,72.2c-81.8-63-252-123.5-385.9-128.7
			c-184.4-7.1-337.2,51.2-341.1,130.2c-3.3,65.9,98,125.4,238.7,147.4C259.4,306.4,211.4,263.2,216,219.8z"/>
	</g>
</g>
</svg>
