<?xml version="1.0" encoding="utf-8"?>
<!-- Generator: Adobe Illustrator 18.0.0, SVG Export Plug-In . SVG Version: 6.00 Build 0)  -->
<!DOCTYPE svg PUBLIC "-//W3C//DTD SVG 1.1 Tiny//EN" "http://www.w3.org/Graphics/SVG/1.1/DTD/svg11-tiny.dtd">
<svg version="1.1" baseProfile="tiny" id="SPIR" xmlns="http://www.w3.org/2000/svg" xmlns:xlink="http://www.w3.org/1999/xlink"
	 x="0px" y="0px" width="1000px" height="500px" viewBox="0 0 1000 500" xml:space="preserve">
<g>
	<path fill="#004BA9" d="M676.1,362.2c-50.2,27.8-121.3,47.1-202.5,47.1c-146.2,0-264.8-58-264.8-153c0-101,118.5-156.7,264.8-156.7
		c81.5,0,152.9,15.7,203.1,43C621.8,97,523.5,56.1,411.1,56.1C238.9,56,99.3,145.7,99.3,256.3c0,100.4,139.5,192.8,311.7,192.8
		C523,449.2,621.1,408.8,676.1,362.2z"/>
</g>
<g>
	<polygon fill="#004BA9" points="883.4,327 876,327 876,346.1 869.6,346.1 869.6,327 862.3,327 862.3,321.5 883.4,321.5 883.4,327 	
		"/>
	<polygon fill="#004BA9" points="886.2,321.5 895.7,321.5 899.9,337.9 900,337.9 904.2,321.5 913.7,321.5 913.7,346.1 907.7,346.1 
		907.7,327.4 907.6,327.4 902.4,346.1 897.5,346.1 892.3,327.4 892.3,327.4 892.3,346.1 886.2,346.1 886.2,321.5 	"/>
</g>
<g>
	<path fill="#004BA9" d="M313.9,282.7c0,6.4,1.2,11.8,3.5,16.3c2.3,4.4,5.4,8,9.2,10.8c3.8,2.8,8.3,4.8,13.5,6.1
		c5.2,1.3,10.5,2,16,2c3.7,0,7.7-0.3,12-0.9c4.3-0.6,8.3-1.8,12-3.6c3.7-1.8,6.8-4.2,9.3-7.3c2.5-3.1,3.7-7.1,3.7-11.9
		c0-5.2-1.6-9.3-4.9-12.5c-3.3-3.2-7.6-5.9-12.9-8c-5.3-2.1-11.4-4-18.1-5.6c-6.8-1.6-13.6-3.4-20.5-5.3c-7.1-1.8-14-4-20.8-6.5
		c-6.8-2.6-12.8-5.9-18.1-10c-5.3-4.1-9.6-9.2-12.9-15.3c-3.3-6.1-4.9-13.5-4.9-22.3c0-9.8,2.1-18.3,6.3-25.4
		c4.2-7.2,9.6-13.2,16.4-18c6.8-4.8,14.4-8.3,22.9-10.7c8.5-2.3,17.1-3.5,25.6-3.5c9.9,0,19.5,1.1,28.6,3.3
		c9.1,2.2,17.3,5.8,24.4,10.8c7.1,5,12.7,11.3,16.9,19.1c4.2,7.7,6.3,17.1,6.3,28.1h-40.5c-0.4-5.7-1.6-10.4-3.6-14.1
		c-2-3.7-4.8-6.7-8.1-8.8c-3.4-2.1-7.2-3.6-11.6-4.5c-4.4-0.9-9.1-1.3-14.3-1.3c-3.4,0-6.8,0.4-10.1,1.1c-3.4,0.7-6.4,2-9.2,3.7
		c-2.8,1.8-5,4-6.8,6.7c-1.8,2.7-2.7,6-2.7,10.1c0,3.7,0.7,6.8,2.1,9.1c1.4,2.3,4.2,4.4,8.4,6.4c4.2,2,9.9,3.9,17.3,5.9
		c7.4,2,17,4.4,28.9,7.5c3.6,0.7,8.5,2,14.8,3.9c6.3,1.9,12.6,4.8,18.8,8.9c6.2,4.1,11.6,9.5,16.1,16.4c4.5,6.8,6.8,15.6,6.8,26.2
		c0,8.7-1.7,16.8-5.1,24.2c-3.4,7.5-8.4,13.9-15.1,19.3c-6.7,5.4-14.9,9.6-24.8,12.7c-9.9,3-21.3,4.5-34.2,4.5
		c-10.5,0-20.7-1.3-30.5-3.9c-9.9-2.6-18.6-6.6-26.1-12.1c-7.6-5.5-13.5-12.5-18-21.1c-4.4-8.5-6.6-18.7-6.4-30.4H313.9z"/>
	<path fill="#004BA9" d="M447.1,155.6h85.8c11.9,0,22,1.7,30.4,5.2c8.4,3.5,15.1,8,20.4,13.7c5.2,5.7,9.1,12.2,11.5,19.5
		c2.4,7.3,3.6,14.8,3.6,22.7c0,7.6-1.2,15.1-3.6,22.5c-2.4,7.4-6.2,13.9-11.5,19.6c-5.2,5.7-12,10.3-20.4,13.7
		c-8.3,3.5-18.5,5.2-30.4,5.2h-44v68.2h-41.8V155.6z M488.9,245.2h32.5c4.8,0,9.4-0.4,13.9-1.1c4.4-0.7,8.3-2.1,11.7-4.1
		c3.4-2,6.1-4.9,8.1-8.7c2-3.7,3.1-8.6,3.1-14.7c0-6-1-10.9-3.1-14.7c-2-3.7-4.8-6.6-8.1-8.7c-3.4-2-7.3-3.4-11.7-4.1
		c-4.4-0.7-9.1-1.1-13.9-1.1h-32.5V245.2z"/>
	<path fill="#004BA9" d="M613.7,155.6h41.8v190.3h-41.8V155.6z"/>
	<path fill="#004BA9" d="M681.1,155.6h102.6c8.5,0,16.2,1.4,23.1,4.1c6.8,2.8,12.7,6.5,17.6,11.3c4.9,4.8,8.6,10.3,11.2,16.7
		c2.6,6.3,3.9,13.1,3.9,20.4c0,11.2-2.4,20.9-7.1,29c-4.7,8.2-12.4,14.4-23.1,18.7v0.5c5.2,1.4,9.4,3.6,12.8,6.5
		c3.4,2.9,6.1,6.4,8.3,10.4c2.1,4,3.7,8.4,4.7,13.2c1,4.8,1.6,9.6,2,14.4c0.2,3,0.4,6.6,0.5,10.7c0.2,4.1,0.5,8.3,0.9,12.5
		c0.4,4.3,1.2,8.3,2.1,12.1c1,3.8,2.4,7.1,4.4,9.7h-41.8c-2.3-6-3.7-13.2-4.3-21.6c-0.5-8.3-1.3-16.3-2.4-24
		c-1.4-9.9-4.4-17.2-9.1-21.9c-4.6-4.6-12.2-6.9-22.7-6.9h-41.8v74.3h-41.8V155.6z M722.9,241.7h45.8c9.6,0,16.8-2.1,21.6-6.4
		c4.8-4.3,7.2-11.2,7.2-20.8c0-9.2-2.4-15.9-7.2-20.1c-4.8-4.2-12-6.3-21.6-6.3h-45.8V241.7z"/>
</g>
</svg>
