<svg xmlns="http://www.w3.org/2000/svg" xmlns:xlink="http://www.w3.org/1999/xlink" id="svg" version="1.1" viewBox="64.56 41.67 272.42 319.06"><g id="svgg"><path id="path0" d="M210.317 42.136 C 206.158 43.311,216.887 30.281,105.155 169.852 C 63.088 222.401,65.786 218.834,64.928 223.041 C 63.560 229.751,66.121 236.014,71.305 238.641 C 72.017 239.001,76.380 243.019,81.000 247.569 C 90.171 256.600,95.400 261.299,98.800 263.565 C 103.056 266.402,100.328 266.189,133.917 266.312 C 159.389 266.405,164.469 266.515,164.646 266.975 C 164.817 267.421,158.107 293.862,152.358 315.400 C 149.536 325.971,149.435 326.503,149.436 330.800 C 149.438 337.234,150.800 339.581,156.692 343.298 C 157.827 344.014,160.701 346.387,163.078 348.571 C 168.638 353.681,175.202 358.569,178.000 359.684 C 183.268 361.784,191.419 360.621,195.283 357.219 C 197.392 355.363,193.121 360.662,261.241 275.400 C 291.474 237.560,320.309 201.470,325.320 195.200 C 336.686 180.976,337.005 180.392,336.987 173.808 C 336.962 164.741,334.891 162.582,317.200 153.184 C 313.790 151.372,310.010 149.203,308.800 148.362 C 304.715 145.526,305.818 145.600,267.689 145.600 C 235.357 145.600,233.557 145.563,233.760 144.900 C 233.878 144.515,236.692 133.760,240.014 121.000 C 246.434 96.342,246.932 94.438,250.044 82.633 C 255.705 61.160,254.709 59.777,221.406 42.890 C 218.972 41.656,213.364 41.274,210.317 42.136 M232.369 67.052 C 235.595 68.983,236.800 69.917,236.800 70.487 C 236.800 70.917,233.296 84.708,229.013 101.134 C 218.802 140.299,217.587 144.897,217.351 145.279 C 217.033 145.793,206.000 145.679,206.000 145.161 C 206.000 144.785,215.285 108.826,217.661 100.000 C 218.105 98.350,220.336 89.839,222.619 81.086 C 224.902 72.334,226.877 64.999,227.008 64.786 C 227.405 64.145,227.767 64.298,232.369 67.052 M315.540 170.653 C 319.506 172.969,320.800 173.897,320.800 174.428 C 320.800 174.756,319.114 176.872,238.687 277.500 C 195.645 331.352,185.040 344.398,184.308 344.392 C 183.191 344.382,175.782 338.387,175.843 337.542 C 175.867 337.215,196.661 310.949,222.053 279.174 C 247.445 247.398,277.744 209.475,289.384 194.900 C 301.025 180.325,310.803 168.400,311.114 168.400 C 311.425 168.400,313.416 169.414,315.540 170.653 M171.533 239.950 C 172.056 240.282,170.181 248.547,169.137 250.512 C 168.779 251.187,167.186 251.218,138.846 251.112 L 108.933 251.000 106.001 248.601 C 102.158 245.457,97.200 240.816,97.200 240.363 C 97.200 240.155,111.398 239.960,130.900 239.900 C 149.435 239.842,166.040 239.754,167.800 239.704 C 169.560 239.653,171.240 239.764,171.533 239.950 " stroke="none" fill="#04c49c" fill-rule="evenodd"/><path id="path1" d="" stroke="none" fill="#08c49c" fill-rule="evenodd"/><path id="path2" d="" stroke="none" fill="#08c49c" fill-rule="evenodd"/><path id="path3" d="" stroke="none" fill="#08c49c" fill-rule="evenodd"/><path id="path4" d="" stroke="none" fill="#08c49c" fill-rule="evenodd"/></g></svg>