<svg width="834" height="907" viewBox="0 0 834 907" fill="none" xmlns="http://www.w3.org/2000/svg">
<path fill-rule="evenodd" clip-rule="evenodd" d="M491.685 799.437L447.013 804.777L396.611 795.229L375.993 783.017L391.271 873.122L409.975 893.359L461.139 906.332L508.856 899.46L491.685 799.437Z" fill="#74402F"/>
<path fill-rule="evenodd" clip-rule="evenodd" d="M513.855 784.527L490.943 799.043L508.505 899.828L529.123 882.265L513.855 784.527Z" fill="#744534"/>
<path fill-rule="evenodd" clip-rule="evenodd" d="M505.42 776.122L486.716 788.725L443.577 794.065L401.961 785.289L384.399 773.828L375.993 783.375L397.763 796.74L446.633 805.897L491.294 800.557L513.826 784.898L505.42 776.122Z" fill="#7B4A38"/>
<path fill-rule="evenodd" clip-rule="evenodd" d="M476.043 698.259L433.285 702.457L395.486 694.823L371.812 681.078L384.035 774.228L401.216 785.689L442.822 794.846L487.494 789.506L476.043 698.259Z" fill="#74402F"/>
<path fill-rule="evenodd" clip-rule="evenodd" d="M492.884 686.791L475.702 698.252L487.153 788.738L505.096 777.277L492.884 686.791Z" fill="#744534"/>
<path fill-rule="evenodd" clip-rule="evenodd" d="M487.484 679.162L472.978 689.09L431.361 692.526L397.379 687.557L380.589 674.964L371.422 681.075L395.476 696.724L433.275 702.835L474.891 699.018L493.215 686.796L487.484 679.162Z" fill="#7B4A38"/>
<path fill-rule="evenodd" clip-rule="evenodd" d="M474.533 572.252L460.016 579.896L429.861 582.561L396.259 577.982L381.753 570.348L380.22 675.721L397.401 688.324L432.536 694.045L473.38 689.466L487.125 679.538L474.533 572.252Z" fill="#74402F"/>
<path fill-rule="evenodd" clip-rule="evenodd" d="M469.909 565.375L456.545 573.02L428.674 575.684L399.661 570.345L386.677 564.233L381.718 570.725L395.844 579.121L429.445 582.938L459.6 580.654L474.498 572.629L469.909 565.375Z" fill="#7B4A38"/>
<path fill-rule="evenodd" clip-rule="evenodd" d="M464.987 448.928L437.115 451.984L411.148 450.451L399.316 444.73L387.094 564.61L400.078 571.482L428.329 576.061L456.972 573.396L469.945 565.752L477.97 442.817L464.987 448.928Z" fill="#74402F"/>
<path fill-rule="evenodd" clip-rule="evenodd" d="M456.561 326.766L424.111 320.274L402.352 439.773L433.278 458.868L461.53 447.407L473.742 452.757L482.909 322.569L456.561 326.766Z" fill="#74402F"/>
<path fill-rule="evenodd" clip-rule="evenodd" d="M475.275 437.876L466.869 443.216L440.531 446.652L411.899 444.749L402.352 439.399L399.296 445.13L411.127 450.85L440.151 452.383L467.291 449.327L477.95 442.835L475.275 437.876Z" fill="#7B4A38"/>
<path fill-rule="evenodd" clip-rule="evenodd" d="M482.555 318.347L474.335 322.174L455.62 324.592L432.986 323.08L425.445 318.851L423.377 323.316L432.379 327.905L455.322 329.119L476.773 326.701L482.936 322.936L482.555 318.347Z" fill="#7B4A38"/>
<path fill-rule="evenodd" clip-rule="evenodd" d="M474.509 571.858L459.23 581.025L473.356 689.453L487.101 680.286L474.509 571.858Z" fill="#744534"/>
<path fill-rule="evenodd" clip-rule="evenodd" d="M468.004 448.921L457.314 573.008L469.907 566.135L477.428 443.478L468.004 448.921Z" fill="#744534"/>
<path fill-rule="evenodd" clip-rule="evenodd" d="M476.798 326.758L467.25 443.582L474.514 438.623L482.909 322.18L476.798 326.758Z" fill="#744534"/>
<path fill-rule="evenodd" clip-rule="evenodd" d="M492.853 195.046C492.102 195.592 471.854 181.682 471.854 181.682L450.856 189.316L423.746 319.123L424.888 319.504L434.436 324.082L455.815 324.854L475.29 322.94L482.544 318.362L490.178 244.677C490.178 244.677 493.604 194.501 492.853 195.046Z" fill="#74402F"/>
<path fill-rule="evenodd" clip-rule="evenodd" d="M482.912 268.341L476.42 322.561L482.531 318.353L487.871 272.539L482.912 268.341Z" fill="#744534"/>
<path fill-rule="evenodd" clip-rule="evenodd" d="M177.536 292.386L142.412 518.41L236.334 314.907L177.536 292.386Z" fill="#32B12E"/>
<path fill-rule="evenodd" clip-rule="evenodd" d="M234.431 315.681L142.412 518.031L160.355 533.68L331.789 394.705L234.431 315.681Z" fill="#279523"/>
<path fill-rule="evenodd" clip-rule="evenodd" d="M332.901 231.275L232.868 314.507L330.988 395.455L426.823 320.238L332.901 231.275Z" fill="#29B825"/>
<path fill-rule="evenodd" clip-rule="evenodd" d="M269.546 216.794L176.766 292.393L234.03 316.066L333.683 231.301L269.546 216.794Z" fill="#30CB2B"/>
<path fill-rule="evenodd" clip-rule="evenodd" d="M431.397 208.013L269.521 216.789L330.602 232.829L426.438 320.639L449.72 243.518L463.856 238.549L464.618 226.337L431.397 208.013Z" fill="#4EE448"/>
<path fill-rule="evenodd" clip-rule="evenodd" d="M439.771 5.32934L338.349 0L367.341 31.3073L468.259 38.5194L439.771 5.32934Z" fill="#53E44E"/>
<path fill-rule="evenodd" clip-rule="evenodd" d="M467.566 37.7146L367.358 31.3153L442.175 123.704L483.626 121.76L467.566 37.7146Z" fill="#44D83F"/>
<path fill-rule="evenodd" clip-rule="evenodd" d="M467.16 37.7356L481.348 121.277L497.079 142.347L515.999 81.7901L467.16 37.7356Z" fill="#61E45C"/>
<path fill-rule="evenodd" clip-rule="evenodd" d="M442.153 123.352L466.753 193.405L476.897 196.348L481.712 120.904L442.153 123.352Z" fill="#2DAD2A"/>
<path fill-rule="evenodd" clip-rule="evenodd" d="M481.369 120.485L476.533 196.31L481.667 199.694L497.233 141.771L481.369 120.485Z" fill="#3BC237"/>
<path fill-rule="evenodd" clip-rule="evenodd" d="M510.806 209.533L477.976 214.883L471.104 257.26L549.367 247.332L510.806 209.533Z" fill="#3DE337"/>
<path fill-rule="evenodd" clip-rule="evenodd" d="M547.463 246.958L471.104 256.887L507.75 343.936L581.435 343.174L547.463 246.958Z" fill="#3EDC39"/>
<path fill-rule="evenodd" clip-rule="evenodd" d="M581.803 343.174L506.977 343.555L574.55 537.88L587.153 529.485L581.803 343.174Z" fill="#2EB42A"/>
<path fill-rule="evenodd" clip-rule="evenodd" d="M580.67 342.77L586.781 529.091L601.668 542.075L681.464 384.386L580.67 342.77Z" fill="#289C24"/>
<path fill-rule="evenodd" clip-rule="evenodd" d="M586.815 528.338L574.212 537.494L601.702 541.702L586.815 528.338Z" fill="#31912E"/>
<path fill-rule="evenodd" clip-rule="evenodd" d="M653.232 303.451L511.202 210.29L547.479 246.948L580.689 342.773L681.484 384.389L653.232 303.451Z" fill="#54E94F"/>
<path fill-rule="evenodd" clip-rule="evenodd" d="M139.355 48.8041L0 139.67L150.816 64.4527L139.355 48.8041Z" fill="#38CD33"/>
<path fill-rule="evenodd" clip-rule="evenodd" d="M150.784 64.0638L0.348633 139.282L4.16559 148.057L167.966 128.211L150.784 64.0638Z" fill="#30B62C"/>
<path fill-rule="evenodd" clip-rule="evenodd" d="M139.353 48.8042L150.814 64.8436L293.605 73.2389L139.353 48.8042Z" fill="#46E641"/>
<path fill-rule="evenodd" clip-rule="evenodd" d="M293.925 72.8448L150.753 64.4392L167.543 128.587L307.289 146.91L293.925 72.8448Z" fill="#44DE3F"/>
<path fill-rule="evenodd" clip-rule="evenodd" d="M160.732 37.7355L139.353 48.8057L203.5 59.1146L160.732 37.7355Z" fill="#3FD43B"/>
<path fill-rule="evenodd" clip-rule="evenodd" d="M245.092 14.0555L160.707 37.7289L201.943 59.108L294.722 73.6145L339.014 45.7435L245.092 14.0555Z" fill="#47DF42"/>
<path fill-rule="evenodd" clip-rule="evenodd" d="M426.844 141.963L373.016 70.5624L338.653 45.3664L293.601 73.2374C293.601 73.2374 421.505 156.089 444.293 172.149L426.844 141.963Z" fill="#41CF3C"/>
<path fill-rule="evenodd" clip-rule="evenodd" d="M414.621 137.38L293.209 72.8622L306.954 146.928L419.971 174.418L461.587 211.075L414.621 137.38Z" fill="#54E450"/>
<path fill-rule="evenodd" clip-rule="evenodd" d="M464.62 226.723L461.184 210.303L420.329 174.037L410.781 171.743L414.979 179.767L432.551 201.527L431.78 208.4L464.62 226.723Z" fill="#2BA828"/>
<path fill-rule="evenodd" clip-rule="evenodd" d="M772.724 179.379L674.224 145.026L578.779 163.349L552.811 171.745L513.109 161.436L508.139 183.206L494.014 190.84L490.958 203.433L587.174 169.08L717.362 167.928L817.396 206.488L772.724 179.379Z" fill="#5CE857"/>
<path fill-rule="evenodd" clip-rule="evenodd" d="M817.043 206.095L717.771 167.534L726.177 224.809L803.679 248.472L809.409 256.116L833.083 261.456L817.043 206.095Z" fill="#51D84C"/>
<path fill-rule="evenodd" clip-rule="evenodd" d="M817.024 206.086L804.04 248.464L809.009 256.869L833.444 262.209L817.024 206.086Z" fill="#36BD31"/>
<path fill-rule="evenodd" clip-rule="evenodd" d="M717.749 167.915L587.18 169.068L583.363 194.644L726.916 225.19L717.749 167.915Z" fill="#36BD31"/>
<path fill-rule="evenodd" clip-rule="evenodd" d="M675.733 283.592L553.56 238.54L652.831 303.448L677.647 373.316L689.859 374.078L720.024 405.385L756.682 376.372L675.733 283.592Z" fill="#3FD43B"/>
<path fill-rule="evenodd" clip-rule="evenodd" d="M706.681 293.135L675.374 283.588L755.17 377.129L797.928 373.693L706.681 293.135Z" fill="#5FEC59"/>
<path fill-rule="evenodd" clip-rule="evenodd" d="M754.426 376.752L786.875 569.945L797.565 373.696L754.426 376.752Z" fill="#32B12E"/>
<path fill-rule="evenodd" clip-rule="evenodd" d="M754.791 377.118L719.286 404.989L778.464 569.55L786.86 569.159L754.791 377.118Z" fill="#31912E"/>
<path fill-rule="evenodd" clip-rule="evenodd" d="M490.589 203.046L583.749 194.65L587.566 169.074L490.589 203.046Z" fill="#2EB42A"/>
</svg>
