<svg xmlns="http://www.w3.org/2000/svg" height="64" width="64"><defs><radialGradient id="a" gradientUnits="userSpaceOnUse" cy="43.5" cx="4.993" gradientTransform="matrix(2.0038 0 0 1.4 27.988 -17.4)" r="2.5"><stop stop-color="#181818" offset="0"/><stop stop-color="#181818" stop-opacity="0" offset="1"/></radialGradient><radialGradient id="b" gradientUnits="userSpaceOnUse" cy="43.5" cx="4.993" gradientTransform="matrix(2.0038 0 0 1.4 -20.012 -104.4)" r="2.5"><stop stop-color="#181818" offset="0"/><stop stop-color="#181818" stop-opacity="0" offset="1"/></radialGradient><linearGradient id="c" y2="39.999" gradientUnits="userSpaceOnUse" x2="25.058" y1="47.028" x1="25.058"><stop stop-color="#181818" stop-opacity="0" offset="0"/><stop stop-color="#181818" offset=".5"/><stop stop-color="#181818" stop-opacity="0" offset="1"/></linearGradient><linearGradient id="e" y2="43" gradientUnits="userSpaceOnUse" x2="24" gradientTransform="matrix(1.4324 0 0 1.4363 -2.378 -2.47)" y1="5" x1="24"><stop stop-color="#fff" offset="0"/><stop stop-color="#fff" stop-opacity=".235" offset=".063"/><stop stop-color="#fff" stop-opacity=".157" offset=".951"/><stop stop-color="#fff" stop-opacity=".392" offset="1"/></linearGradient><radialGradient id="d" fx="6.2" gradientUnits="userSpaceOnUse" cy="9.957" cx="6.73" gradientTransform="matrix(0 13.394 -16.444 0 196.9 -114.89)" r="12.672"><stop stop-color="#bd94e7" offset="0"/><stop stop-color="#7b6ca3" offset=".262"/><stop stop-color="#574a76" offset=".705"/><stop stop-color="#3f3654" offset="1"/></radialGradient></defs><g opacity=".6"><path fill="url(#a)" d="M38 40h5v7h-5z" transform="matrix(1.579 0 0 .71429 -5.895 27.929)"/><path transform="matrix(-1.579 0 0 -.71429 -5.895 27.929)" fill="url(#b)" d="M-10-47h5v7h-5z"/><path fill="url(#c)" d="M10 40h28v7H10z" transform="matrix(1.579 0 0 .71429 -5.895 27.929)"/></g><rect rx="3" ry="3" height="55" width="55" y="4.5" x="4.5" fill="url(#d)" color="#000"/><rect opacity=".3" stroke-linejoin="round" rx="2" ry="2" height="53.142" width="53" stroke="url(#e)" stroke-linecap="round" y="5.429" x="5.5" fill="none"/><rect opacity=".5" stroke-linejoin="round" rx="3" ry="3" height="55" width="55" stroke="#05020d" stroke-linecap="round" y="4.5" x="4.5" fill="none" color="#000"/><path opacity=".15" style="isolation:auto;mix-blend-mode:normal" d="M31.462 15.984c-1.35 0-2.705.166-4.06.493-1.335.31-2.624.752-3.866 1.326a20.767 20.767 0 0 0-3.467 2.002 1.016 1.016 0 0 0-.005.004 17.304 17.304 0 0 0-2.844 2.562 1.016 1.016 0 0 0-.006.008 12.544 12.544 0 0 0-1.95 3.012 1.016 1.016 0 0 0-.005.011 8.348 8.348 0 0 0-.729 3.373c0 .912.11 1.722.373 2.434a1.016 1.016 0 0 0 .008.021c.272.69.68 1.293 1.217 1.75a1.016 1.016 0 0 0 .014.012c.54.444 1.188.754 1.908.947a1.016 1.016 0 0 0 .023.006c.702.171 1.473.252 2.32.252a1.016 1.016 0 0 0 1.016-1.015c0-.376-.132-.636-.266-.85l.047.084a4.014 4.014 0 0 1-.148-.371c0-.001-.002 0-.002-.002a7.263 7.263 0 0 1-.178-.703 8.528 8.528 0 0 1-.072-1.236c0-2.366.542-4.247 1.588-5.75.797-1.131 1.9-1.962 3.17-2.653l.691 29.322a1.016 1.016 0 0 0 1.016.992h6.53a1.016 1.016 0 0 0 .952-.66l12.594-33.779a1.016 1.016 0 0 0-.951-1.37h-3.164a1.016 1.016 0 0 0-.961.685l-7.649 22.25-.314-22.066a1.016 1.016 0 0 0-.914-.996 18.86 18.86 0 0 0-.934-.07h-.002a18.748 18.748 0 0 0-.98-.024z" fill="#201c2c" color="#000"/><path style="isolation:auto;mix-blend-mode:normal" d="M27.255 50.999l-.73-30.967q-3.188 1.195-4.98 3.74-1.772 2.546-1.772 6.331 0 .863.089 1.417.11.531.221.863.111.31.2.487.11.177.11.31-1.173 0-2.08-.221-.908-.244-1.528-.753-.598-.508-.93-1.35-.31-.84-.31-2.08 0-1.505.641-2.966.664-1.46 1.793-2.767 1.151-1.305 2.679-2.412 1.55-1.107 3.298-1.904 1.77-.819 3.674-1.261Q29.556 17 31.46 17q.509 0 .93.022.442.022.884.066l.399 27.89 9.54-27.758h3.165L33.784 51h-6.53z" opacity=".3" fill="#201c2c" color="#000"/><path d="M27.255 49.999l-.73-30.967q-3.188 1.195-4.98 3.74-1.772 2.546-1.772 6.331 0 .863.089 1.417.11.531.221.863.111.31.2.487.11.177.11.31-1.173 0-2.08-.221-.908-.244-1.528-.753-.598-.508-.93-1.35-.31-.84-.31-2.08 0-1.505.641-2.966.664-1.46 1.793-2.767 1.151-1.305 2.679-2.412 1.55-1.107 3.298-1.904 1.77-.819 3.674-1.261Q29.556 16 31.46 16q.509 0 .93.022.442.022.884.066l.399 27.89 9.54-27.758h3.165L33.784 50h-6.53z" fill="#fff"/></svg>