<svg width="281" height="142" xmlns="http://www.w3.org/2000/svg">
 <g>
  <path id="svg_1" fill-rule="evenodd" fill="#3F87AF" d="m0,0l280.88889,0l0,141.78586l-280.88889,0l0,-141.78586zm14.22222,26.66667l252.44444,0l0,88.45252l-252.44444,0l0,-88.45252z"/>
  <path id="svg_2" fill="#8C96A0" d="m14.22222,104.45253l252.44444,0l0,10.66666l-252.44444,0l0,-10.66666z"/>
  <path id="svg_3" fill="#8C96A0" d="m14.22222,26.66667l252.44444,0l0,10.66667l-252.44444,0l0,-10.66667z"/>
  <path id="svg_4" fill="#FFFFFF" d="m14.22222,37.33334l252.44444,0l0,67.11919l-252.44444,0l0,-67.11919z"/>
  <path id="svg_5" fill="#8C96A0" d="m49.34019,130.22085c-5.84678,-4.24794 -11.03352,-9.33683 -15.39203,-15.10166l26.36402,0l-10.97199,15.10166z"/>
  <path id="svg_6" fill="#8C96A0" d="m49.34019,11.56502c-5.84678,4.24794 -11.03352,9.33682 -15.39203,15.10165l26.36402,0l-10.97199,-15.10165z"/>
  <path id="svg_7" fill="#8C96A0" d="m77.19087,93.22592c-17.58783,-12.77831 -17.58783,-38.99878 0,-51.77709l-10.18828,-14.02296c-27.11457,19.69989 -27.11457,60.12312 0,79.82301l10.18828,-14.02296z"/>
  <path id="svg_8" fill="#8C96A0" d="m63.86774,111.56364c-30.04588,-21.82961 -30.04588,-66.62292 0,-88.45253l-10.97199,-15.10165c-40.30545,29.28362 -40.30545,89.37221 0,118.65583l10.97199,-15.10165z"/>
  <path id="svg_9" fill="#3F87AF" d="m73.63531,96.78148c-17.58783,-12.77831 -17.58783,-38.99879 0,-51.77709l-10.18827,-14.02296c-27.11457,19.69989 -27.11457,60.12312 0,79.82301l10.18827,-14.02296z"/>
  <path id="svg_10" fill="#3F87AF" d="m60.31218,115.11919c-30.04587,-21.8296 -30.04587,-66.62291 0,-88.45252l-26.36402,0c-19.78273,26.16582 -19.78273,62.28671 0,88.45252"/>
  <text id="svg_11" fill="#8C96A0" y="95.78182" x="96" font-size="56.88889px" font-weight="bold" font-family="Helvetica">Clean</text>
  <text id="svg_12" fill="#8C96A0" y="94.89293" x="95.11111" font-size="56.88889px" font-weight="bold" font-family="Helvetica">Clean</text>
  <text id="svg_13" fill="#8C96A0" y="94.00404" x="94.22222" font-size="56.88889px" font-weight="bold" font-family="Helvetica">Clean</text>
  <text id="svg_14" fill="#8C96A0" y="93.11515" x="93.33333" font-size="56.88889px" font-weight="bold" font-family="Helvetica">Clean</text>
  <text id="svg_15" fill="#3F87AF" y="92.22627" x="92.44444" font-size="56.88889px" font-weight="bold" font-family="Helvetica">Clean</text>
 </g>
</svg>