<svg xmlns="http://www.w3.org/2000/svg" xmlns:xlink="http://www.w3.org/1999/xlink" width="2072" height="2072"><defs><linearGradient id="n"><stop offset="0" style="stop-color:#32691d;stop-opacity:1"/><stop offset=".02" style="stop-color:#01d200;stop-opacity:0"/><stop offset="1" style="stop-color:#fff;stop-opacity:0"/></linearGradient><linearGradient id="m"><stop offset="0" style="stop-color:#ebebec;stop-opacity:1"/><stop offset=".005" style="stop-color:#d3d3d3;stop-opacity:0"/><stop offset="1" style="stop-color:#fff;stop-opacity:0"/></linearGradient><linearGradient id="l"><stop offset="0" style="stop-color:#cbf595;stop-opacity:1"/><stop offset=".018" style="stop-color:#01da00;stop-opacity:0"/><stop offset="1" style="stop-color:#fff;stop-opacity:0"/></linearGradient><linearGradient id="j"><stop offset="0" style="stop-color:#321e1d;stop-opacity:1"/><stop offset=".015" style="stop-color:#555548;stop-opacity:0"/><stop offset="1" style="stop-color:#fff;stop-opacity:0"/></linearGradient><linearGradient id="i"><stop offset="0" style="stop-color:#321e1d;stop-opacity:1"/><stop offset=".02" style="stop-color:#5a5bd7;stop-opacity:0"/><stop offset="1" style="stop-color:#fff;stop-opacity:0"/></linearGradient><linearGradient id="h"><stop offset="0" style="stop-color:#f6b1b2;stop-opacity:1"/><stop offset=".028" style="stop-color:#c51f1f;stop-opacity:0"/><stop offset="1" style="stop-color:#fff;stop-opacity:0"/></linearGradient><linearGradient id="f"><stop offset="0" style="stop-color:#321e1d;stop-opacity:1"/><stop offset=".02" style="stop-color:#555548;stop-opacity:0"/><stop offset="1" style="stop-color:#fff;stop-opacity:0"/></linearGradient><linearGradient id="e"><stop offset="0" style="stop-color:#cbcaf2;stop-opacity:1"/><stop offset=".026" style="stop-color:#5555d2;stop-opacity:0"/><stop offset="1" style="stop-color:#fff;stop-opacity:0"/></linearGradient><linearGradient id="d"><stop offset="0" style="stop-color:#848484;stop-opacity:1"/><stop offset="1" style="stop-color:#d2d2d2;stop-opacity:1"/></linearGradient><linearGradient id="c"><stop offset="0" style="stop-color:#01a300;stop-opacity:1"/><stop offset="1" style="stop-color:#01df00;stop-opacity:1"/></linearGradient><linearGradient id="b"><stop offset="0" style="stop-color:#b40e0e;stop-opacity:1"/><stop offset="1" style="stop-color:#ff5959;stop-opacity:1"/></linearGradient><linearGradient id="a"><stop offset="0" style="stop-color:#1011a1;stop-opacity:1"/><stop offset="1" style="stop-color:#6969e1;stop-opacity:1"/></linearGradient><linearGradient xlink:href="#a" id="p" x1="-1527.351" x2="-1086.116" y1="1387.521" y2="454.14" gradientTransform="translate(2104 48)" gradientUnits="userSpaceOnUse"/><linearGradient xlink:href="#b" id="s" x1="-933.381" x2="-316.784" y1="680.414" y2="1721.275" gradientTransform="translate(2104 48)" gradientUnits="userSpaceOnUse"/><linearGradient xlink:href="#c" id="u" x1="-678.823" x2="-1549.978" y1="1794.814" y2="1721.275" gradientTransform="translate(2104 48)" gradientUnits="userSpaceOnUse"/><linearGradient xlink:href="#d" id="w" x1="-984.293" x2="-995.606" y1="1472.373" y2="1093.364" gradientTransform="translate(2104 48)" gradientUnits="userSpaceOnUse"/><linearGradient xlink:href="#e" id="q" x1="-1238.046" x2="-555.824" y1="919.714" y2="917.513" gradientTransform="rotate(27.137 -924.753 7844.188)scale(2.15625 1)" gradientUnits="userSpaceOnUse"/><linearGradient xlink:href="#f" id="v" x1="-1238.046" x2="-552.84" y1="919.714" y2="913.406" gradientTransform="rotate(154.163 -569.508 1537.05)scale(2.15625 1)" gradientUnits="userSpaceOnUse"/><linearGradient id="g"><stop offset="0" style="stop-color:#321e1d;stop-opacity:1"/><stop offset=".02" style="stop-color:#555548;stop-opacity:0"/><stop offset="1" style="stop-color:#fff;stop-opacity:0"/></linearGradient><linearGradient xlink:href="#g" id="z" x1="-1238.046" x2="-555.837" y1="919.714" y2="915.3" gradientTransform="matrix(.027 -2.15606 .90369 .01315 114.37 -755.43)" gradientUnits="userSpaceOnUse"/><linearGradient xlink:href="#h" id="t" x1="-1238.046" x2="-554.897" y1="919.714" y2="917.618" gradientTransform="matrix(3.13625 .00262 .06431 .76015 4936.136 68.133)" gradientUnits="userSpaceOnUse"/><linearGradient xlink:href="#i" id="r" x1="-1229.327" x2="-555.824" y1="918.444" y2="917.513" gradientTransform="matrix(-2.15102 -.07026 -.03821 -.4821 -1498.469 1058.01)" gradientUnits="userSpaceOnUse"/><linearGradient xlink:href="#j" id="B" x1="-1237.111" x2="-555.824" y1="920.418" y2="917.513" gradientTransform="rotate(230.215 -1000.845 721.372)scale(2.15625 1)" gradientUnits="userSpaceOnUse"/><linearGradient id="k"><stop offset="0" style="stop-color:#321e1d;stop-opacity:1"/><stop offset=".017" style="stop-color:#555548;stop-opacity:0"/><stop offset="1" style="stop-color:#fff;stop-opacity:0"/></linearGradient><linearGradient xlink:href="#k" id="A" x1="-1242.233" x2="-551.125" y1="915.736" y2="910.646" gradientTransform="rotate(-66.693 417.99 -2101.129)scale(2.15625 1)" gradientUnits="userSpaceOnUse"/><linearGradient xlink:href="#l" id="x" x1="-1238.046" x2="-555.867" y1="919.714" y2="915.48" gradientTransform="rotate(50.105 -2407.227 4422.607)scale(2.15625 1)" gradientUnits="userSpaceOnUse"/><linearGradient xlink:href="#m" id="C" x1="-1242.558" x2="-866.868" y1="918.099" y2="917.187" gradientTransform="rotate(50.105 -1847.53 4683.265)scale(2.15625 1)" gradientUnits="userSpaceOnUse"/><linearGradient xlink:href="#n" id="y" x1="-1238.046" x2="-555.824" y1="919.714" y2="917.513" gradientTransform="matrix(-.8318 1.98933 -.83312 -.35033 1447.575 4603.684)" gradientUnits="userSpaceOnUse"/><filter id="o"><feGaussianBlur stdDeviation="9.077"/></filter></defs><path d="m1971.558 1939.914-1797.087-.126c-11.03-1.222-8.54-6.713-5.996-12.222l900.88-1799.485c3.313-5.277 6.288-4.437 9.086-.411l900.856 1799.436c4.578 9.167 1.58 13.15-7.74 12.808z" style="fill:none;stroke:#3a393b;stroke-width:22.5;stroke-miterlimit:4;stroke-opacity:1;stroke-dasharray:none;stroke-dashoffset:0;filter:url(#o);opacity:.53974895"/><path d="m1143.308 1084.322-984.617 841.74 901.82-1801.96z" style="fill:url(#p);fill-opacity:1;fill-rule:nonzero;stroke:#000;stroke-opacity:1"/><path d="M1060.564 125.62c13.415 80.715 11.94 94.79-18.035 140.073L245.92 1844.832l-84.603 76.927z" style="fill:url(#q);fill-opacity:1;fill-rule:nonzero;stroke:none"/><path d="m1147.188 1083.154-50.167 40.053-52.789-888.726c-4.053-47.434-6.241-43.17-6.549-68.17l25.1-48.952z" style="fill:url(#r);fill-opacity:1;fill-rule:nonzero;stroke:none"/><path d="M1188.936 1609.994 1060.98 123.94l902.974 1802.286z" style="fill:url(#s);fill-opacity:1;fill-rule:nonzero;stroke:#000;stroke-opacity:1"/><path d="M1060.907 120.077c24.175 30.046 39.608 75.94 48.965 112.179l179.375 1415.104-98.428-38.439z" style="fill:url(#t);fill-opacity:1;fill-rule:nonzero;stroke:none"/><path d="m743.41 1423.835 1221.47 502.173-1805.952-.198z" style="fill:url(#u);fill-opacity:1;fill-rule:nonzero;stroke:#000;stroke-opacity:1"/><path d="m1963.69 1926.528-56.715-24.617L1110.99 298.859c-21.947-24.379-34.345-39.623-41.22-51.952-1.126-32.32-2.942-61.082-9.913-126.263z" style="fill:url(#v);fill-opacity:1;fill-rule:nonzero;stroke:none"/><path d="m745.266 1425.048 397.423-339.039 55.33 523.572z" style="fill:url(#w);fill-opacity:1;fill-rule:nonzero;stroke:#000;stroke-width:4;stroke-miterlimit:4;stroke-opacity:1;stroke-dasharray:none"/><path d="M742.728 1426.255c17.482 6.75 20.842 8.283 35.806 14.42-16.159 13.831-69.88 86.49-91.428 103.85l-428.407 362.7-98.82 18.388z" style="fill:url(#x);fill-opacity:1;fill-rule:nonzero;stroke:none"/><path d="m1962.868 1925.46-68.065-1.05-1174.867-479.632 23.505-18.717 470.763 191.942z" style="fill:url(#y);fill-opacity:1;fill-rule:nonzero;stroke:none"/><path d="m159.983 1925.44 50.295-42.886 1643.009.153 110.327 42.727-1803.631.01z" style="fill:url(#z);fill-opacity:1;fill-rule:nonzero;stroke:none"/><path d="m1199.847 1610.987-2.16-22.338 610.588 235.168c39.455 18.766 69.105 27.299 88.824 43.327 12.695 5.208 34.725 12.634 46.114 16.473 13.926 9.222 11.506 23.958 20.318 41.543z" style="fill:url(#A);fill-opacity:1;fill-rule:nonzero;stroke:none"/><path d="m1958.587 1931.807-1797.087-.126c-11.03-1.222-8.54-6.713-5.996-12.221l900.88-1799.486c3.314-5.277 6.288-4.437 9.086-.41L1966.326 1919c4.578 9.166 1.581 13.15-7.74 12.807z" style="fill:none;stroke:#000;stroke-width:12.19999981;stroke-miterlimit:4;stroke-opacity:1;stroke-dasharray:none;stroke-dashoffset:0"/><path d="m160.09 1924.15 25.525-54.532 52.068-38.569 899.327-780.875c4.8 18.518 1.88 6.934 6.131 33.99z" style="fill:url(#B);fill-opacity:1;fill-rule:nonzero;stroke:none"/><path d="M1141.05 1090.571c-7.893 86.608-17.716 81.544-53.248 118.02l-263.407 244.7-74.944-29.237z" style="fill:url(#C);fill-opacity:1;fill-rule:nonzero;stroke:none"/></svg>