<svg xmlns="http://www.w3.org/2000/svg" version="1.0" width="255.042" height="255.03" viewBox="0 0 2550.422 2550.302" preserveAspectRatio="xMidYMid meet" id="svg8">
    <g id="layer101" style="fill:#734f96;stroke:none" transform="translate(.142 -7.901)">
        <path d="M374 2558.203c-150.769.05-374.142-263.163-374.142-376.539v-1802C-.142 227.08 263.836 7.893 377.76 7.901l1805.356.127c155.783.01 367.163 254.122 367.163 375.222v1803.768c0 177.696-238.056 370.532-372.282 370.577z" id="path2"/>
    </g>
    <g id="layer102" style="fill:#fff;stroke:none" transform="translate(.142 -7.901)">
        <path d="M350 2062l98-6c199-13 197-12 207-168 9-148-2.337-1306.766-9-1330-10.975-38.27-52.156-60.281-175-60.25L350 497V280h1860v831l-219-3.25c-2-2-8-60.75-12-114.75-23-254-80-400.142-190-457.142-58-30-148.565-38.842-438.652-38.93L1080 497v623h48c81-1 184-20 218-41 44-27 81-105 94-199 9.8-68.603 17.362-119.933 17.362-119.933L1670 760v990h-220v-39c0-64-30-213-51-258-33-69-89-93-248-108l-73-7 4 321c3 305 5 322 24 348 24 32 50 38 209 50l106.727 5.077L1421 2280H350z" id="path5"/>
    </g>
</svg>