<?xml version="1.0" encoding="UTF-8" standalone="no"?>
<!-- From https://en.m.wikipedia.org/wiki/File:GNU_Compiler_Collection_logo.svg -->
<svg xmlns:dc="http://purl.org/dc/elements/1.1/" xmlns:cc="http://web.resource.org/cc/" xmlns:rdf="http://www.w3.org/1999/02/22-rdf-syntax-ns#" xmlns:svg="http://www.w3.org/2000/svg" xmlns="http://www.w3.org/2000/svg" xmlns:sodipodi="http://sodipodi.sourceforge.net/DTD/sodipodi-0.dtd" xmlns:inkscape="http://www.inkscape.org/namespaces/inkscape" version="1.0" width="584" height="688.75" viewBox="0 0 468 551" preserveAspectRatio="xMidYMid meet" id="svg2" sodipodi:version="0.32" inkscape:version="0.45.1" sodipodi:docname="gccegg.svg" sodipodi:docbase="/home/aoleg/diverse/wiki" inkscape:output_extension="org.inkscape.output.svg.inkscape">
  <defs id="defs33"/>
  <sodipodi:namedview inkscape:window-height="761" inkscape:window-width="910" inkscape:pageshadow="2" inkscape:pageopacity="0.0" borderopacity="1.0" bordercolor="#666666" pagecolor="#ffffff" id="base" inkscape:zoom="0.34311951" inkscape:cx="472.12912" inkscape:cy="189.9807" inkscape:window-x="16" inkscape:window-y="0" inkscape:current-layer="layer1" width="584px" height="688.75px"/>
  <metadata id="metadata4">
Created by potrace 1.7, written by Peter Selinger 2001-2005
<rdf:RDF>
  <cc:Work rdf:about="">
    <dc:format>image/svg+xml</dc:format>
    <dc:type rdf:resource="http://purl.org/dc/dcmitype/StillImage"/>
  </cc:Work>
</rdf:RDF>
</metadata>
  <g inkscape:groupmode="layer" id="layer1" inkscape:label="Colors" style="display:inline">
    <path style="fill:#ffcfab;fill-opacity:1;fill-rule:evenodd;stroke:#000000;stroke-width:4.32739726;stroke-linecap:butt;stroke-linejoin:miter;stroke-miterlimit:4;stroke-dasharray:none;stroke-opacity:1;display:inline" d="M 314.59256,51.488159 C 307.83229,61.825589 301.07201,72.163009 294.31174,82.500429 C 326.36108,119.70093 358.41041,156.90143 390.45975,194.10193 C 394.97182,175.63918 398.27382,195.77906 401.96245,203.58503 C 411.83996,225.91915 413.37762,250.80682 416.45784,274.70403 C 422.28759,319.93295 420.36705,346.40574 416.21807,371.08633 C 402.77382,451.06077 355.08281,497.73933 309.53344,524.61493 C 293.9524,533.80823 278.95606,540.23553 256.96012,543.23683 C 234.29503,546.32943 212.08773,545.10503 189.3345,540.67163 C 170.55015,537.01153 151.65698,530.84303 134.30759,522.89213 C 106.64494,510.21473 83.8114,488.27223 65.938724,464.20093 C 48.647875,440.91323 37.741602,413.12463 29.458452,385.27863 C 14.391911,334.62853 8.0217569,280.69023 20.039664,228.58504 C 27.530849,196.10605 38.332221,163.94233 53.104237,134.28573 C 68.780358,102.81402 90.814035,74.310799 117.48546,50.676269 C 133.50219,36.483249 150.91272,23.404789 170.51416,15.510139 C 184.89265,9.7190692 200.11325,8.4142392 215.82579,9.4504292 C 231.36155,10.474959 246.19114,12.215499 260.99187,17.479009 C 281.13247,24.641499 300.11294,35.844929 314.59256,51.488159 z " id="path1335" sodipodi:nodetypes="ccccssssssssssssssc"/>
    <path style="fill:#f39105;fill-opacity:1;fill-rule:evenodd;stroke:#000000;stroke-width:1.04141939px;stroke-linecap:butt;stroke-linejoin:miter;stroke-opacity:1" d="M 165.41055,186.37168 L 154.25072,158.04194 L 166.26869,152.03296 L 190.30674,148.59834 L 234.94718,93.656588 L 259.8423,97.090775 L 276.15301,88.505732 L 288.17204,85.930405 L 269.2859,127.13677 L 232.37174,131.4295 L 165.41055,186.37168 z " id="path2211"/>
    <path style="fill:#ffcfab;fill-opacity:1;fill-rule:evenodd;stroke:#000000;stroke-width:1.04141939px;stroke-linecap:butt;stroke-linejoin:miter;stroke-opacity:1;display:inline" d="M 325.94432,71.336371 L 345.68962,96.231603 L 350.8405,104.81707 L 313.06716,91.939603 L 317.3599,79.921104 L 325.94432,71.336371 z " id="path3100"/>
    <path style="fill:#f39a05;fill-opacity:1;fill-rule:evenodd;stroke:#000000;stroke-width:1.04141939px;stroke-linecap:butt;stroke-linejoin:miter;stroke-opacity:1;display:inline" d="M 311.3509,90.222719 L 330.23704,100.52435 L 349.98131,106.53333 L 323.36889,121.12779 L 303.62462,119.41049 L 301.90732,105.6752 L 311.3509,90.222719 z " id="path3976"/>
    <path style="fill:#ab9a7e;fill-opacity:1;fill-rule:evenodd;stroke:#000000;stroke-width:1.04141939px;stroke-linecap:butt;stroke-linejoin:miter;stroke-opacity:1;display:inline" d="M 166.26869,188.08792 L 180.00501,210.40868 L 166.26869,245.60553 L 198.89115,251.61555 L 205.75827,258.48266 L 226.36171,290.24596 L 291.60559,255.90724 L 311.02828,261.27309 L 331.95436,255.0491 L 317.3599,239.59652 L 319.93534,235.3038 L 326.80348,231.01211 L 330.23704,242.17196 L 336.24605,255.90724 L 352.55676,275.65256 L 356.84948,273.07712 L 357.70762,260.19998 L 372.86774,257.53092 L 378.21813,253.37345 L 391.61086,251.75025 L 395.051,234.87524 L 385.17922,194.09796 L 385.17922,176.92808 L 400.63179,174.35265 L 414.36707,184.65436 L 434.11134,189.80524 L 441.83764,188.08792 L 418.65981,158.90007 L 404.41244,144.3128 L 396.33906,139.1558 L 380.88648,128.85407 L 349.12318,130.57033 L 324.22806,136.58037 L 302.76545,146.88208 L 289.88933,145.16478 L 273.57759,137.4385 L 268.42673,129.7122 L 234.94718,128.85407 L 166.26869,188.08792 z " id="path4852" sodipodi:nodetypes="ccccccccccccccccccccccccccccccccccccccc"/>
    <path style="fill:#ffffff;fill-opacity:1;fill-rule:evenodd;stroke:#000000;stroke-width:1.04141939px;stroke-linecap:butt;stroke-linejoin:miter;stroke-opacity:1;display:inline" d="M 326.80348,230.15295 L 331.09517,241.31384 L 328.51975,248.18096 L 315.64259,240.45465 L 319.0772,234.44566 L 326.80348,230.15295 z " id="path5728"/>
    <path style="fill:#ffffff;fill-opacity:1;fill-rule:evenodd;stroke:#000000;stroke-width:1.04141939px;stroke-linecap:butt;stroke-linejoin:miter;stroke-opacity:1" d="M 346.54776,183.79623 L 360.28304,171.77723 L 368.00932,170.9191 L 370.58477,175.21079 L 358.56678,188.08792 L 351.69863,190.66337 L 346.54776,183.79623 z " id="path6604"/>
    <path style="fill:#ffffff;fill-opacity:1;fill-rule:evenodd;stroke:#000000;stroke-width:1.04141939px;stroke-linecap:butt;stroke-linejoin:miter;stroke-opacity:1" d="M 371.39152,124.25784 L 329.37893,134.86307 L 301.90732,146.02291 L 277.87032,139.1558 L 269.2859,128.85407 L 291.60559,78.204115 L 312.51868,52.30405 L 326.21959,46.878633 L 341.3969,49.874592 L 357.12139,72.95265 L 373.59968,83.988797 L 371.70175,87.326973 L 347.40589,79.062557 L 325.94432,69.619383 L 305.34088,101.38248 L 301.0492,112.54336 L 304.48275,122.84508 L 360.28304,113.40148 L 366.24067,118.35263 L 371.39152,124.25784 z " id="path7479" sodipodi:nodetypes="cccccccccccccccccccc"/>
    <path style="fill:#ffffff;fill-opacity:1;fill-rule:evenodd;stroke:#000000;stroke-width:1.04141939px;stroke-linecap:butt;stroke-linejoin:miter;stroke-opacity:1" d="M 387.75465,130.57033 L 397.59019,143.15998 L 403.79646,143.33479 L 426.73654,168.85136 L 432.44202,175.77089 L 442.69681,169.20178 L 454.71478,142.58935 L 461.38323,121.43129 L 462.29378,103.70679 L 456.78802,97.090775 L 437.54596,97.090775 L 422.9515,100.52435 C 422.9515,100.52435 410.93351,106.53333 414.36707,106.53333 C 417.80064,106.53333 434.11134,111.68419 434.11134,111.68419 L 440.97952,116.83505 L 442.69681,124.56135 L 433.25322,143.44749 L 428.96153,147.74021 L 409.21622,134.86307 L 403.20723,130.57033 L 397.1972,129.7122 L 387.75465,130.57033 z " id="path8354" sodipodi:nodetypes="ccccccccccccsccccccccc"/>
    <path style="fill:#ffffff;fill-opacity:1;fill-rule:evenodd;stroke:#9e0000;stroke-width:1.04141939px;stroke-linecap:butt;stroke-linejoin:miter;stroke-opacity:1" d="M 379.73571,230.93843 C 379.47014,228.96558 366.22931,230.93843 366.22931,230.93843 C 366.22931,230.93843 363.915,238.82984 367.29161,238.82984 C 370.66821,238.82984 380.00129,232.91128 379.73571,230.93843 z " id="path5093" sodipodi:nodetypes="cczz"/>
  </g>
  <g inkscape:groupmode="layer" id="layer2" inkscape:label="Drawing" style="display:inline">
    <g transform="matrix(0.2850198,0,0,-0.2850198,-5.4249234,564.95679)" id="g6" style="fill:#000000;stroke:none">
      <g id="g8">
        <path style="fill:#000000;fill-opacity:1" d="M 1412.6868,1338.2674 C 1419.4392,1349.0867 1435.9811,1347.7259 1463,1331 C 1485,1318 1514,1315.3245 1545.0649,1313.1947 C 1595.9455,1309.7064 1591.8835,1317.2729 1568,1341.3378 L 1539.2231,1367.1535 C 1539.2231,1367.1535 1549.8109,1361.0236 1567.3765,1377.259 C 1590.8909,1398.9927 1636,1499 1644,1571 C 1653,1644 1641,1655 1563,1646 C 1531,1642 1492.4676,1632.5973 1476.4676,1622.5973 C 1476.4676,1622.5973 1453.6165,1611.1622 1457.1165,1604.6622 C 1460.6165,1598.1622 1491,1595 1491,1595 C 1548,1586 1563.6107,1567.1431 1563.6107,1546.1431 C 1563.6107,1524.1431 1534,1470 1520,1470 C 1515,1470 1497,1484 1480,1500 C 1446,1533 1427.7023,1537.3245 1394.8054,1527.5457 C 1376.3322,1532.6085 1349.5156,1535.269 1327.8572,1547.7191 C 1322.5498,1550.77 1325.922,1555.0586 1315.4159,1568.2596 C 1296.431,1592.1143 1282,1590 1262,1585 C 1237,1579 1236,1579 1255,1593 C 1274,1607 1273,1609 1231,1664 L 1189,1721 L 1239,1696 C 1290,1670 1334,1663 1344,1679 C 1348,1684 1334,1697 1313,1707 C 1293,1717 1269,1740 1260,1757 C 1250,1775 1237,1796 1231,1804 C 1216,1821 1163.6722,1830.1533 1135.5364,1819.5122 C 1106.8486,1808.6623 1089.0627,1779.5011 1066.0526,1749.3554 C 1046.6258,1723.9044 1035.8035,1704.6961 1026.7188,1689.2341 C 1008.0217,1693.6518 976,1680 963,1668 C 941,1648 936,1647 893,1658 C 850,1670 845,1669 822,1648 C 809,1635 773,1590 742,1548 C 712,1505 684,1470 681,1469 C 678,1469 657,1467 635,1465 C 613,1463 583,1457 568,1451 C 544,1442 542,1438 549,1412 C 554,1397 576,1351 599,1311 L 640,1239 L 615,1179 C 601,1146 592,1115 595,1111 C 598,1106 627,1099 660,1095 L 720,1088 L 766,1019 C 809,954 816.67772,950.35991 832,958 C 837.15501,960.57043 862,978 895,994 C 928,1011 973,1036 995,1051 C 1026.1298,1071.5457 1057.6472,1078.5244 1074.3482,1072.1776 C 1084.472,1068.3304 1089.1514,1059.5866 1085,1046 C 1076.2706,1017.9412 1076.6692,1000.4811 1080.5857,982.27804 C 1087.4046,974.98882 1096.2,971.65881 1109,963 C 1153.1295,935.88248 1170,934 1171,963 L 1171,985 L 1182,962 C 1198,929 1224,938 1228,979 C 1231,1003 1225,1019 1209,1036 C 1197,1049 1190.753,1066.0239 1195.753,1066.0239 C 1205.753,1066.0239 1240,1020 1240,1008 C 1240,1004 1246,1000 1254,1000 C 1269,1000 1280,1021 1280,1050 C 1280,1061.0508 1309.8385,1067.2803 1337.6812,1077.1474 C 1345.1118,1079.7807 1345.0582,1083.5104 1352.168,1088.376 C 1365.6053,1085.5601 1361.1849,1085.3759 1371.2084,1086.0883 C 1386.1188,1087.148 1392.7665,1091.3474 1397,1098 C 1418,1132 1421,1175 1405,1213 C 1397,1233 1390,1274.5021 1391,1292.5021 C 1391,1292.5021 1391.9547,1304.3932 1396.3533,1316.1523 M 1280,1184 C 1280,1204 1276,1204 1240,1185 C 1223,1176 1210,1162 1210,1153 C 1210,1130 1239,1100 1261,1100 C 1271,1100 1319.1199,1090.9988 1332.2364,1090.8557 C 1331.9534,1087.0285 1326.4218,1083.6965 1322.7713,1082.5302 C 1307.6217,1077.6897 1282.8641,1080.3883 1274,1082 C 1258,1084 1256,1079 1257,1050 C 1259,1031 1257,1022 1253,1030 C 1250,1038 1236,1056 1221,1070 C 1205,1085 1194,1109 1192,1130 C 1187,1177 1167,1213 1127,1247 C 1085,1282 1069,1310 1077,1338 C 1081,1354 1090,1360 1109,1360 C 1143,1361 1207,1390 1248,1424 C 1302,1471 1284,1473 1220,1428 C 1167,1391 1152,1385 1092,1382 L 1025,1377 L 1058,1411 C 1075,1429 1090,1447 1090,1451 C 1090,1472 1182,1511 1251,1519 C 1349,1530 1354,1529 1360,1496 C 1367,1458 1389,1449 1383,1487 C 1379,1514 1379,1514 1394,1496 C 1403,1485 1410,1465 1410,1451 C 1410,1437 1413,1415 1416,1403 C 1421,1386 1416,1381 1390,1375 L 1357,1368 L 1364,1309 C 1367,1277 1377,1234 1385,1213 C 1400,1178 1397,1116 1380,1105 C 1376,1102 1351,1103 1326,1106 C 1285,1112 1280,1115 1280,1139 M 1205,1804 C 1214,1800 1230,1780 1240,1759 C 1251,1738 1270,1714 1282,1706 C 1294.2607,1697.2884 1326.0886,1684.8704 1324.2589,1683.1504 C 1320.4177,1679.5397 1262.5769,1697.6795 1226,1718 C 1198,1734 1169,1745 1162,1742 C 1154,1740 1131,1711 1109,1677 C 1065,1609 1057,1556 1089,1545 C 1108,1539 1248.985,1572.3629 1272,1576 C 1288.6514,1578.6314 1310,1562 1310,1550 C 1310,1546 1280,1540 1244,1537 C 1201,1533 1162,1522 1133,1505 C 1081,1476 1051,1474 1010,1495 C 969,1516 971,1538 1030,1656 C 1095,1789 1141,1828 1205,1804 z M 1200,1683 C 1243,1618 1243,1621 1213,1629 C 1169,1642 1134.5179,1662.3765 1126.235,1667.8585 C 1133.3885,1683.5995 1151,1720 1163,1720 C 1170,1720 1186,1703 1200,1683 z M 1010,1666 C 1010,1664 999,1638 985,1607 C 962,1558 956,1552 922,1546 C 902,1543 872,1540 855,1540 C 831,1540 808,1524 745,1462 C 701,1419 651,1374 634,1362 L 603,1341 L 585,1381 C 563,1430 569,1438 638,1444 C 695,1449 701,1453 747,1520 C 764,1545 795,1585 817,1609 C 851,1648 858,1652 877,1641 C 909,1624 945,1628 971,1650 C 993,1668 1010,1675 1010,1666 z M 1189,1617 L 1233,1603 L 1199,1586 C 1181,1577 1150,1567 1130,1564 C 1085,1557 1076,1571 1096,1618 C 1104.2545,1638.9537 1109.7935,1643.7507 1114.4239,1651.3664 C 1119.6269,1649.3732 1165,1625 1189,1617 z M 1634.4542,1595.6489 C 1636.4542,1560.6489 1622,1515 1602,1466 C 1571,1388 1540.1431,1357.6755 1522.1431,1389.6755 C 1511.7435,1407.8748 1487.5968,1444.2907 1447.2831,1477.3831 C 1444.2536,1479.8699 1440.3375,1483.8903 1431.7102,1485.8762 C 1419.1166,1488.775 1415.6266,1483.8262 1412.3511,1486.3511 C 1395.4676,1508.9485 1396,1519 1418,1520 C 1430,1520 1448,1511 1458,1499 C 1467,1488 1487,1472 1501,1465 C 1525,1452 1529,1453 1550,1475 C 1566,1492 1575.0715,1516.2174 1576.6622,1546.8569 C 1578.2271,1577 1567,1594 1516,1605 C 1501,1608 1471.3645,1607.6106 1475.3645,1610.6106 C 1484.3645,1619.6106 1571,1638 1600,1637 C 1623,1635 1633.5191,1637.3893 1634.4542,1595.6489 z M 1006,1476 C 1025,1467 1047,1460 1055,1460 C 1081,1460 1050,1423 1008,1404 C 987,1395 970,1384 970,1380 C 970,1376 990,1369 1015,1365 C 1055,1360 1060,1356 1055,1339 C 1045,1307 1067,1267 1116,1225 C 1155,1193 1160,1185 1148,1174 C 1138,1164 1123,1162 1090,1168 L 1045,1176 L 1048,1228 C 1051,1285 1036,1299 1026,1249 C 1011,1173 1020,1159 1091,1146 C 1111,1143 1137,1129 1149,1116 L 1171,1092 L 1142,1082 C 1125,1076 1108,1075 1104,1080 C 1083,1098 1033,1098 1005,1080 L 976,1061 L 936,1093 C 880,1136 873,1147 854,1207 C 840,1255 825,1278 815,1268 C 813,1266 820,1237 832,1202 C 851,1143 878,1107 935,1066 C 946,1058 953,1050 950,1047 C 943,1041 822,980 816,980 C 813,980 792,1009 769,1045 C 733,1101 723,1110 696,1111 C 679,1112 653,1115 638,1119 L 612,1125 L 636,1183 L 661,1241 L 639,1276 C 626,1298 621,1317 625,1328 C 632,1343 634,1342 639,1322 C 647,1291 663,1293 665,1325 C 665,1339 679,1363 694,1378 C 710,1393 720,1400 716,1393 C 709,1379 719,1350 731,1350 C 736,1350 740,1365 740,1383 C 740,1406 751,1427 780,1460 C 814,1499 819,1502 820,1483 C 820,1470 826,1460 833,1460 C 842,1460 845,1469 842,1489 L 838,1519 L 896,1522 C 942,1524 957,1521 963,1509 C 968,1500 987,1485 1006,1476 z M 1289.2517,1162.8373 C 1288.4694,1157.6398 1290.4299,1150.8814 1292.6386,1146.868 C 1302.8784,1128.261 1332.4892,1134.5504 1356,1161 C 1370,1176 1370,1180 1358,1185 C 1343.9281,1191.1564 1302.117,1185.4798 1295.4971,1178.7058 C 1291.5185,1174.6359 1290.0317,1168.0201 1289.2517,1162.8373 z M 1485,1421 C 1496,1407 1515,1380 1528,1362 C 1528,1362 1536.4123,1351.5676 1546.1155,1342.0646 C 1555.8187,1332.5616 1566.8128,1323.988 1566.8128,1323.988 C 1566.8128,1323.988 1550.7139,1323.2141 1516,1333 C 1436.2428,1355.4836 1431,1367 1437,1391 C 1442,1410 1444,1410 1470,1385 C 1484,1371 1500,1363 1503,1367 C 1514,1377 1460,1429 1444,1423 C 1430,1418 1417.4262,1455.4101 1420.9402,1472.5242 C 1421.8892,1477.1458 1426.5614,1477.2808 1432.7493,1474.6117 C 1445.1389,1469.2676 1462.4164,1449.2295 1485,1421 z M 1397,1353 C 1393,1350 1387,1350 1383,1353 C 1380,1357 1383,1360 1390,1360 C 1397,1360 1400,1357 1397,1353 z M 1260,1145 C 1260,1119 1246,1112 1235,1130 C 1226,1144 1236,1170 1250,1170 C 1255,1170 1260,1159 1260,1145 z M 1343.1947,1168.1298 C 1343.1947,1162.6298 1311.4518,1143.7327 1307.259,1155.482 C 1302.9472,1167.5647 1311.7742,1170.5802 1322.7271,1171.5973 C 1334.1947,1172.6622 1343.1947,1173.6298 1343.1947,1168.1298 z M 1170,1145 C 1170,1137 1166,1130 1161,1130 C 1148,1130 1139,1146 1147,1154 C 1158,1165 1170,1160 1170,1145 z " id="path10" sodipodi:nodetypes="ccsccscccscssccsscscccccccssccccccscccccccccsccsccccccccssssscscccsccsscscccccccccccccsccccscccccccccccsccscssccscccccsccccsccccccccccccccccccccsscccccscccccscscccccccccccccccccscccsccccccccccccssccsccccccsccscccscsccccsscccscccsccssccssc"/>
        <g id="g24">
          <path d="M 1312,1403 C 1327,1388 1343,1379 1346,1383 C 1356,1393 1320,1430 1301,1430 C 1290,1430 1293,1423 1312,1403 z " id="path26"/>
        </g>
        <g id="g28">
          <path d="M 1247,1365 C 1225,1344 1222,1335 1230,1320 C 1236,1309 1248,1300 1256,1300 C 1277,1300 1333,1357 1328,1373 C 1320,1396 1276,1392 1247,1365 z M 1310,1370 C 1310,1365 1303,1360 1295,1360 C 1287,1360 1276,1351 1270,1340 C 1264,1329 1254,1323 1248,1326 C 1241,1331 1246,1342 1264,1357 C 1293,1381 1310,1386 1310,1370 z " id="path30"/>
        </g>
        <path style="fill:#ffcfab;fill-opacity:1;fill-rule:evenodd;stroke:#000000;stroke-width:1.24000001;stroke-linecap:butt;stroke-linejoin:miter;stroke-miterlimit:4;stroke-dasharray:none;stroke-opacity:1" d="M 319.59749,230.14102 C 319.59749,230.14102 317.7728,232.09336 315.6818,233.56352 C 313.5908,235.03369 310.94205,236.02167 310.94205,236.02167 C 310.94205,236.02167 320.79862,248.76337 322.24119,247.11472 C 323.68376,245.46607 322.63872,242.63093 322.02047,238.92146 C 321.39575,235.1732 319.59749,230.14102 319.59749,230.14102 z " id="path2180" transform="matrix(3.653849,0,0,-3.653849,0,2013.2708)" sodipodi:nodetypes="czcszc"/>
      </g>
    </g>
    <g id="text3047" style="letter-spacing:0px;word-spacing:0px;" font-family="Sans" font-size="32.05479430999999800px" font-style="normal" line-height="125%" font-weight="normal" fill="#000000">
      <path id="path3233" d="m124.19,439.45c-13.659,0-24.324-3.3703-31.996-10.111s-11.508-16.32-11.508-28.737c-0.000009-9.1354,1.408-17.583,4.224-25.344,2.816-7.7606,6.907-14.523,12.273-20.289,5.3216-5.7206,11.852-10.2,19.59-13.437,7.7384-3.2372,16.441-4.8558,26.109-4.856,5.8093,0.0001,11.608,0.69856,17.395,2.0954,5.7872,1.397,11.696,3.6698,17.728,6.8183l-2.9934,15.034h-1.1974c-4.9226-4.612-10.277-7.949-16.065-10.011-5.7873-2.062-12.007-3.0931-18.659-3.0932-7.3173,0.00009-13.725,1.4414-19.224,4.3238-5.499,2.8826-10.133,6.7186-13.903,11.508-3.6808,4.7008-6.4636,10.178-8.3483,16.43-1.8848,6.2529-2.8271,12.55-2.8271,18.892-0.000023,9.5346,2.6053,16.896,7.8161,22.085,5.2107,5.1886,12.916,7.7828,23.116,7.7828,4.479,0.00001,8.6808-0.4102,12.606-1.2306,3.9246-0.8204,7.6165-1.8736,11.076-3.1597l5.5877-25.344h-26.408l2.5278-11.109h39.646l-9.845,42.506c-2.927,1.1974-5.5656,2.2728-7.9159,3.2262-2.3504,0.95345-5.2995,1.9402-8.8472,2.9601-3.06,0.88693-6.2197,1.6186-9.4791,2.1952-3.2595,0.5765-6.7518,0.86475-10.477,0.86475z"/>
      <path id="path3235" d="m226.56,439.32c-12.55,0-22.395-3.2484-29.535-9.7452-7.1398-6.4968-10.71-15.71-10.71-27.639-0.00001-9.1354,1.3747-17.65,4.1242-25.544,2.7495-7.8936,6.6963-14.812,11.841-20.754,5.0998-5.8537,11.375-10.477,18.825-13.869,7.4502-3.3924,15.765-5.0887,24.945-5.0888,5.7206,0.0001,11.131,0.69856,16.231,2.0954,5.0998,1.397,10.333,3.6033,15.699,6.6187l-2.9934,14.9h-0.9978c-1.4635-1.4634-2.9381-2.827-4.4236-4.091-1.4857-1.2638-3.7141-2.6496-6.6853-4.1575-2.4391-1.286-5.3438-2.3614-8.7141-3.2262-3.3704-0.86467-7.0955-1.297-11.175-1.2971-6.2086,0.00009-11.907,1.2972-17.096,3.8914-5.1886,2.5944-9.6898,6.2197-13.504,10.876-3.7252,4.5234-6.652,10.022-8.7806,16.497-2.1287,6.4747-3.193,13.371-3.193,20.688-0.00002,9.1354,2.3725,16.242,7.1176,21.32,4.745,5.0777,11.597,7.6165,20.555,7.6165,4.2129,0.00001,8.2152-0.47672,12.007-1.4302,3.7916-0.95344,7.2395-2.1619,10.344-3.6253,2.8825-1.3747,5.4767-2.816,7.7828-4.3238,2.3059-1.5078,4.2794-2.9047,5.9203-4.1908h0.93128l-3.1264,15.3c-4.6565,2.3504-10.011,4.4679-16.065,6.3527-6.0534,1.8847-12.495,2.8271-19.324,2.8271z"/>
      <path id="path3237" d="m321.82,439.32c-12.55,0-22.395-3.2484-29.535-9.7452-7.1398-6.4968-10.71-15.71-10.71-27.639-0.00001-9.1354,1.3747-17.65,4.1242-25.544,2.7495-7.8936,6.6963-14.812,11.841-20.754,5.0998-5.8537,11.375-10.477,18.825-13.869,7.4502-3.3924,15.765-5.0887,24.945-5.0888,5.7206,0.0001,11.131,0.69856,16.231,2.0954,5.0998,1.397,10.333,3.6033,15.699,6.6187l-2.9934,14.9h-0.9978c-1.4635-1.4634-2.9381-2.827-4.4236-4.091-1.4857-1.2638-3.7141-2.6496-6.6852-4.1575-2.4392-1.286-5.3439-2.3614-8.7141-3.2262-3.3704-0.86467-7.0955-1.297-11.175-1.2971-6.2086,0.00009-11.907,1.2972-17.096,3.8914-5.1886,2.5944-9.6898,6.2197-13.504,10.876-3.7251,4.5234-6.652,10.022-8.7806,16.497-2.1287,6.4747-3.193,13.371-3.193,20.688-0.00002,9.1354,2.3725,16.242,7.1176,21.32,4.745,5.0777,11.597,7.6165,20.555,7.6165,4.2129,0.00001,8.2152-0.47672,12.007-1.4302,3.7916-0.95344,7.2395-2.1619,10.344-3.6253,2.8825-1.3747,5.4767-2.816,7.7828-4.3238,2.3059-1.5078,4.2794-2.9047,5.9203-4.1908h0.93128l-3.1264,15.3c-4.6565,2.3504-10.011,4.4679-16.065,6.3527-6.0534,1.8847-12.495,2.8271-19.324,2.8271z"/>
    </g>
    <path style="fill:#ffffff;fill-opacity:1;fill-rule:evenodd;stroke:#000000;stroke-width:1.04141939px;stroke-linecap:butt;stroke-linejoin:miter;stroke-opacity:1" d="M 355.07511,229.87612 C 354.16456,225.81661 343.16215,233.36654 343.0104,237.76754 C 342.85865,242.1685 353.70571,250.72131 354.54397,246.87297 C 355.37863,243.04111 355.97897,233.90582 355.07511,229.87612 z " id="path4122" sodipodi:nodetypes="czzz"/>
  </g>
</svg>