<svg xmlns="http://www.w3.org/2000/svg" width="584" height="688.75" viewBox="0 0 468 551"><g style="display:inline"><path d="M314.593 51.488 294.312 82.5l96.148 111.602c4.512-18.463 7.814 1.677 11.502 9.483 9.878 22.334 11.416 47.222 14.496 71.119 5.83 45.229 3.909 71.702-.24 96.382-13.444 79.975-61.135 126.653-106.685 153.529-15.58 9.193-30.577 15.62-52.573 18.622-22.665 3.092-44.872 1.868-67.625-2.565-18.785-3.66-37.678-9.829-55.027-17.78-27.663-12.677-50.497-34.62-68.37-58.691-17.29-23.288-28.196-51.076-36.48-78.922-15.066-50.65-21.436-104.589-9.418-156.694 7.49-32.479 18.292-64.643 33.064-94.3 15.676-31.471 37.71-59.974 64.381-83.609 16.017-14.193 33.428-27.271 53.03-35.166 14.378-5.79 29.598-7.096 45.31-6.06 15.537 1.025 30.366 2.765 45.167 8.029 20.14 7.162 39.12 18.366 53.6 34.01z" style="fill:#ffcfab;fill-opacity:1;fill-rule:evenodd;stroke:#000;stroke-width:4.32739726;stroke-linecap:butt;stroke-linejoin:miter;stroke-miterlimit:4;stroke-dasharray:none;stroke-opacity:1;display:inline"/><path d="m165.41 186.372-11.16-28.33 12.019-6.009 24.038-3.435 44.64-54.941 24.895 3.434 16.311-8.585 12.019-2.576-18.886 41.207-36.914 4.292z" style="fill:#f39105;fill-opacity:1;fill-rule:evenodd;stroke:#000;stroke-width:1.04141939px;stroke-linecap:butt;stroke-linejoin:miter;stroke-opacity:1"/><path d="m325.944 71.336 19.746 24.896 5.15 8.585-37.773-12.877 4.293-12.019z" style="fill:#ffcfab;fill-opacity:1;fill-rule:evenodd;stroke:#000;stroke-width:1.04141939px;stroke-linecap:butt;stroke-linejoin:miter;stroke-opacity:1;display:inline"/><path d="m311.35 90.223 18.887 10.301 19.744 6.01-26.612 14.594-19.744-1.718-1.718-13.735z" style="fill:#f39a05;fill-opacity:1;fill-rule:evenodd;stroke:#000;stroke-width:1.04141939px;stroke-linecap:butt;stroke-linejoin:miter;stroke-opacity:1;display:inline"/><path d="m166.269 188.088 13.736 22.32-13.736 35.198 32.622 6.01 6.867 6.867 20.604 31.763 65.244-34.339 19.422 5.366 20.926-6.224-14.594-15.452 2.575-4.293 6.868-4.292 3.434 11.16 6.01 13.735 16.31 19.746 4.292-2.576.859-12.877 15.16-2.67 5.35-4.157 13.393-1.623 3.44-16.875-9.872-40.777v-17.17l15.453-2.575 13.735 10.301 19.744 5.151 7.727-1.717L418.66 158.9l-14.248-14.587-8.073-5.157-15.453-10.302-31.763 1.716-24.895 6.01-21.463 10.302-12.876-1.717-16.311-7.726-5.151-7.727-33.48-.858z" style="fill:#ab9a7e;fill-opacity:1;fill-rule:evenodd;stroke:#000;stroke-width:1.04141939px;stroke-linecap:butt;stroke-linejoin:miter;stroke-opacity:1;display:inline"/><path d="m326.803 230.153 4.292 11.16-2.575 6.868-12.877-7.726 3.434-6.01z" style="fill:#fff;fill-opacity:1;fill-rule:evenodd;stroke:#000;stroke-width:1.04141939px;stroke-linecap:butt;stroke-linejoin:miter;stroke-opacity:1;display:inline"/><path d="m346.548 183.796 13.735-12.019 7.726-.858 2.576 4.292-12.018 12.877-6.868 2.575zM371.392 124.258l-42.013 10.605-27.472 11.16-24.037-6.867-8.584-10.302 22.32-50.65 20.913-25.9 13.7-5.425 15.178 2.996 15.724 23.078L373.6 83.989l-1.898 3.338-24.296-8.264-21.462-9.444-20.603 31.763-4.292 11.161 3.434 10.302 55.8-9.444 5.958 4.952zM387.755 130.57l9.835 12.59 6.206.175 22.94 25.516 5.706 6.92 10.255-6.57 12.018-26.612 6.668-21.158.91-17.724-5.505-6.616h-19.242l-14.594 3.433s-12.018 6.01-8.585 6.01c3.434 0 19.744 5.15 19.744 5.15l6.869 5.151 1.717 7.726-9.444 18.886-4.291 4.293-19.746-12.877-6.009-4.293-6.01-.858z" style="fill:#fff;fill-opacity:1;fill-rule:evenodd;stroke:#000;stroke-width:1.04141939px;stroke-linecap:butt;stroke-linejoin:miter;stroke-opacity:1"/><path d="M379.736 230.938c-.266-1.972-13.507 0-13.507 0s-2.314 7.892 1.063 7.892 12.71-5.919 12.444-7.892z" style="fill:#fff;fill-opacity:1;fill-rule:evenodd;stroke:#9e0000;stroke-width:1.04141939px;stroke-linecap:butt;stroke-linejoin:miter;stroke-opacity:1"/></g><g style="display:inline"><g style="fill:#000;stroke:none"><path d="M1412.687 1338.267c6.752 10.82 23.294 9.459 50.313-7.267 22-13 51-15.676 82.065-17.805 50.88-3.489 46.818 4.078 22.935 28.143l-28.777 25.815s10.588-6.13 28.154 10.106C1590.89 1398.993 1636 1499 1644 1571c9 73-3 84-81 75-32-4-70.532-13.403-86.532-23.403 0 0-22.851-11.435-19.351-17.935S1491 1595 1491 1595c57-9 72.61-27.857 72.61-48.857 0-22-29.61-76.143-43.61-76.143-5 0-23 14-40 30-34 33-52.298 37.324-85.195 27.546-18.473 5.063-45.29 7.723-66.948 20.173-5.307 3.051-1.935 7.34-12.441 20.54C1296.43 1592.115 1282 1590 1262 1585c-25-6-26-6-7 8s18 16-24 71l-42 57 50-25c51-26 95-33 105-17 4 5-10 18-31 28-20 10-44 33-53 50-10 18-23 39-29 47-15 17-67.328 26.153-95.464 15.512-28.687-10.85-46.473-40.01-69.483-70.157-19.427-25.45-30.25-44.659-39.334-60.12C1008.022 1693.651 976 1680 963 1668c-22-20-27-21-70-10-43 12-48 11-71-10-13-13-49-58-80-100-30-43-58-78-61-79-3 0-24-2-46-4s-52-8-67-14c-24-9-26-13-19-39 5-15 27-61 50-101l41-72-25-60c-14-33-23-64-20-68 3-5 32-12 65-16l60-7 46-69c43-65 50.678-68.64 66-61 5.155 2.57 30 20 63 36 33 17 78 42 100 57 31.13 20.546 62.647 27.524 79.348 21.178 10.124-3.848 14.803-12.591 10.652-26.178-8.73-28.059-8.33-45.519-4.414-63.722 6.819-7.29 15.614-10.62 28.414-19.278 44.13-27.118 61-29 62 0v22l11-23c16-33 42-24 46 17 3 24-3 40-19 57-12 13-18.247 30.024-13.247 30.024 10 0 44.247-46.024 44.247-58.024 0-4 6-8 14-8 15 0 26 21 26 50 0 11.05 29.839 17.28 57.681 27.147 7.43 2.634 7.377 6.363 14.487 11.229 13.437-2.816 9.017-3 19.04-2.288 14.91 1.06 21.558 5.26 25.792 11.912 21 34 24 77 8 115-8 20-15 61.502-14 79.502 0 0 .955 11.891 5.353 23.65M1280 1184c0 20-4 20-40 1-17-9-30-23-30-32 0-23 29-53 51-53 10 0 58.12-9.001 71.236-9.144-.283-3.828-5.814-7.16-9.465-8.326-15.15-4.84-39.907-2.142-48.771-.53-16 2-18-3-17-32 2-19 0-28-4-20-3 8-17 26-32 40-16 15-27 39-29 60-5 47-25 83-65 117-42 35-58 63-50 91 4 16 13 22 32 22 34 1 98 30 139 64 54 47 36 49-28 4-53-37-68-43-128-46l-67-5 33 34c17 18 32 36 32 40 0 21 92 60 161 68 98 11 103 10 109-23 7-38 29-47 23-9-4 27-4 27 11 9 9-11 16-31 16-45s3-36 6-48c5-17 0-22-26-28l-33-7 7-59c3-32 13-75 21-96 15-35 12-97-5-108-4-3-29-2-54 1-41 6-46 9-46 33m-75 665c9-4 25-24 35-45 11-21 30-45 42-53 12.26-8.712 44.089-21.13 42.259-22.85-3.841-3.61-61.682 14.53-98.259 34.85-28 16-57 27-64 24-8-2-31-31-53-65-44-68-52-121-20-132 19-6 159.985 27.363 183 31 16.651 2.631 38-14 38-26 0-4-30-10-66-13-43-4-82-15-111-32-52-29-82-31-123-10s-39 43 20 161c65 133 111 172 175 148m-5-121c43-65 43-62 13-54-44 13-78.482 33.377-86.765 38.859C1133.389 1683.599 1151 1720 1163 1720c7 0 23-17 37-37m-190-17c0-2-11-28-25-59-23-49-29-55-63-61-20-3-50-6-67-6-24 0-47-16-110-78-44-43-94-88-111-100l-31-21-18 40c-22 49-16 57 53 63 57 5 63 9 109 76 17 25 48 65 70 89 34 39 41 43 60 32 32-17 68-13 94 9 22 18 39 25 39 16m179-49 44-14-34-17c-18-9-49-19-69-22-45-7-54 7-34 54 8.255 20.954 13.793 25.75 18.424 33.366C1119.627 1649.373 1165 1625 1189 1617m445.454-21.351c2-35-12.454-80.649-32.454-129.649-31-78-61.857-108.324-79.857-76.324-10.4 18.199-34.546 54.615-74.86 87.707-3.03 2.487-6.945 6.507-15.573 8.493-12.593 2.899-16.083-2.05-19.359.475C1395.468 1508.948 1396 1519 1418 1520c12 0 30-9 40-21 9-11 29-27 43-34 24-13 28-12 49 10 16 17 25.072 41.217 26.662 71.857C1578.227 1577 1567 1594 1516 1605c-15 3-44.636 2.61-40.636 5.61 9 9 95.636 27.39 124.636 26.39 23-2 33.52.39 34.454-41.351M1006 1476c19-9 41-16 49-16 26 0-5-37-47-56-21-9-38-20-38-24s20-11 45-15c40-5 45-9 40-26-10-32 12-72 61-114 39-32 44-40 32-51-10-10-25-12-58-6l-45 8 3 52c3 57-12 71-22 21-15-76-6-90 65-103 20-3 46-17 58-30l22-24-29-10c-17-6-34-7-38-2-21 18-71 18-99 0l-29-19-40 32c-56 43-63 54-82 114-14 48-29 71-39 61-2-2 5-31 17-66 19-59 46-95 103-136 11-8 18-16 15-19-7-6-128-67-134-67-3 0-24 29-47 65-36 56-46 65-73 66-17 1-43 4-58 8l-26 6 24 58 25 58-22 35c-13 22-18 41-14 52 7 15 9 14 14-6 8-31 24-29 26 3 0 14 14 38 29 53 16 15 26 22 22 15-7-14 3-43 15-43 5 0 9 15 9 33 0 23 11 44 40 77 34 39 39 42 40 23 0-13 6-23 13-23 9 0 12 9 9 29l-4 30 58 3c46 2 61-1 67-13 5-9 24-24 43-33m283.252-313.163c-.783-5.197 1.178-11.956 3.387-15.969 10.24-18.607 39.85-12.318 63.361 14.132 14 15 14 19 2 24-14.072 6.156-55.883.48-62.503-6.294-3.979-4.07-5.465-10.686-6.245-15.869M1485 1421c11-14 30-41 43-59 0 0 8.412-10.432 18.116-19.935s20.697-18.077 20.697-18.077-16.1-.774-50.813 9.012c-79.757 22.484-85 34-79 58 5 19 7 19 33-6 14-14 30-22 33-18 11 10-43 62-59 56-14-5-26.574 32.41-23.06 49.524.95 4.622 5.621 4.757 11.81 2.088 12.389-5.344 29.666-25.383 52.25-53.612m-88-68c-4-3-10-3-14 0-3 4 0 7 7 7s10-3 7-7m-137-208c0-26-14-33-25-15-9 14 1 40 15 40 5 0 10-11 10-25m83.195 23.13c0-5.5-31.743-24.397-35.936-12.648-4.312 12.083 4.515 15.098 15.468 16.115 11.468 1.065 20.468 2.033 20.468-3.467M1170 1145c0-8-4-15-9-15-13 0-22 16-14 24 11 11 23 6 23-9" style="fill:#000;fill-opacity:1" transform="matrix(.28502 0 0 -.28502 -5.425 564.957)"/><path d="M368.521 165.074c4.275 4.275 8.836 6.84 9.69 5.7 2.85-2.85-7.41-13.396-12.825-13.396-3.135 0-2.28 1.996 3.135 7.696M349.995 175.905c-6.27 5.985-7.126 8.55-4.846 12.826 1.71 3.135 5.13 5.7 7.41 5.7 5.986 0 21.947-16.246 20.522-20.806-2.28-6.556-14.82-5.416-23.086 2.28m17.956-1.425c0 1.425-1.995 2.85-4.275 2.85s-5.416 2.565-7.126 5.7-4.56 4.846-6.27 3.99c-1.995-1.425-.57-4.56 4.56-8.835 8.266-6.84 13.111-8.266 13.111-3.705"/><path d="M319.597 230.141s-1.824 1.952-3.915 3.423c-2.091 1.47-4.74 2.458-4.74 2.458s9.857 12.741 11.3 11.093c1.442-1.649.397-4.484-.222-8.194-.624-3.748-2.423-8.78-2.423-8.78z" style="fill:#ffcfab;fill-opacity:1;fill-rule:evenodd;stroke:#000;stroke-width:1.24000001;stroke-linecap:butt;stroke-linejoin:miter;stroke-miterlimit:4;stroke-dasharray:none;stroke-opacity:1" transform="translate(-5.425 -8.865)scale(1.04142)"/></g><g font-family="Sans" font-size="32.055" style="letter-spacing:0;word-spacing:0"><path d="M124.19 439.45q-20.488 0-31.996-10.111c-11.508-10.111-11.508-16.32-11.508-28.737q0-13.702 4.224-25.344 4.224-11.64 12.273-20.289 7.983-8.58 19.59-13.437t26.109-4.856q8.715 0 17.395 2.095t17.728 6.819l-2.993 15.034h-1.198q-7.383-6.919-16.065-10.011-8.68-3.093-18.659-3.094-10.976 0-19.224 4.324-8.248 4.325-13.903 11.508-5.52 7.052-8.348 16.43-2.827 9.38-2.827 18.892 0 14.302 7.816 22.085t23.116 7.783q6.718 0 12.606-1.23 5.887-1.23 11.076-3.16l5.588-25.344h-26.408l2.527-11.11h39.646l-9.845 42.507a2927 2927 0 0 1-7.915 3.226q-3.526 1.43-8.848 2.96a91 91 0 0 1-9.479 2.195q-4.89.865-10.477.865zM226.56 439.32q-18.825 0-29.535-9.745t-10.71-27.64q0-13.703 4.124-25.543 4.125-11.841 11.841-20.754 7.65-8.78 18.825-13.87 11.175-5.088 24.945-5.088 8.58 0 16.231 2.095 7.65 2.096 15.7 6.62l-2.994 14.9h-.998a75 75 0 0 0-4.424-4.092q-2.228-1.896-6.685-4.157-3.659-1.93-8.714-3.227t-11.175-1.297q-9.313 0-17.096 3.892t-13.504 10.876q-5.588 6.784-8.78 16.497-3.195 9.711-3.194 20.688 0 13.703 7.118 21.32 7.118 7.616 20.555 7.616 6.32 0 12.007-1.43 5.688-1.43 10.344-3.625 4.324-2.062 7.783-4.324t5.92-4.19h.931l-3.126 15.3q-6.985 3.525-16.065 6.352t-19.324 2.827zM321.82 439.32q-18.825 0-29.535-9.745t-10.71-27.64q0-13.703 4.124-25.543t11.841-20.754q7.65-8.78 18.825-13.87 11.175-5.088 24.945-5.088 8.58 0 16.231 2.095 7.65 2.096 15.7 6.62l-2.994 14.9h-.998a75 75 0 0 0-4.424-4.092q-2.228-1.896-6.685-4.157-3.659-1.93-8.714-3.227t-11.175-1.297q-9.313 0-17.096 3.892t-13.504 10.876q-5.588 6.784-8.78 16.497-3.195 9.711-3.194 20.688 0 13.703 7.118 21.32 7.118 7.616 20.555 7.616 6.32 0 12.007-1.43 5.688-1.43 10.344-3.625 4.324-2.062 7.783-4.324t5.92-4.19h.931l-3.126 15.3q-6.983 3.525-16.065 6.352-9.08 2.827-19.324 2.827z"/></g><path d="M355.075 229.876c-.91-4.06-11.913 3.49-12.065 7.892-.151 4.4 10.696 12.953 11.534 9.105.835-3.832 1.435-12.967.531-16.997z" style="fill:#fff;fill-opacity:1;fill-rule:evenodd;stroke:#000;stroke-width:1.04141939px;stroke-linecap:butt;stroke-linejoin:miter;stroke-opacity:1"/></g></svg>