<svg xmlns="http://www.w3.org/2000/svg" xmlns:xlink="http://www.w3.org/1999/xlink" width="535.15" height="464.15" viewBox="0 0 501.704 435.14"><defs><linearGradient id="d"><stop offset="0" style="stop-color:#699ad7;stop-opacity:1"/><stop offset=".243" style="stop-color:#7eb1dd;stop-opacity:1"/><stop offset="1" style="stop-color:#7ebae4;stop-opacity:1"/></linearGradient><linearGradient id="c"><stop offset="0" style="stop-color:#415e9a;stop-opacity:1"/><stop offset=".232" style="stop-color:#4a6baf;stop-opacity:1"/><stop offset="1" style="stop-color:#5277c3;stop-opacity:1"/></linearGradient><linearGradient id="a"><stop offset="0" style="stop-color:#637ddf;stop-opacity:1"/><stop offset=".232" style="stop-color:#649afa;stop-opacity:1"/><stop offset="1" style="stop-color:#719efa;stop-opacity:1"/></linearGradient><linearGradient xlink:href="#d" id="g" x1="200.597" x2="290.087" y1="351.411" y2="506.188" gradientTransform="translate(70.65 -1055.151)" gradientUnits="userSpaceOnUse"/><linearGradient xlink:href="#c" id="i" x1="-584.199" x2="-496.297" y1="782.336" y2="937.714" gradientTransform="translate(864.696 -1491.34)" gradientUnits="userSpaceOnUse"/></defs><g style="display:inline"><path d="M309.404-710.252 431.6-498.577l-56.157.527-32.623-56.87-32.857 56.566-27.902-.011-14.29-24.69 46.81-80.49-33.23-57.826z" style="color:#000;clip-rule:nonzero;display:inline;overflow:visible;visibility:visible;opacity:1;isolation:auto;mix-blend-mode:normal;color-interpolation:sRGB;color-interpolation-filters:linearRGB;solid-color:#000;solid-opacity:1;fill:#5277c3;fill-opacity:1;fill-rule:evenodd;stroke:none;stroke-width:3;stroke-linecap:butt;stroke-linejoin:round;stroke-miterlimit:4;stroke-dasharray:none;stroke-dashoffset:0;stroke-opacity:1;color-rendering:auto;image-rendering:auto;shape-rendering:auto;text-rendering:auto" transform="translate(-156.339 933.19)"/><path d="M353.51-797.443 231.291-585.78l-28.535-48.37 32.938-56.688-65.415-.172-13.941-24.17 14.236-24.72 93.112.293 33.464-57.69zM362.885-628.243l244.415.012-27.623 48.897-65.562-.182 32.56 56.737-13.962 24.159-28.527.032-46.301-80.784-66.693-.136zM505.143-720.989 382.946-932.664l56.157-.527 32.624 56.87 32.856-56.566 27.903.011 14.29 24.69-46.81 80.49 33.23 57.826z" style="color:#000;clip-rule:nonzero;display:inline;overflow:visible;visibility:visible;opacity:1;isolation:auto;mix-blend-mode:normal;color-interpolation:sRGB;color-interpolation-filters:linearRGB;solid-color:#000;solid-opacity:1;fill:#7ebae4;fill-opacity:1;fill-rule:evenodd;stroke:none;stroke-width:3;stroke-linecap:butt;stroke-linejoin:round;stroke-miterlimit:4;stroke-dasharray:none;stroke-dashoffset:0;stroke-opacity:1;color-rendering:auto;image-rendering:auto;shape-rendering:auto;text-rendering:auto" transform="translate(-156.339 933.19)"/><path d="M309.404-710.252 431.6-498.577l-56.157.527-32.623-56.87-32.857 56.566-27.902-.011-14.29-24.69 46.81-80.49-33.23-57.826zM451.336-803.533l-244.414-.012 27.622-48.896 65.562.181-32.558-56.737 13.96-24.158 28.528-.032 46.301 80.784 66.693.135zM460.872-633.842l122.217-211.664 28.535 48.37-32.938 56.688 65.415.172 13.941 24.17-14.236 24.72-93.112-.293-33.464 57.69z" style="color:#000;clip-rule:nonzero;display:inline;overflow:visible;visibility:visible;opacity:1;isolation:auto;mix-blend-mode:normal;color-interpolation:sRGB;color-interpolation-filters:linearRGB;solid-color:#000;solid-opacity:1;fill:#5277c3;fill-opacity:1;fill-rule:evenodd;stroke:none;stroke-width:3;stroke-linecap:butt;stroke-linejoin:round;stroke-miterlimit:4;stroke-dasharray:none;stroke-dashoffset:0;stroke-opacity:1;color-rendering:auto;image-rendering:auto;shape-rendering:auto;text-rendering:auto" transform="translate(-156.339 933.19)"/></g><g style="display:inline;opacity:1" transform="translate(-156.339 933.19)"><path id="h" d="m309.549-710.388 122.197 211.675-56.157.527-32.624-56.87-32.856 56.566-27.903-.011-14.29-24.69 46.81-80.49-33.23-57.826z" style="opacity:1;fill:url(#g);fill-opacity:1;fill-rule:evenodd;stroke:none;stroke-width:3;stroke-linecap:butt;stroke-linejoin:round;stroke-miterlimit:4;stroke-dasharray:none;stroke-opacity:1"/><use xlink:href="#h" width="100%" height="100%" transform="rotate(60 407.112 -715.787)"/><use xlink:href="#h" width="100%" height="100%" transform="rotate(-60 407.312 -715.7)"/><use xlink:href="#h" width="100%" height="100%" transform="rotate(180 407.419 -715.756)"/><path id="j" d="m309.549-710.388 122.197 211.675-56.157.527-32.624-56.87-32.856 56.566-27.903-.011-14.29-24.69 46.81-80.49-33.23-57.826z" style="color:#000;clip-rule:nonzero;display:inline;overflow:visible;visibility:visible;opacity:1;isolation:auto;mix-blend-mode:normal;color-interpolation:sRGB;color-interpolation-filters:linearRGB;solid-color:#000;solid-opacity:1;fill:url(#i);fill-opacity:1;fill-rule:evenodd;stroke:none;stroke-width:3;stroke-linecap:butt;stroke-linejoin:round;stroke-miterlimit:4;stroke-dasharray:none;stroke-dashoffset:0;stroke-opacity:1;color-rendering:auto;image-rendering:auto;shape-rendering:auto;text-rendering:auto"/><use xlink:href="#j" width="100%" height="100%" style="display:inline" transform="rotate(120 407.34 -716.084)"/><use xlink:href="#j" width="100%" height="100%" style="display:inline" transform="rotate(-120 407.288 -715.87)"/></g></svg>