<?xml version="1.0" encoding="UTF-8" standalone="no"?>
<!-- Created with Inkscape (http://www.inkscape.org/) -->

<svg
   xmlns:dc="http://purl.org/dc/elements/1.1/"
   xmlns:cc="http://creativecommons.org/ns#"
   xmlns:rdf="http://www.w3.org/1999/02/22-rdf-syntax-ns#"
   xmlns:svg="http://www.w3.org/2000/svg"
   xmlns="http://www.w3.org/2000/svg"
   xmlns:sodipodi="http://sodipodi.sourceforge.net/DTD/sodipodi-0.dtd"
   xmlns:inkscape="http://www.inkscape.org/namespaces/inkscape"
   width="2464.7444"
   height="1970.7235"
   id="svg2"
   version="1.1"
   inkscape:version="0.48.4 r9939"
   sodipodi:docname="Galloping.svg">
  <defs
     id="defs4">
    <filter
       inkscape:collect="always"
       id="filter4275"
       x="-0.051658433"
       width="1.1033169"
       y="-0.43313608"
       height="1.8662722"
       color-interpolation-filters="sRGB">
      <feGaussianBlur
         inkscape:collect="always"
         stdDeviation="18.769231"
         id="feGaussianBlur4277" />
    </filter>
  </defs>
  <sodipodi:namedview
     id="base"
     pagecolor="#ffffff"
     bordercolor="#666666"
     borderopacity="1.0"
     inkscape:pageopacity="0.0"
     inkscape:pageshadow="2"
     inkscape:zoom="0.1767767"
     inkscape:cx="1332.1051"
     inkscape:cy="829.74875"
     inkscape:document-units="px"
     inkscape:current-layer="layer3"
     showgrid="false"
     showborder="false"
     inkscape:object-paths="false"
     inkscape:snap-nodes="true"
     showguides="true"
     inkscape:guide-bbox="true"
     inkscape:window-width="1855"
     inkscape:window-height="1056"
     inkscape:window-x="65"
     inkscape:window-y="24"
     inkscape:window-maximized="1"
     fit-margin-top="0"
     fit-margin-left="0"
     fit-margin-right="0"
     fit-margin-bottom="0" />
  <metadata
     id="metadata7">
    <rdf:RDF>
      <cc:Work
         rdf:about="">
        <dc:format>image/svg+xml</dc:format>
        <dc:type
           rdf:resource="http://purl.org/dc/dcmitype/StillImage" />
        <dc:title></dc:title>
      </cc:Work>
    </rdf:RDF>
  </metadata>
  <g
     inkscape:groupmode="layer"
     id="layer9"
     inkscape:label="Shadow"
     transform="translate(457.79567,289.3152)">
    <path
       sodipodi:type="arc"
       style="fill:#e9e9e9;fill-opacity:1;stroke:none;filter:url(#filter4275)"
       id="path4253"
       sodipodi:cx="956"
       sodipodi:cy="1616.3622"
       sodipodi:rx="436"
       sodipodi:ry="52"
       d="m 1392,1616.3622 c 0,28.7188 -195.2038,52 -436,52 -240.79615,0 -436,-23.2812 -436,-52 0,-28.7188 195.20385,-52 436,-52 240.7962,0 436,23.2812 436,52 z"
       transform="translate(0,-32)" />
  </g>
  <g
     inkscape:groupmode="layer"
     id="layer5"
     inkscape:label="Hair"
     style="display:inline"
     transform="translate(457.79567,289.3152)">
    <path
       inkscape:connector-curvature="0"
       id="path4004"
       d="m 326.46249,-114.99446 c 1.5245,-4.27536 4.9735,-11.43667 7.6644,-15.91402 2.691,-4.47735 4.779,-8.21021 4.64,-8.29525 -3.7745,-2.30984 -21.6313,-16.37385 -26.9899,-21.25725 -12.5125,-11.40292 -17.7659,-19.53142 -17.759,-27.47798 0,-5.34485 2.6049,-9.74184 8.2132,-13.88842 7.1066,-5.25441 27.4492,-14.45173 41.7831,-18.89103 7.425,-2.29957 14.175,-4.41998 15,-4.71203 2.0052,-0.70984 -3.3653,-2.95438 -12.9098,-5.39544 -6.1433,-1.57121 -11.079,-1.8952 -28.8718,-1.8952 -14.3639,0 -24.9655,-0.52026 -32.056,-1.57309 -10.2826,-1.52682 -31.9589,-6.65404 -34.7611,-8.22223 -0.8227,-0.46037 17.1865,-5.18136 44.3569,-11.62793 36.5515,-8.67235 48.5546,-11.93678 59.7418,-16.2476 l 14,-5.39472 -9.5,0.5431 c -5.5176,0.31544 -15.1876,-0.0694 -23.0677,-0.91797 -27.124,-2.92093 -48.6973,-3.8079 -79.692,-3.27649 -26.3708,0.45214 -32.1466,0.83193 -40.6343,2.67195 -47.6492,10.32974 -82.8789,34.85738 -91.1329,63.44856 -2.433,8.42766 -1.6718,27.5348 1.4578,36.59642 6.2385,18.06285 20.6983,32.46957 40.0979,39.95085 14.1896,5.47208 19.098,6.14461 51.4712,7.05232 30.346,0.85088 40.2266,1.9035 57,6.07242 11.9129,2.96089 30.9392,9.55013 40,13.8529 4.4,2.08947 8.2647,3.52285 8.5882,3.18528 0.3235,-0.33758 1.8355,-4.11179 3.36,-8.38715 z"
       style="fill:#ffb400;fill-opacity:1;display:inline" />
    <path
       style="fill:#ffb400;fill-opacity:1;display:inline"
       d="m 1869.5143,380.86242 c 9.9592,-2.9827 25.049,-9.8861 38.7581,-17.7312 13.99,-8.0058 25.3498,-19.6179 45.8348,-46.8523 9.8875,-13.1453 37.0417,-53.19872 36.4602,-53.78019 -0.1866,-0.18666 -7.1349,3.06405 -15.4405,7.22379 -50.133,25.1083 -85.802,35.4335 -109.1126,31.5852 -29.5394,-4.8767 -69.141,-26.4457 -116.4644,-63.43234 -17.0699,-13.3414 -24.438,-18.16067 -38.3105,-25.05808 -34.2679,-17.03799 -73.2054,-24.6962 -101.9017,-20.04201 -29.358,4.76151 -57.3089,24.59214 -88.8024,63.00363 -9.7326,11.8705 -18.521,23.875 -18.521,25.2988 0,0.5607 3.441,4.1395 7.6466,7.9528 l 7.6466,6.9333 12.1034,-7.7284 c 35.9184,-22.93509 66.8225,-37.75061 82.4278,-39.51615 8.1966,-0.92734 19.218,1.61192 26.8021,6.17505 9.9312,5.97533 10.3906,6.35504 63.3735,52.3809 20.0643,17.4296 43.1358,36.5463 52.1724,43.2292 16.8251,12.4428 34.8475,22.3225 50.3276,27.5892 15.7191,5.348 21.307,6.1684 39.5,5.7992 14.4308,-0.2929 17.6287,-0.6729 25.5,-3.0304 z"
       id="path3956"
       inkscape:connector-curvature="0" />
    <path
       style="fill:#ffb400;fill-opacity:1;display:inline"
       d="m 553.01429,103.24676 c 12.3048,-1.54754 30.0594,-4.591331 49.5,-8.486141 23.0748,-4.62291 37.3597,-5.88885 58,-5.13999 9.35,0.33923 18.7479,0.9198 20.8842,1.29015 2.6318,0.45626 3.7603,0.32118 3.5,-0.41892 -0.7166,-2.03743 -19.33,-18.37774 -30.3842,-26.67377 -16.6816,-12.51924 -38.1402,-24.85655 -57.5,-33.05874 -3.575,-1.51462 -8.075,-3.43558 -10,-4.2688 l -3.5,-1.51494 14.6172,-2.2895 c 19.0491,-2.98366 35.7348,-6.73985 49.3828,-11.11676 10.9281,-3.50462 35.0615,-13.45191 36.7622,-15.15258 0.5182,-0.51827 -1.9564,-1.1669 -5.9368,-1.55613 -44.1321,-4.3155 -76.8028,-13.3187 -112.2132,-30.92308 l -12.3879,-6.15864 3.8879,-0.68473 c 2.1383,-0.3766 8.6128,-1.44146 14.3878,-2.36636 21.4376,-3.43335 42.9139,-11.06487 68.5,-24.34119 14.8864,-7.72436 42.9667,-24.01779 42.3313,-24.56242 -0.1822,-0.15618 -6.0955,0.52692 -13.1406,1.51799 -26.8862,3.78219 -55.6126,4.85581 -77.6763,2.90308 -8.8408,-0.78245 -13.7915,-1.83931 -21.5,-4.58976 -43.819,-15.635019 -54.8541,-18.101209 -76.3139,-17.055039 -17.3981,0.84815 -28.1011,3.33822 -47.8474,11.13168 -9.2692,3.658369 -17.648,6.965499 -18.6196,7.349169 -1.427,0.56348 -0.4035,1.73665 5.3242,6.1029 3.8999,2.97293 11.1259,9.44046 16.0578,14.3723 21.6113,21.61132 35.8903,45.03694 47.3753,77.72238 10.6051,30.18126 21.1197,56.46451 33.6204,84.04075 l 7.284,16.068271 3.5524,-0.53608 c 1.9538,-0.29485 7.3774,-1.01714 12.0524,-1.6051 z"
       id="path3950"
       inkscape:connector-curvature="0" />
    <path
       style="fill:#de9d00;fill-opacity:1;display:inline"
       d="m 1826.8283,383.26802 c -26.2143,-4.155 -53.5855,-17.805 -82.814,-41.2995 -9.1574,-7.3609 -38.3275,-32.2576 -80.9175,-69.0632 -6.9204,-5.9805 -14.8265,-12.39305 -17.5692,-14.25004 -5.9592,-4.03487 -5.1143,-4.17736 5.1851,-0.87442 4.9186,1.57739 10.708,4.49223 15.6666,7.88789 11.4403,7.83427 37.8048,28.44667 56.0018,43.78357 30.0948,25.3646 47.4682,37.2955 68.7355,47.2031 31.9858,14.9009 57.7098,20.2742 77.684,16.2269 14.5774,-2.9537 30.6717,-9.173 48.7137,-18.8243 l 7,-3.7446 -4.7143,4.2554 c -5.4453,4.9153 -26.4895,16.6699 -38.4205,21.4604 -13.5457,5.4389 -22.553,7.3638 -36.3652,7.7713 -6.875,0.2028 -15.0587,-0.037 -18.186,-0.5325 z"
       id="path4112"
       inkscape:connector-curvature="0" />
    <path
       style="fill:#8c8c8c;fill-opacity:1;display:inline"
       d="m 1514.4193,293.02892 -1.905,-2.25 2.25,1.905 c 2.1144,1.7902 2.7052,2.595 1.905,2.595 -0.1898,0 -1.2023,-1.0125 -2.25,-2.25 z"
       id="path4104"
       inkscape:connector-curvature="0" />
    <path
       style="fill:#8c8c8c;fill-opacity:1;display:inline"
       d="m 1529.0143,245.90136 c 0,-0.20765 0.7875,-0.99515 1.75,-1.75 1.5861,-1.24387 1.6214,-1.2085 0.3776,0.37756 -1.3064,1.66575 -2.1276,2.19548 -2.1276,1.37244 z"
       id="path4102"
       inkscape:connector-curvature="0" />
    <path
       style="fill:#8c8c8c;fill-opacity:1;display:inline"
       d="m 1551.0143,223.90136 c 0,-0.20765 0.7875,-0.99515 1.75,-1.75 1.5861,-1.24387 1.6214,-1.2085 0.3776,0.37756 -1.3064,1.66575 -2.1276,2.19548 -2.1276,1.37244 z"
       id="path4100"
       inkscape:connector-curvature="0" />
    <path
       style="fill:#de9d00;fill-opacity:1;display:inline"
       d="m 637.51339,63.599989 c -21.4623,-13.68662 -45.6572,-24.14417 -72.4991,-31.33567 -20.196,-5.41093 -44.543,-13.2757 -43.7018,-14.11691 0.1903,-0.19034 11.3386,1.19648 24.7739,3.08181 19.88352,2.241097 37.30343,5.174721 43.1681,2.95197 1.2429,0.80369 4.7348,2.41376 7.7598,3.57792 8.8923,3.42217 38,18.1603 38,19.24056 0,0.54529 1.2799,2.6312 2.8443,4.63535 3.2851,4.20863 11.4989,18.13403 10.994,18.63889 -0.1871,0.18713 -5.2898,-2.81613 -11.3392,-6.67392 z"
       id="path4086"
       inkscape:connector-curvature="0"
       sodipodi:nodetypes="sscccssscs" />
    <path
       style="fill:#de9d00;fill-opacity:1;display:inline"
       d="m 620.21119,4.309979 c -13.9135,-3.15022 -24.7234,-8.34629 -45.1969,-21.72521 -22.2376,-14.53166 -33.3183,-20.7369 -47.5,-26.60006 -7.15,-2.95604 -11.7852,-5.10876 -10.3005,-4.78382 1.4848,0.32494 8.0098,1.75437 14.5,3.17651 6.4903,1.42214 15.2397,2.65677 19.4432,2.74361 4.2034,0.0869 7.4955,0.40467 7.3156,0.70625 -0.5517,0.92487 16.3208,9.47546 30.0748,15.24127 19.183,8.04168 36.5163,13.37887 54.766,16.86332 20.4736,3.90905 19.6496,3.65948 17.4448,5.28321 -0.9659,0.71131 -6.4337,3.1564 -12.1507,5.43353 -12.0781,4.8108 -19.2408,5.73434 -28.3963,3.66139 z"
       id="path4078"
       inkscape:connector-curvature="0" />
    <path
       style="fill:#de9d00;fill-opacity:1;display:inline"
       d="m 221.20029,-217.40777 c 3.8215,-6.91427 13.54243,-16.67017 20.19475,-20.45737 3.86477,-2.15997 7.67401,-4.61834 10.3423,-5.27748 1.8318,1.48021 20.78555,6.2791 33.27695,8.60078 7.3287,1.36212 14.6426,1.75855 32,1.73446 18.2733,-0.0254 20.9032,0.1293 14,0.82328 -17.1288,1.72195 -27.6333,3.90156 -41.9061,8.69523 -20.9719,7.04359 -39.3949,10.06779 -61.3316,10.06779 l -8.8903,0 z"
       id="path4056"
       inkscape:connector-curvature="0"
       sodipodi:nodetypes="sccssssscs" />
  </g>
  <g
     inkscape:groupmode="layer"
     id="layer2"
     inkscape:label="Snout"
     style="display:inline"
     transform="translate(457.79567,289.3152)">
    <path
       style="fill:#806330;fill-opacity:1"
       d="m -155.05037,645.76696 c -24.34749,-5.41245 -47.35731,-15.60256 -77.65015,-34.38807 -66.11575,-41.00023 -140.06213,-107.99501 -161.48652,-146.30546 -9.44266,-16.88502 -16.8243,-40.09376 -20.46317,-64.33842 -2.30932,-15.38626 -2.62875,-53.92067 -0.58241,-70.25845 l 1.37763,-10.9989 -11.22631,-15.05492 c -13.00024,-17.43399 -22.95393,-32.45539 -28.29428,-42.69989 -3.12265,-5.99024 -3.85039,-8.58391 -4.30017,-15.32578 -1.2892,-19.32431 7.96313,-49.52342 20.65813,-67.42701 10.75473,-15.16727 20.4778,-19.87142 41.07246,-19.87142 23.47307,0 42.93881,8.85414 79.06988,35.96553 9.53532,7.15495 17.71363,13.24179 18.17403,13.52633 0.46039,0.28454 5.84356,0.0879 11.9626,-0.43711 23.92597,-2.05262 47.22875,-3.25297 79.06979,-4.07296 25.79183,-0.66421 34.57458,-1.2351 39.33615,-2.55691 7.83443,-2.17483 25.0969,-10.45672 31.54307,-15.13321 l 4.97839,-3.61166 5.43919,4.43028 c 7.16314,5.83445 18.5137,12.40458 25.7697,14.91647 3.208346,1.11065 12.500077,3.87352 20.64828,6.1397 47.800517,13.29423 73.6952409,23.86715 97.574094,39.8399 16.96696,11.34933 30.144265,23.98496 40.66827,38.99655 12.395179,17.68053 16.590456,29.12694 25.886356,70.6276 16.40604,73.24361 20.85347,96.03376 22.34968,114.52614 1.64783,20.36591 -6.02599,34.25597 -35.774956,64.75436 -19.987568,20.49107 -38.686034,34.56892 -73.0528559,55.00063 -30.3050421,18.01698 -73.8184091,38.12337 -101.1501081,46.73891 -19.97495,6.29664 -41.6062,9.23868 -51.59677,7.01777 z"
       id="path3916"
       inkscape:connector-curvature="0" />
    <path
       style="fill:#70572a;fill-opacity:1;stroke:none;display:inline"
       d="m -319,546.36218 c 122.76529,83.93363 181.59887,103.96361 336,31 -43.278287,31.44404 -94.169358,56.79785 -164,67 -68.75108,-16.3556 -121.68735,-55.30379 -172,-98 z"
       id="path4250"
       inkscape:connector-curvature="0"
       sodipodi:nodetypes="cccc" />
    <path
       style="fill:#70572a;fill-opacity:1;stroke:none;display:inline"
       d="m -129.6149,330.47596 c 14.3404,-15.78191 28.836,-31.22984 55.154301,-21.2132 27.5262,27.5055 21.0622,46.51346 15.5563,65.76093 C -77.472497,332.2781 -111.7536,315.82907 -129.6149,330.47596 z"
       id="path4248"
       inkscape:connector-curvature="0"
       sodipodi:nodetypes="cccc" />
  </g>
  <g
     inkscape:groupmode="layer"
     id="layer8"
     inkscape:label="Hooves"
     style="display:inline"
     transform="translate(457.79567,289.3152)">
    <path
       style="fill:#989590;fill-opacity:1;display:inline"
       d="m 474.9286,1356.3156 c -0.85892,-0.8075 -8.28027,-7.4534 -16.49198,-14.7689 -20.60252,-18.3538 -51.2361,-48.905 -62.00271,-61.8358 -12.28055,-14.7491 -21.72475,-29.1691 -30.79505,-47.02 l -7.65736,-15.0701 -9.4939,10.4236 c -10.18582,11.1834 -29.22331,34.9011 -29.22331,36.4078 0,0.5031 6.83864,7.8095 15.19698,16.2364 33.50651,33.7811 68.76926,57.309 102.50069,68.3902 13.26723,4.3583 30.68478,8.4909 36.36696,8.6283 2.72031,0.066 2.94342,-0.1283 1.59968,-1.3915 z"
       id="path3984"
       inkscape:connector-curvature="0" />
    <path
       style="fill:#989590;fill-opacity:1;display:inline"
       d="m 1681.9596,1170.1038 c 29.739,-26.5072 49.7736,-59.5311 61.5291,-101.4222 3.6491,-13.0037 6.9486,-27.7954 6.339,-28.4169 -0.2395,-0.2442 -3.7875,3.5902 -7.8844,8.5206 -11.8238,14.2296 -48.1683,50.8033 -60.2268,60.6066 -17.6952,14.3858 -41.2297,29.959 -64.0533,42.3847 l -11.2704,6.136 2.4744,2.7327 c 7.5052,8.2878 26.2426,19.6671 43.1685,26.2164 l 5.3545,2.0718 7.8782,-5.4873 c 4.3329,-3.0179 11.8441,-9.022 16.6912,-13.3424 z"
       id="path3978"
       inkscape:connector-curvature="0" />
    <path
       style="fill:#989590;fill-opacity:1;display:inline"
       d="m 87.456415,998.70062 c -1.492722,-7.49186 -4.166656,-31.97896 -4.985511,-45.65643 -1.063168,-17.75538 2.070182,-43.75224 8.179344,-67.86385 1.205018,-4.75617 1.939152,-8.88711 1.631324,-9.1801 -1.020213,-0.97105 -22.93711,-1.49802 -31.295849,-0.75252 l -8.221433,0.73326 0,3.97307 c 0,5.45203 3.949175,40.57276 6.554511,58.29012 2.646885,18.0005 5.386281,28.20705 10.608857,39.52697 4.961164,10.7532 16.714555,27.81886 18.191262,26.41336 0.19887,-0.1893 -0.09954,-2.657 -0.662505,-5.48388 z"
       id="path3976"
       inkscape:connector-curvature="0" />
  </g>
  <g
     inkscape:groupmode="layer"
     id="layer4"
     inkscape:label="Body"
     style="display:inline"
     transform="translate(457.79567,289.3152)">
    <path
       style="fill:#fffef1;fill-opacity:1;display:inline"
       d="m 489.04839,1334.5641 c 8.0953,-13.5899 16.685,-32.4244 21.793,-47.7852 3.8727,-11.6459 5.0281,-16.4519 14.6656,-61 5.4586,-25.2318 8.4307,-35.76 9.9166,-35.1273 0.5999,0.2555 7.1657,3.1433 14.5907,6.4174 70.9047,31.2659 168.3904,57.7013 260.5,70.6405 79.6219,11.1849 163.4289,13.9973 240.50001,8.0705 99.8895,-7.6814 192.3967,-29.0646 285.5,-65.9937 83.6483,-33.1788 158.044,-75.1688 221.0896,-124.786 l 2.26,-1.7787 5.7336,9.7787 c 10.5932,18.0665 28.3954,44.0374 39.1122,57.059 1.0175,1.2364 3.0264,0.4883 13.5,-5.0278 36.5251,-19.2362 58.6933,-35.5609 87.8693,-64.707 17.1744,-17.1567 38.9353,-41.2754 38.9353,-43.1538 0,-1.1813 -12.5233,-8.2929 -26.376,-14.9781 -16.2159,-7.8257 -27.607,-11.3552 -62.7706,-19.4493 l -29.6466,-6.82406 3.7681,-5.0702 c 5.8557,-7.879 14.8418,-23.7985 20.313,-35.9861 32.3319,-72.02092 41.2273,-163.39302 25.7094,-264.08402 -3.2768,-21.262 -13.963,-78.7533 -19.9428,-107.2909 -30.6491,-146.2682 -64.6253,-211.6401 -151.0545,-290.6366 -32.0415,-29.28608 -40.7264,-35.7788 -60.3121,-45.08855 -48.6466,-23.12342 -122.8338,-24.47168 -218.2019,-3.96553 -58.9315,12.67153 -113.5951,28.83628 -227.98601,67.41858 -120.3582,40.595 -154.5652,49.063 -198.1927,49.063 -66.6435,0 -117.3655,-26.5105 -170.1998,-88.957 -12.1574,-14.36922 -44.8127,-57.56424 -54.9424,-72.6755 -13.2959,-19.8343 -25.7416,-45.19305 -40.7032,-82.93467 -4.7043,-11.86695 -11.0421,-27.281501 -14.0841,-34.254551 -8.2053,-18.80903 -13.8728,-32.81301 -20.5101,-50.67828 -11.0841,-29.83464 -14.0859,-36.97938 -20.587,-49 -11.6901,-21.61521 -21.4131,-35.42599 -34.723,-49.32162 -6.3864,-6.66749 -19.8464,-17.71157 -26.1324,-21.44192 -0.591,-0.35077 -5.316,0.73247 -10.5,2.40719 -5.1839,1.67472 -16.8337,5.02799 -25.8885,7.45172 -14.6392,3.91851 -16.6296,4.24045 -17.9643,2.9057 -2.5155,-2.51551 0.195,-3.83171 17.4275,-8.46257 47.4187,-12.74278 81.3767,-26.827279 119.4724,-49.552729 54.1389,-32.29577 87.3373,-61.03322 79.5285,-68.84201 -2.5415,-2.54147 -7.7034,-1.97222 -17.7638,1.95897 -12.8269,5.01221 -19.1112,6.14663 -43.7371,7.89521 -29.3125,2.08137 -77.041,8.20007 -102.4134,13.12922 -28.9741,5.62884 -43.3543,12.67101 -60.322,29.54042 -12.5718,12.49899 -23.7113,31.22172 -27.864,46.83242 -2.0849,7.837499 -3.5951,9.913389 -5.8504,8.041649 -0.8526,-0.7076 -1.5502,-2.06355 -1.5502,-3.01322 0,-3.772909 -30.3034,-15.662359 -52,-20.402069 -16.0236,-3.50041 -27.9059,-4.58781 -54.5,-4.9875 -12.65,-0.19013 -26.375,-0.92206 -30.5,-1.62653 -7.4767,-1.27688 -7.545,-1.26821 -22,2.79343 -7.975,2.24085 -19.4832,6.04875 -25.5737,8.46199 -11.1501,4.41797 -30.2343,14.13671 -34.4283,17.532759 l -2.2601,1.8301 3.5153,4.9347 c 4.4846,6.29551 9.5817,16.38882 11.8345,23.43469 0.9672,3.025 2.1306,5.40332 2.5854,5.28516 0.4548,-0.11816 3.6233,-1.36703 7.0411,-2.77527 24.2744,-10.00186 54.8214,-10.7048 82.7858,-1.90503 36.0164,11.33357 65.4308,40.21158 77.4257,76.01385 7.0595,21.07135 8.5322,46.8254 3.8316,67.00605 -5.6287,24.164801 -15.2387,41.706741 -32.2573,58.882031 -15.4328,15.57487 -30.5634,24.94177 -50.5,31.26296 -13.7672,4.36512 -22.7648,5.69735 -38,5.62649 -33.2617,-0.1547 -60.9086,-11.48989 -84.7576,-34.75043 C 61.22549,116.4372 49.92799,91.597039 46.44199,56.979369 l -0.584,-5.79956 -4.6718,0.79956 c -12.6685,2.16811 -34.41187,-0.43293 -46.3033,-5.53901 l -4.63139,-1.98869 -3.46913,3.66363 c -3.26958,3.45288 -111.79023,128.803361 -114.56376,132.330761 -1.11292,1.41544 -0.78241,2.14634 2.34333,5.18202 4.48462,4.35541 15.515,11.10079 23.28407,14.23886 3.19915,1.29219 14.10826,4.64814 24.24246,7.45767 34.55141,9.57875 51.88151,15.8177 72.19971,25.99236 42.05771,21.06107 70.23751,51.65315 81.65771,88.64805 2.533,8.2054 17.3188,73.4773 23.6865,104.5639 0.9858,4.8125 2.1271,8.75 2.5362,8.75 0.4092,0 1.9579,-1.5917 3.4418,-3.537 3.9551,-5.1856 16.6416,-15.054 24.3305,-18.926 14.2691,-7.1858 27.1079,-8.8257 58.8926,-7.5223 29.5642,1.2123 34.5267,2.9955 66.6808,23.9601 23.1522,15.0953 30.5432,19.0771 44,23.7038 10.9755,3.7736 11.0368,3.7821 27.5,3.8017 15.0021,0.018 17.3979,-0.2312 26.391,-2.7441 47.0334,-13.1424 83.7078,-46.6674 96.7986,-88.4862 1.7148,-5.4778 2.71,-7.25 4.0714,-7.25 2.8656,0 3.0907,2.4846 0.8822,9.7361 -6.1283,20.1219 -21.6106,43.5119 -38.6759,58.4301 -18.4944,16.1674 -42.8644,28.5805 -66.8964,34.0743 -6.841,1.5639 -12.3896,2.0647 -22.5709,2.0371 -24.3922,-0.066 -40.0758,-6.0601 -74,-28.2819 -20.2223,-13.2464 -31.2757,-19.0707 -40.5,-21.3403 -6.4504,-1.5872 -23.5,-2.7484 -23.5,-1.6006 0,0.383 1.091,3.1633 2.4244,6.1784 6.8558,15.5021 10.6526,34.2555 10.6833,52.7668 0.041,24.9607 -4.9897,43.8012 -17.6819,66.2176 -27.0853,47.8365 -39.0538,90.8418 -44.8855,161.2824 -4.188,50.5871 -4.0912,66.7861 0.5737,96 5.0184,31.4277 15.8459,69.916 27.4904,97.7199 1.3176,3.1459 2.3956,5.8939 2.3956,6.1066 0,0.2128 -11.8125,-3.3137 -26.25,-7.8365 -25.0514,-7.8479 -34.8561,-10.5749 -42.8627,-11.9215 l -3.6128,-0.6076 -1.6135,5.7695 c -2.548,9.1105 -5.5308,24.4939 -7.1615,36.9335 -2.6309,20.069 -1.8006,41.67342 2.8374,73.83612 2.5294,17.53986 0.4584,16.32976 18.5684,10.84996 34.4878,-10.43526 65.6466,-24.71776 80.7341,-37.00666 3.0424,-2.4781 5.6505,-4.3566 5.7957,-4.1745 0.1453,0.1822 2.6698,3.9312 5.6101,8.3312 21.8036,32.62816 68.0198,87.72856 89.4548,106.65096 26.8695,23.7197 71.142,48.2046 129,71.3435 9.35,3.7393 19.925,7.7999 23.5,9.0235 l 6.5,2.2248 -6,1.7658 c -15.1854,4.469 -35.4946,15.2878 -53.2976,28.3916 -10.7643,7.9231 -29.2024,23.9793 -29.2024,25.43 0,0.5444 2.6493,6.4303 5.8873,13.0798 6.4826,13.3123 17.1079,30.0132 26.4601,41.59 12.3919,15.3394 46.4773,48.6063 74.1526,72.3718 l 9,7.7285 2.5829,-3.0623 c 1.4207,-1.6842 5.4487,-7.873 8.9512,-13.7528 z"
       id="path3982"
       inkscape:connector-curvature="0" />
    <path
       style="fill:#dbdacf;fill-opacity:1;stroke:none"
       d="m 156.2706,865.33244 c 280.70944,394.17556 1125.333,477.88336 1492.1461,100.92567 l -15.3696,27.05295 73.916,20.73864 c -45.598,22.9936 -99.0682,73.8817 -108.9018,130.9434 l -38.8908,-57.2756 c -355.2519,251.5296 -719.47331,225.5117 -1023.89067,106.7731 l -16.97056,72.832 c -17.10638,-51.9544 -56.86715,-81.2543 -127.27922,-79.903 l 50.91169,-27.5772 c -96.78863,-25.97 -183.24582,-94.7963 -247.07316,-191.33303 -20.12445,20.96143 -47.03655,28.34757 -75.06245,33.50613 25.07217,-32.86081 17.95569,-89.03919 -3.92031,-122.23762 l 48.87006,13.48528 z"
       id="path4229"
       inkscape:connector-curvature="0"
       sodipodi:nodetypes="ccccccccccccccc" />
    <path
       style="fill:#333333;fill-opacity:1;display:inline"
       d="m 372.02179,-96.212001 c -1.9033,-2.29338 -0.3898,-9.474629 3.7394,-17.742119 2.618,-5.24167 5.9056,-9.54568 11.7962,-15.44323 16.5121,-16.53165 33.7961,-24.90386 71.9569,-34.85527 25.1017,-6.54592 36.2135,-10.45209 61.1222,-21.48652 12.3729,-5.48115 13.8645,-5.92379 15.2599,-4.52845 1.3575,1.35754 1.3675,1.72193 0.082,2.98212 -2.1314,2.08963 -33.7022,15.71673 -45.9643,19.8398 -5.775,1.94183 -19.95,6.08459 -31.5,9.20614 -24.857,6.71793 -38.1357,11.7034 -49.017,18.40323 -11.6892,7.1973 -27.985,22.75914 -24.9319,23.80887 0.5219,0.17944 3.4239,1.74841 6.4489,3.48661 l 5.5,3.16036 -3.3427,1.37038 c -3.0908,1.26713 -3.6694,1.17894 -7.6781,-1.17031 -2.3844,-1.39738 -4.5438,-2.54069 -4.7987,-2.54069 -1.0051,0 -3.6805,8.22871 -3.6805,11.32024 0,3.021379 -1.4404,5.679759 -3.0776,5.679759 -0.3726,0 -1.2343,-0.67091 -1.9149,-1.49092 z"
       id="path3980"
       inkscape:connector-curvature="0" />
    <path
       style="fill:#dbdacf;fill-opacity:1;stroke:none"
       d="m 188.74018,521.60876 c 28.79548,-33.9998 74.52427,-67.19631 129.97971,-62.53917 -20.64918,1.58186 -41.29835,-11.91717 -61.94753,-26.00761 -21.51813,-15.47581 -47.27021,-24.60069 -76.78771,-28.07744 22.95157,35.85164 20.38144,83.43238 8.75553,116.62422 z"
       id="path4231"
       inkscape:connector-curvature="0"
       sodipodi:nodetypes="ccccc" />
    <path
       style="fill:#dbdacf;fill-opacity:1;stroke:none;display:inline"
       d="m 188.0904,-127.26871 c 29.92906,14.78483 31.10218,40.458859 67.06119,26.08973 28.08177,-11.56752 37.35442,-8.70405 60.21803,-3.99264 -19.56443,-8.37732 -40.33851,-15.87488 -65.05382,-20.5061 -21.35134,-2.78426 -44.13224,-2.53036 -62.2254,-1.59099 z"
       id="path4233"
       inkscape:connector-curvature="0"
       sodipodi:nodetypes="ccccc" />
    <path
       style="fill:#dbdacf;fill-opacity:1;stroke:none"
       d="m 368.04908,-77.948008 c 47.61166,3.712406 71.53087,19.27104 99.3485,32.880465 l -45.96194,-48.083261 z"
       id="path4238"
       inkscape:connector-curvature="0"
       sodipodi:nodetypes="cccc" />
    <path
       style="fill:#e8e8e8;fill-opacity:1;stroke:none"
       d="M 87.681241,138.78022 C 180.35534,181.6724 283.79438,137.07862 282.84271,11.501 c 14.63663,55.80679 2.21668,101.99347 -43.13351,136.47161 -64.07938,34.91216 -111.87518,23.6875 -152.027959,-9.19239 z"
       id="path4246"
       inkscape:connector-curvature="0"
       sodipodi:nodetypes="cccc" />
    <path
       style="fill:#000000;fill-opacity:1;display:inline"
       d="m 407.5,-289.3125 c -1.53796,0.0404 -6.81145,1.05905 -12.71875,2.5 -24.6785,6.01978 -40.914,7.20584 -63.4375,4.625 -28.716,-3.29041 -72.5383,-4.42931 -96.9375,-2.53125 -44.4552,3.45826 -89.4032,25.33506 -106.8125,52 -8.3777,12.83176 -11.267,23.98781 -10.25,39.46875 1.7246,26.2553 15.26595,46.15287 39.78125,58.46875 l 9.59375,4.8125 -11.03125,3.15625 c -18.2176,5.20331 -38.00725,13.80751 -53.28125,23.15625 l -6.59375,4.03125 -5.15625,-4.84375 c -29.2438,-27.52907 -74.30042,-31.668 -109.75,-10.0625 -11.22459,6.84105 -24.89757,20.67478 -30.78125,31.125 -23.45888,41.66622 -10.68347,95.58874 28.78125,121.375 l 5.96875,3.90625 -58,66.9375 c -31.89676,36.82656 -60.19405,69.28026 -62.875,72.125 -8.33346,8.84255 -24.25855,17.08719 -38.3125,19.8125 -4.6789,0.90733 -17.81082,1.56672 -37.6875,1.90625 -26.11972,0.44618 -68.32418,2.61532 -78.59375,4.03125 -2.68791,0.37059 -4.76819,-0.82694 -15,-8.625 -16.36491,-12.47231 -37.02313,-26.07418 -46.8125,-30.8125 -11.39401,-5.51502 -21.86509,-8.05141 -35.59375,-8.65625 -12.89886,-0.56828 -22.94982,1.04183 -30.625,4.875 -5.99775,2.99542 -17.12881,14.82979 -22.375,23.8125 -5.03612,8.62304 -11.17457,24.58162 -14.15625,36.71875 -1.59361,6.48687 -2.19,12.06631 -2.25,21.34375 l -0.0937,12.5625 4.25,8.59375 c 4.87594,9.8453 17.08121,28.4453 29.65625,45.1875 l 8.6875,11.53125 -1.2813,8.78125 c -1.9674,13.5497 -1.65089,55.04735 0.53125,69.28125 3.67357,23.9623 9.61658,43.2832 18.78125,61.125 9.03754,17.5942 23.13629,34.9538 49.0625,60.4375 63.15299,62.075 141.023,113.1019 187.71875,123 9.45095,2.0033 23.57424,1.79715 35,-0.53125 47.38221,-9.6559 127.3954,-49.8126 174.25,-87.4375 10.945,-8.7889 30.3446,-28.5998 40.8125,-41.6875 7.6629,-9.5807 13.55995,-20.74825 15.59375,-29.46875 1.7651,-7.5685 1.51945,-15.78375 -1.09375,-33.84375 l -1.4375,-9.875 4.6875,-5.5 c 9.9061,-11.5952 24.22195,-21.23345 36.78125,-24.71875 3.8133,-1.0582 11.76865,-1.86635 21.78125,-2.21875 l 15.75,-0.5625 3.4375,7.5 c 9.911,21.4511 13.8044,49.3666 10.0625,72.4375 -2.7977,17.2502 -6.67575,27.12615 -20.28125,51.84375 -22.5906,41.0409 -34.502,84.43875 -40.1875,146.34375 -5.737,62.4654 -5.22645,83.86235 2.90625,123.96875 3.8517,18.9949 9.714,40.2298 16.5625,59.9375 3.009,8.6586 5.46875,16.01965 5.46875,16.34375 0.003,0.324 -10.0125,-2.484 -22.25,-6.25 -24.8363,-7.6431 -31.9946,-9.32435 -46.9375,-10.96875 -11.1752,-1.2297 -41.4991,-0.59465 -43,0.90625 -1.5117,1.5117 4.10655,55.25965 8.21875,78.71875 3.8849,22.16182 12.64645,40.72229 27.28125,57.78125 6.2952,7.338 7.7244,8.1227 11.375,6.2187 1.5618,-0.8146 3.33415,-1.4998 3.96875,-1.5 2.8055,-0.015 32.48295,-9.4618 43.78125,-13.93745 19.8293,-7.8553 39.06405,-17.8172 48.71875,-25.25 l 3.65625,-2.8125 10.625,14.84375 c 32.814,45.7829 72.2465,89.7101 97.25,108.3438 25.8701,19.2788 69.6861,42.2163 114.3125,59.8124 7.425,2.9284 13.8707,5.6178 14.3125,6 0.4417,0.3827 -4.2833,3.2021 -10.5,6.25 -11.5712,5.6735 -27.6305,15.7904 -38.3125,24.1563 -21.9481,17.1893 -53.0731,50.0192 -66.25,69.8437 l -2.5,3.75 2.875,4.25 c 4.7605,6.9964 24.984,26.5551 39.375,38.0938 37.2467,29.8644 66.8077,43.9552 105.5,50.2188 4.4,0.7116 10.4803,1.1887 13.5,1.0937 l 5.5,-0.1563 6.75,-10 c 8.1892,-12.1065 21.1517,-37.9639 26.625,-53.0937 4.7671,-13.178 7.5585,-23.82 13.5625,-52.0937 6.8717,-32.3607 9.8274,-44.3053 11,-44.2813 0.5892,0.012 3.0875,0.9272 5.5625,2.0625 28.933,13.2726 80.1551,31.3132 121.5,42.7812 103.2237,28.6341 212.1123,42.5526 319.5,40.8126 113.6116,-1.8415 208.6409,-18.1659 312,-53.5626 87.2811,-29.8892 180.8385,-78.3249 246.5,-127.625 7.15,-5.3676 13.5206,-9.8078 14.1562,-9.875 0.6359,-0.067 5.4118,6.625 10.5938,14.875 32.2444,51.3361 49.19,67.4703 84.5,80.4376 l 6.25,2.3124 5.5,-3.3437 c 22.3302,-13.5335 46.5237,-39.2133 61,-64.7813 12.4547,-21.9961 23.5702,-56.0355 27,-82.6562 l 0.625,-5.0312 -9.8125,-5.625 c -27.9596,-16.052 -41.6646,-21.2374 -78.3125,-29.7188 -14.575,-3.3732 -27.0385,-6.35185 -27.7188,-6.59375 -0.8134,-0.2894 0.7071,-3.60685 4.4376,-9.71875 34.2681,-56.14772 51.7128,-143.50685 46.2812,-231.78125 -2.2886,-37.1948 -6.634,-66.7388 -20.0938,-136.5 -30.408,-157.6073 -60.1804,-225.3902 -131.4374,-299.3125 -8.1667,-8.4718 -14.3404,-15.64585 -13.8438,-16.09375 1.5202,-1.3715 29.4161,-18.57545 37.875,-23.34375 12.3631,-6.9691 26.1079,-13.65526 36,-17.5625 8.127,-3.21003 9.9725,-3.571 19,-3.625 9.1866,-0.0549 10.5287,0.18058 16.5,3.03125 7.6843,3.66843 19.1961,12.48785 38.9062,29.84375 20.2772,17.8547 50.2998,43.54595 65.5938,56.09375 52.0953,42.7409 96.14,55.356 141,40.375 9.7582,-3.2588 30.068,-13.49905 40.5938,-20.46875 17.0964,-11.3217 49.5087,-52.82152 80.5937,-103.1875 3.6462,-5.90778 7.2702,-11.75075 8.0625,-12.96875 1.0454,-1.60698 -1.951,-0.27784 -10.9062,4.8125 -16.7376,9.51292 -43.3729,22.40375 -60.3438,29.21875 -36.175,14.5269 -56.5507,17.72675 -77.75,12.21875 -27.5385,-7.1552 -63.0516,-27.77672 -106.5,-61.84375 -19.2449,-15.08956 -32.5302,-22.86651 -53.25,-31.1875 -35.4951,-14.2547 -71.8833,-18.46913 -99.5,-11.53125 -18.8776,4.74244 -39.9518,18.44472 -61.5,40 -12.0964,12.10033 -29.657,32.9295 -36.2812,43.0625 -1.7684,2.7037 -3.5122,4.9275 -3.875,4.9375 -0.3637,0.01 -5.0888,-3.8079 -10.5,-8.5 -21.8234,-18.92172 -42.0028,-29.47208 -70.6563,-36.9375 -58.3781,-15.2099 -137.1759,-8.8033 -244.9063,19.90625 -44.8143,11.94294 -85.0296,24.43105 -163.2812,50.78125 -104.09195,35.0517 -140.1457,45.5195 -174,50.4375 -14.8051,2.1507 -50.0399,2.432 -62,0.5 -49.7792,-8.0414 -89.47,-31.56745 -129.375,-76.65625 -13.0625,-14.75938 -22.96285,-27.20373 -40.21875,-50.5 C 576.02085,191.33496 569.1898,180.51122 557.5,155.8125 551.2028,142.50762 539,113.43517 539,111.71875 c 0,-0.52283 8.95795,-2.19281 19.90625,-3.71875 10.9482,-1.52594 28.3857,-4.53026 38.75,-6.65625 10.3642,-2.125991 23.29315,-4.41125 28.71875,-5.09375 12.499,-1.57226 53.47835,-0.65169 65.59375,1.46875 4.6547,0.81466 8.60935,1.32814 8.78125,1.15625 C 700.9219,98.7031 696.1143,93.58066 690.0625,87.5 677.2474,74.62378 663.193,62.6521 650.5,53.78125 641.1012,47.21269 619.449,34.75724 610,30.46875 l -5.5,-2.5 3,-0.78125 c 1.65,-0.43234 9.525,-2.20693 17.5,-3.9375 21.799,-4.73037 39.0241,-10.83474 60.8125,-21.53125 10.6151,-5.21121 19.06285,-9.85692 18.78125,-10.3125 C 704.31225,-9.04933 697.869,-9.68467 690.25,-10.03125 650.1252,-11.85652 613.5143,-20.53159 577.5625,-36.75 l -4.96875,-2.25 12.96875,-3.28125 c 28.5437,-7.21697 53.0322,-18.19757 88.6875,-39.8125 13.326,-8.07851 36.03555,-23.68321 35.40625,-24.3125 -0.2298,-0.22977 -4.40375,0.69788 -9.28125,2.0625 -21.4481,6.000719 -42.94665,8.61961 -76.46875,9.3125 -34.0954,0.70474 -38.7698,0.117549 -60.3125,-7.65625 -37.0118,-13.35593 -52.14465,-16.28908 -73.09375,-14.21875 -4.95,0.48919 -9.11725,0.78235 -9.28125,0.65625 -0.164,-0.1261 4.336,-2.81035 10,-5.96875 13.7969,-7.69348 40.04905,-24.1775 51.96875,-32.625 29.8402,-21.14782 43.8125,-35.60869 43.8125,-45.3125 0,-4.34757 -1.80705,-6.94 -6.65625,-9.4375 -3.6306,-1.86988 -6.8907,-1.31175 -19.125,3.25 -14.0807,5.25025 -19.58785,6.25084 -41.71875,7.65625 -24.818,1.57606 -71.21855,7.39771 -99.59375,12.5 -33.8271,6.08262 -51.1622,14.48656 -69.375,33.625 l -8.46875,8.90625 -7.78125,-5.75 c -18.7067,-13.83338 -28.6834,-23.54904 -32.875,-32 -3.3282,-6.71005 -2.6522,-10.0591 2.9375,-14.84375 9.6019,-8.21883 39.07295,-19.98816 62.15625,-24.8125 L 377.46875,-223.375 373,-226 c -6.5183,-3.81686 -15.07085,-7.43329 -23.28125,-9.875 -6.3972,-1.90247 -9.87965,-2.17717 -31.21875,-2.3125 -17.8274,-0.11306 -26.9038,-0.61218 -35.3125,-1.96875 -6.226,-1.00446 -10.951,-2.15362 -10.5,-2.5625 0.4511,-0.40888 16.3375,-4.39717 35.3125,-8.875 33.3771,-7.8765 35.6003,-8.56413 68.125,-20.78125 29.385,-11.03777 33.553,-12.86324 33.125,-14.5 -0.2694,-1.02992 -0.87385,-2.11583 -1.34375,-2.40625 -0.0587,-0.0363 -0.18654,-0.0371 -0.40625,-0.0312 z m -140.03125,9.75 c 25.26413,-0.1463 44.73525,0.85044 68.46875,3.40625 7.8801,0.84857 17.5449,1.22169 23.0625,0.90625 l 9.5,-0.53125 -14,5.375 c -11.1872,4.31082 -23.16725,7.57765 -59.71875,16.25 -27.1704,6.44657 -45.1977,11.16463 -44.375,11.625 2.8022,1.56819 24.49865,6.72318 34.78125,8.25 7.0905,1.05283 17.66735,1.5625 32.03125,1.5625 17.7928,0 22.7317,0.33504 28.875,1.90625 9.5445,2.44106 14.91145,4.66516 12.90625,5.375 -0.825,0.29205 -7.575,2.41918 -15,4.71875 -14.3339,4.4393 -34.67465,13.65184 -41.78125,18.90625 -5.6083,4.14658 -8.1875,8.53015 -8.1875,13.875 -0.007,7.94656 5.2375,16.06583 17.75,27.46875 5.3586,4.8834 23.2255,18.94016 27,21.25 0.139,0.085 -1.96525,3.83515 -4.65625,8.3125 -2.6909,4.47735 -6.13175,11.63089 -7.65625,15.90625 -1.5245,4.27536 -3.0515,8.06867 -3.375,8.40625 -0.3235,0.33757 -4.19375,-1.09803 -8.59375,-3.1875 -9.0608,-4.30277 -28.0871,-10.91411 -40,-13.875 -16.7734,-4.16892 -26.654,-5.21162 -57,-6.0625 -32.3732,-0.90771 -37.27915,-1.59042 -51.46875,-7.0625 -19.3996,-7.48128 -33.85525,-21.87465 -40.09375,-39.9375 -3.1296,-9.06162 -3.8705,-28.16609 -1.4375,-36.59375 8.254,-28.59118 43.4758,-53.13901 91.125,-63.46875 8.4877,-1.84002 14.2542,-2.20411 40.625,-2.65625 3.87434,-0.0664 7.60959,-0.1041 11.21875,-0.125 z m 308.96875,74.9375 c 1.81018,0.0649 3.10944,0.60945 4.0625,1.5625 7.8088,7.80879 -25.3611,36.51673 -79.5,68.8125 -38.0957,22.72545 -72.0813,36.81972 -119.5,49.5625 -17.2325,4.63086 -19.92175,5.95324 -17.40625,8.46875 1.3347,1.33475 3.32955,1.01226 17.96875,-2.90625 9.0548,-2.42373 20.6911,-5.76278 25.875,-7.4375 5.184,-1.67472 9.909,-2.78827 10.5,-2.4375 6.286,3.73035 19.7386,14.80126 26.125,21.46875 13.3099,13.89563 23.02865,27.69729 34.71875,49.3125 6.5011,12.02062 9.50965,19.16536 20.59375,49 6.6373,17.86527 12.32595,31.87847 20.53125,50.6875 3.042,6.97305 9.3582,22.38305 14.0625,34.25 14.9616,37.74162 27.42285,63.1032 40.71875,82.9375 10.1297,15.11126 42.7801,58.28703 54.9375,72.65625 52.8343,62.4465 103.544,88.96875 170.1875,88.96875 43.6275,0 77.8293,-8.4675 198.1875,-49.0625 114.3909,-38.5823 169.0685,-54.73472 228,-67.40625 95.3681,-20.50615 169.5409,-19.18592 218.1875,3.9375 19.5857,9.30975 28.271,15.80767 60.3125,45.09375 86.4292,78.9965 120.4134,144.38805 151.0625,290.65625 5.9798,28.5376 16.6607,86.01925 19.9375,107.28125 15.5179,100.691 6.6444,192.07283 -25.6875,264.09375 -5.4712,12.1876 -14.4568,28.08975 -20.3125,35.96875 l -3.7812,5.0625 29.6562,6.84375 c 35.1636,8.0941 46.5341,11.6118 62.75,19.4375 13.8527,6.6852 26.375,13.7877 26.375,14.9687 0,1.8791 -21.7318,25.9996 -38.9062,43.1563 -29.1768,29.1461 -51.3506,45.4828 -87.875,64.7187 -10.4742,5.5167 -12.4831,6.2677 -13.5,5.0313 -10.7174,-13.0216 -28.5322,-38.996 -39.125,-57.0625 l -5.7188,-9.7812 -2.2812,1.7812 c -63.0462,49.6172 -137.4455,91.6029 -221.0938,124.7812 -93.1033,36.9298 -185.6105,58.319 -285.5,66 -77.07111,5.9275 -160.8781,3.1218 -240.5,-8.0624 -92.1096,-12.9398 -189.5953,-39.3904 -260.5,-70.6563 -7.425,-3.2741 -13.9626,-6.1503 -14.5625,-6.4063 -1.4859,-0.6322 -4.4789,9.8932 -9.9375,35.125 -9.6375,44.5485 -10.78355,49.3545 -14.65625,61 -5.108,15.3616 -13.68595,34.1914 -21.78125,47.7813 -3.5025,5.8798 -7.54805,12.0658 -8.96875,13.75 l -2.59375,3.0625 -9,-7.7188 c -27.6753,-23.7649 -61.7331,-57.0353 -74.125,-72.375 -9.3522,-11.5764 -19.98615,-28.2814 -26.46875,-41.5937 -3.238,-6.6495 -5.90625,-12.5502 -5.90625,-13.0937 0,-1.4511 18.45445,-17.4832 29.21875,-25.4063 17.803,-13.1038 38.09585,-23.9367 53.28125,-28.4063 l 6,-1.75 -6.5,-2.2187 c -3.575,-1.2236 -14.15,-5.2915 -23.5,-9.0313 -57.858,-23.1382 -102.1305,-47.624 -129,-71.3437 -21.435,-18.9224 -67.6339,-74.0281 -89.4375,-106.65625 -2.9403,-4.4 -5.4797,-8.16155 -5.625,-8.34375 -0.1452,-0.1821 -2.73885,1.7094 -5.78125,4.1875 -15.0875,12.2889 -46.2622,26.56474 -80.75,37 -18.11,5.4798 -16.0331,6.6961 -18.5625,-10.84375 C 86.70575,961.61855 85.8691,940.0065 88.5,919.9375 90.1307,907.4979 93.1395,892.1105 95.6875,883 l 1.59375,-5.75 3.625,0.59375 c 8.0066,1.3466 17.79235,4.0896 42.84375,11.9375 14.4375,4.5228 26.25,8.0253 26.25,7.8125 0,-0.2127 -1.0574,-2.94785 -2.375,-6.09375 -11.6445,-27.8039 -22.4816,-66.29105 -27.5,-97.71875 -4.6649,-29.2139 -4.7505,-45.4129 -0.5625,-96 C 145.3942,627.34065 157.3522,584.3365 184.4375,536.5 197.1297,514.0836 202.166,495.24195 202.125,470.28125 202.0943,451.76995 198.2933,433.0021 191.4375,417.5 190.1041,414.4849 189,411.72675 189,411.34375 c 0,-1.1478 17.0496,0.007 23.5,1.59375 9.2243,2.2696 20.2777,8.09735 40.5,21.34375 33.9242,22.2218 49.6078,28.21525 74,28.28125 10.1813,0.0276 15.75275,-0.46735 22.59375,-2.03125 24.032,-5.4938 48.3806,-17.92635 66.875,-34.09375 17.0653,-14.9182 32.5592,-38.3156 38.6875,-58.4375 2.2085,-7.2515 1.9906,-9.71875 -0.875,-9.71875 -1.3614,0 -2.3477,1.7722 -4.0625,7.25 -13.0908,41.8188 -49.7791,75.32635 -96.8125,88.46875 -8.9931,2.5129 -11.40415,2.768 -26.40625,2.75 -16.4632,-0.0196 -16.5245,-0.008 -27.5,-3.78125 -13.4568,-4.6267 -20.8478,-8.62345 -44,-23.71875 -32.1541,-20.9646 -37.09205,-22.75645 -66.65625,-23.96875 -31.7847,-1.3034 -44.63715,0.34545 -58.90625,7.53125 -7.6889,3.872 -20.3574,13.7519 -24.3125,18.9375 -1.4839,1.9453 -3.05955,3.53125 -3.46875,3.53125 -0.4091,0 -1.54545,-3.9375 -2.53125,-8.75 -6.3677,-31.0866 -21.1545,-96.3571 -23.6875,-104.5625 -11.4202,-36.9949 -39.59854,-67.59518 -81.65625,-88.65625 -20.3182,-10.17466 -37.63609,-16.42125 -72.1875,-26 -10.1342,-2.80953 -21.05085,-6.14531 -24.25,-7.4375 -7.76907,-3.13807 -18.79663,-9.89459 -23.28125,-14.25 -3.12574,-3.03568 -3.45667,-3.77206 -2.34375,-5.1875 2.77353,-3.5274 111.29292,-128.85962 114.5625,-132.3125 l 3.46875,-3.6875 4.625,2 c 11.89143,5.10608 33.644,7.69936 46.3125,5.53125 l 4.65625,-0.78125 0.59375,5.78125 c 3.486,34.61767 14.7813,59.48122 36.8125,80.96875 23.849,23.26054 51.4883,34.5953 84.75,34.75 15.2352,0.0709 24.2328,-1.25988 38,-5.625 19.9366,-6.32119 35.0672,-15.70638 50.5,-31.28125 17.0186,-17.17529 26.65255,-34.7102 32.28125,-58.875 4.7006,-20.18065 3.21575,-45.92865 -3.84375,-67 C 272.9426,-25.89602 243.5164,-54.79143 207.5,-66.125 c -27.9644,-8.79977 -58.50685,-8.09561 -82.78125,1.90625 -3.4178,1.40824 -6.57645,2.66309 -7.03125,2.78125 -0.4548,0.11816 -1.62655,-2.25625 -2.59375,-5.28125 -2.2528,-7.04587 -7.3279,-17.14199 -11.8125,-23.4375 l -3.53125,-4.9375 2.25,-1.8125 c 4.194,-3.39605 23.2874,-13.14453 34.4375,-17.5625 6.0905,-2.41324 17.5875,-6.19665 25.5625,-8.4375 14.455,-4.06164 14.5233,-4.08938 22,-2.8125 4.125,0.70447 17.85,1.43487 30.5,1.625 26.5941,0.39969 38.4764,1.49959 54.5,5 21.6966,4.73971 52,16.63334 52,20.40625 0,0.94967 0.7099,2.2924 1.5625,3 2.2553,1.87174 3.75885,-0.193751 5.84375,-8.03125 4.1527,-15.6107 15.3032,-34.34476 27.875,-46.84375 16.9677,-16.86941 31.3384,-23.90241 60.3125,-29.53125 25.3724,-4.92915 73.09375,-11.04363 102.40625,-13.125 24.6259,-1.74858 30.9231,-2.89404 43.75,-7.90625 6.28775,-2.45699 10.67053,-3.60819 13.6875,-3.5 z m -545.59375,81.75 c 6.131486,0.0497 12.232741,0.77466 18.15625,2.1875 23.0966,5.50887 44.48515,22.06511 55.40625,42.90625 4.1899,7.99573 7.91105,18.81436 7.15625,20.78125 C 110.7969,-55.00503 49.0308,43.46011 47.5,45.125 45.938,46.82399 20.9325,47.61687 13.125,46.21875 -3.35661,43.26732 -17.89719,35.38406 -31,22.28125 -48.5996,4.68165 -55.94895,-13.38941 -55.96875,-39 c -0.01889,-24.49669 8.34251,-43.49975 26.8125,-60.875 15.191827,-14.29138 36.3284292,-22.49223 57.375,-22.96875 0.87694,-0.0199 1.749073,-0.0383 2.625,-0.0312 z m 471,11.28125 c 17.08766,-0.0151 30.34587,3.56936 68.6875,17.25 7.7085,2.75045 12.6592,3.8113 21.5,4.59375 22.0637,1.95273 50.8013,0.87594 77.6875,-2.90625 7.0451,-0.99107 12.9428,-1.68743 13.125,-1.53125 0.6354,0.54463 -27.45735,16.83814 -42.34375,24.5625 -25.5861,13.27632 -47.0624,20.9104 -68.5,24.34375 -5.775,0.9249 -12.2367,1.9984 -14.375,2.375 l -3.875,0.6875 12.375,6.15625 c 35.4104,17.60438 68.08665,26.622 112.21875,30.9375 3.9804,0.38923 6.4557,1.01298 5.9375,1.53125 -1.7007,1.70067 -25.85315,11.65163 -36.78125,15.15625 -13.648,4.37691 -30.3259,8.14134 -49.375,11.125 L 583.5,24.96875 587,26.5 c 1.925,0.83322 6.425,2.73538 10,4.25 19.3598,8.20219 40.8184,20.54326 57.5,33.0625 11.0542,8.29603 29.68965,24.65007 30.40625,26.6875 0.2603,0.7401 -0.8682,0.86251 -3.5,0.40625 C 679.26995,90.5359 669.85,89.96423 660.5,89.625 c -20.6403,-0.74886 -34.9252,0.50209 -58,5.125 -19.4406,3.89481 -37.1952,6.95246 -49.5,8.5 -4.675,0.58796 -10.07745,1.2989 -12.03125,1.59375 L 537.40625,105.375 530.125,89.3125 C 517.6243,61.73626 507.1051,35.46251 496.5,5.28125 485.015,-27.40419 470.7363,-50.82618 449.125,-72.4375 c -4.9319,-4.93184 -12.1626,-11.40207 -16.0625,-14.375 -5.7277,-4.36625 -6.7395,-5.53027 -5.3125,-6.09375 0.9716,-0.38367 9.3558,-3.716631 18.625,-7.375 19.7463,-7.79346 30.44565,-10.27685 47.84375,-11.125 2.68247,-0.13077 5.18391,-0.18535 7.625,-0.1875 z m -339.28125,45.5 c 1.76588,-0.0079 3.72609,-0.0029 5.9375,0 17.2052,0.02283 19.91415,0.26643 28.59375,2.59375 25.5872,6.86086 45.0765,18.64718 60.5,36.59375 20.3932,23.72922 29.4932,50.85725 28.125,83.6875 -1.9429,46.61991 -32.71895,87.89889 -77.46875,103.875 -3.9965,1.42678 -11.71635,3.48517 -17.15625,4.59375 -18.1373,3.69614 -41.71685,2.30271 -59.28125,-3.53125 C 91.2266,148.23827 60.33065,112.11341 53.53125,70.1875 52.69135,65.00843 52,58.03035 52,54.6875 l 0,-6.0625 32.25,-51.4375 32.25,-51.40625 6.53125,-3.1875 c 3.5805,-1.75508 11.0059,-4.42296 16.5,-5.9375 8.13864,-2.243517 10.67009,-2.69471 23.03125,-2.75 z m -558.09375,230.5 c 2.16812,-0.0206 4.50058,0.0282 7.03125,0.125 10.43411,0.39912 14.6777,1.04134 21.5,3.21875 14.53392,4.63865 31.0303,14.59502 58.09375,35.125 9.12425,6.92154 14.20794,10.16094 15.5,9.875 5.52461,-1.2226 53.1687,-3.75091 83.40625,-4.4375 31.07883,-0.70569 35.24183,-1.00993 41.9375,-2.96875 9.72426,-2.84484 19.9211,-7.65124 28.4375,-13.40625 l 6.875,-4.65625 4.625,3.78125 c 11.6631,9.51624 20.87686,13.93481 41.125,19.65625 41.71187,11.78637 57.95513,17.4772 77.75,27.34375 26.54851,13.2328 45.2465,28.04896 59.625,47.1875 15.4598,20.5777 18.9953,30.28715 31.125,85.09375 21.8925,98.9191 23.03855,109.1359 14.03125,126.875 -4.3881,8.6419 -9.1731,14.87795 -23.3125,30.46875 -21.6922,23.9188 -45.92212,42.2501 -85.75,64.875 -45.45103,25.8193 -89.97685,43.66955 -120.46875,48.28125 -9.30787,1.4078 -10.96642,1.50065 -14,0.90625 -0.825,-0.1616 -4.875,-0.8308 -9,-1.5 -11.22592,-1.8214 -23.6922,-6.2854 -41.5,-14.875 -29.50449,-14.2315 -58.17657,-32.94845 -93.21875,-60.78125 -36.97158,-29.3652 -69.98126,-61.48805 -88.03125,-85.71875 -17.33313,-23.2683 -27.99149,-53.9309 -31.3125,-89.9375 -1.35578,-14.6995 -0.74273,-48.11345 1.09375,-59.78125 l 1.1875,-7.59375 -9.65625,-12.8125 c -11.90123,-15.7655 -23.0049,-32.39345 -28.6875,-42.96875 -4.05657,-7.54924 -4.34303,-8.53528 -4.6875,-17.5 -0.87559,-22.78687 10.39461,-54.51643 25.03125,-70.53125 9.06539,-9.91899 16.07318,-13.19948 31.25,-13.34375 z M 1626.4688,191.4375 c 26.0096,-0.11386 56.9385,7.53163 84.7812,21.375 13.8725,6.89741 21.2426,11.7211 38.3125,25.0625 47.3234,36.98664 86.8981,58.5608 116.4375,63.4375 23.3106,3.8483 58.992,-6.48545 109.125,-31.59375 8.3056,-4.15974 15.2509,-7.40541 15.4375,-7.21875 0.5815,0.58147 -26.5812,40.63595 -36.4687,53.78125 -20.4857,27.2344 -31.8223,38.83795 -45.8126,46.84375 -13.7086,7.8451 -28.822,14.7673 -38.7812,17.75 -7.8713,2.3575 -11.0692,2.73835 -25.5,3.03125 -18.193,0.3692 -23.7809,-0.4645 -39.5,-5.8125 -15.4801,-5.2667 -33.4874,-15.15095 -50.3125,-27.59375 -9.0366,-6.6829 -32.1232,-25.78915 -52.1875,-43.21875 -52.9829,-46.02586 -53.4122,-46.39967 -63.3438,-52.375 -7.5836,-4.56313 -18.6159,-7.11484 -26.8124,-6.1875 -15.6057,1.76554 -46.5191,16.59616 -82.4376,39.53125 l -12.0937,7.71875 -7.6563,-6.9375 c -4.2056,-3.8133 -7.6562,-7.40805 -7.6562,-7.96875 0,-1.4238 8.799,-13.41075 18.5312,-25.28125 31.4937,-38.41149 59.4546,-58.23849 88.8126,-63 5.3804,-0.87266 11.122,-1.31747 17.125,-1.34375 z M 72.71875,876.375 c 8.254463,0.0216 17.193722,0.47497 17.8125,1.09375 0.2845,0.2845 -0.3863,4.28795 -1.5,8.90625 -5.6462,23.4127 -8.5451,48.66553 -7.5625,65.90625 0.7568,13.281 3.21415,37.06905 4.59375,44.34375 0.5203,2.7449 0.8088,5.1287 0.625,5.3125 -1.3648,1.3648 -12.2273,-15.21475 -16.8125,-25.65625 -4.8268,-10.9918 -7.3662,-20.89628 -9.8125,-38.375 C 57.6546,920.70245 54,886.6065 54,881.3125 l 0,-3.875 7.625,-0.6875 c 1.931325,-0.18097 4.624897,-0.30466 7.625,-0.34375 1.125039,-0.0147 2.289541,-0.0343 3.46875,-0.0312 z M 1744.75,1047.75 c 0.037,-0.014 0.08,-0.014 0.094,0 0.5691,0.5693 -2.53,14.1208 -5.9376,26.0312 -10.9773,38.3691 -29.667,68.6278 -57.4374,92.9063 -4.5263,3.9572 -11.5476,9.4544 -15.5938,12.2187 l -7.375,5.0313 -5,-1.9063 c -15.8056,-5.9987 -33.2731,-16.409 -40.2812,-24 l -2.3126,-2.5 10.5,-5.625 c 21.3128,-11.3811 43.2888,-25.6361 59.8126,-38.8124 11.2601,-8.9792 45.2089,-42.498 56.25,-55.5313 3.5865,-4.2337 6.7189,-7.5944 7.2812,-7.8125 z m -1387.4375,173.375 7.1875,14 c 8.5051,16.5767 17.3597,29.9601 28.875,43.6562 10.0957,12.0081 38.8063,40.3625 58.125,57.4063 7.7,6.7933 14.66335,12.9689 15.46875,13.7187 1.26,1.1732 1.0508,1.3734 -1.5,1.3126 -5.3281,-0.1278 -21.65325,-3.984 -34.09375,-8.0313 -31.6295,-10.2902 -64.7064,-32.1301 -96.125,-63.5 -7.8375,-7.8254 -14.25,-14.5953 -14.25,-15.0625 0,-1.3991 17.85515,-23.4274 27.40625,-33.8125 l 8.90625,-9.6875 z"
       id="path3986"
       inkscape:connector-curvature="0" />
  </g>
  <g
     inkscape:groupmode="layer"
     id="layer7"
     inkscape:label="Mouth"
     style="display:inline"
     transform="translate(457.79567,289.3152)">
    <path
       style="fill:#ffffff;fill-opacity:1;display:inline"
       d="m -43.810453,561.20956 c -1.60851,-0.21779 -6.872724,-0.86948 -11.698254,-1.44835 -22.081701,-2.64887 -60.093033,-13.21668 -83.837483,-23.30838 -5.3617,-2.27882 -9.82172,-4.20406 -9.91115,-4.27834 -0.0894,-0.0741 8.46491,-0.15218 19.00966,-0.17304 20.61514,-0.0409 30.03832,-1.23991 46.468193,-5.91278 17.471596,-4.96923 26.157189,-9.66968 44.35588,-24.00492 26.947239,-21.22638 42.8628695,-29.37763 53.764784,-27.53574 4.597219,0.77667 9.917,5.0983 12.494028,10.1496 3.746658,7.34407 5.21011,26.9754 2.853399,38.27649 -3.742856,17.94805 -17.013453,31.20861 -36.4545862,36.42681 -5.6456258,1.51541 -30.3134808,2.71974 -37.0444708,1.80865 z"
       id="path4209"
       inkscape:connector-curvature="0" />
    <path
       style="fill:#806330;fill-opacity:1;display:inline"
       d="m 27.28669,508.27892 c 0,-2.475 0.195,-3.4875 0.4333,-2.25 0.2384,1.2375 0.2384,3.2625 0,4.5 -0.2383,1.2375 -0.4333,0.225 -0.4333,-2.25 z"
       id="path3912"
       inkscape:connector-curvature="0" />
    <path
       inkscape:connector-curvature="0"
       id="path4187"
       d="m 27.28669,508.27892 c 0,-2.475 0.195,-3.4875 0.4333,-2.25 0.2384,1.2375 0.2384,3.2625 0,4.5 -0.2383,1.2375 -0.4333,0.225 -0.4333,-2.25 z"
       style="fill:#806330;fill-opacity:1;display:inline" />
    <path
       style="fill:#000000;fill-opacity:1;display:inline"
       d="m 12.546252,472.50113 c -11.0577898,0.0548 -26.82415,8.79865 -51.875,28.53125 -18.66811,14.705 -27.57774,19.5276 -45.5,24.625 -16.853672,4.7934 -26.509362,6.0205 -47.656252,6.0625 -10.81674,0.0214 -19.5917,0.0802 -19.5,0.15625 0.0917,0.0762 4.65625,2.06865 10.15625,4.40625 24.35692,10.352 63.348722,21.18905 86.000002,23.90625 4.95,0.5938 10.35,1.24535 12,1.46875 6.90461,0.9346 32.20875,-0.28925 38.0000002,-1.84375 19.9425998,-5.3528 33.5668498,-18.964 37.4062498,-37.375 2.4175,-11.5926 0.9058,-31.7165 -2.9375,-39.25 -2.6435,-5.1816 -8.0967,-9.60955 -12.8125,-10.40625 -1.04842,-0.17713 -2.13734,-0.28692 -3.28125,-0.28125 z m -0.96875,6.21875 c 3.48338,-0.13592 6.4722,0.53605 8.15625,2.03125 3.4086,3.0263 5.68705,9.0803 6.96875,18.5 1.8133,13.3274 -0.4231,25.9098 -6.3125,35.75 -1.7282,2.8875 -3.35995,5.25 -3.65625,5.25 -0.2963,-0.003 -4.80767,-11.141 -9.9999998,-24.75 -5.19234,-13.609 -10.04422,-26.22105 -10.78125,-28.03125 l -1.34375,-3.3125 5.78125003,-2.65625 C 4.0907922,479.79583 8.0941222,478.8558 11.577502,478.71988 z m -22.84375,9.09375 c 1.1093,-0.4081 4.0207302,6.1654 12.3125002,27.875 5.96931,15.6289 10.5477998,28.88585 10.1874998,29.46875 -1.0166,1.6448 -8.5770098,5.7613 -13.5624998,7.375 -8.5260102,2.7597 -9.8320202,2.86315 -10.8437502,0.96875 -0.51669,-0.9674 -5.26959,-12.55 -10.5625,-25.75 l -9.625,-24 2.78125,-2.25 c 4.89763,-3.9806 17.81301,-13.136 19.3125,-13.6875 z m -26.375,19.53125 9.28125,23.1875 c 5.10035,12.7605 9.47601,23.78125 9.75,24.46875 0.38441,0.9646 -2.42252,1.216 -12.34375,1.125 -20.18577,-0.1858 -18.04075,1.4443 -23.28125,-17.8125 -4.21003,-15.4704 -4.38506,-16.4839 -2.6875,-17.5 2.65709,-1.5904 13.03989,-8.74495 16.375,-11.28125 l 2.90625,-2.1875 z m -27.09375,17.375 c 1.01466,-0.13592 1.59991,1.21049 2.75,5.71875 0.88466,3.4677 2.7247,10.25 4.0625,15.0625 l 2.40625,8.75 -2.15625,-0.0937 c -4.0606,-0.1511 -24.7083,-4.5875 -25.59375,-5.5 -0.48653,-0.5013 -1.17663,-4.50625 -1.53125,-8.90625 l -0.65625,-8 9.3125,-3.0625 c 5.12481,-1.6896 10.04947,-3.4093 10.9375,-3.8125 0.16493,-0.0749 0.3238,-0.13683 0.46875,-0.15625 z m -27.75,8.8125 c 1.31953,-0.0902 1.72331,1.5323 2.6875,8.96875 0.76476,5.8984 1.16129,5.86525 -16.031252,0.59375 -14.40166,-4.4157 -17.05376,-5.84375 -10.8125,-5.84375 3.82017,0 19.750922,-2.43565 23.531252,-3.59375 0.23135,-0.0709 0.4365,-0.11212 0.625,-0.125 z"
       id="path4189"
       inkscape:connector-curvature="0" />
  </g>
  <g
     inkscape:groupmode="layer"
     id="layer6"
     inkscape:label="Eyes"
     style="display:inline"
     transform="translate(457.79567,289.3152)">
    <path
       style="fill:#000000;fill-opacity:1;display:inline"
       d="m 204.27029,73.719219 c -4.1911,-2.08852 -5.6078,-3.50522 -7.6963,-7.69634 -1.4078,-2.82516 -2.5597,-6.75994 -2.5597,-8.74396 0,-1.98402 1.1519,-5.9188 2.5597,-8.74396 2.0885,-4.19112 3.5052,-5.60782 7.6963,-7.69634 2.8252,-1.40784 6.76,-2.5597 8.744,-2.5597 1.984,0 5.9188,1.15186 8.744,2.5597 4.1911,2.08852 5.6078,3.50522 7.6963,7.69634 1.4078,2.82516 2.5597,6.75994 2.5597,8.74396 0,1.98402 -1.1519,5.9188 -2.5597,8.74396 -2.0885,4.19112 -3.5052,5.60782 -7.6963,7.69634 -2.8252,1.40784 -6.76,2.5597 -8.744,2.5597 -1.984,0 -5.9188,-1.15186 -8.744,-2.5597 z"
       id="path3952"
       inkscape:connector-curvature="0" />
    <path
       style="fill:#000000;fill-opacity:1;display:inline"
       d="m 43.65559,-17.618971 c -4.3651,-2.87782 -6.6281,-7.00989 -6.6281,-12.10211 0,-8.047 5.9398,-13.98682 13.9868,-13.98682 8.047,0 13.9868,5.93982 13.9868,13.98682 0,8.047 -5.9398,13.98682 -13.9868,13.98682 -2.7304,0 -5.6242,-0.74116 -7.3587,-1.88471 z"
       id="path3946"
       inkscape:connector-curvature="0" />
  </g>
  <g
     inkscape:groupmode="layer"
     id="layer3"
     inkscape:label="Nostril"
     style="display:inline"
     transform="translate(457.79567,289.3152)">
    <path
       style="fill:#5c4722;fill-opacity:1"
       d="m -71.70766,397.7142 c 10.03558,-20.0482 14.93788,-36.7307 15.11734,-51.4444 0.10411,-8.5361 -0.17151,-10.0852 -2.71638,-15.2678 -3.58461,-7.2999 -10.79024,-14.7345 -17.75715,-18.3213 -4.38024,-2.2551 -6.74364,-2.7901 -12.4106,-2.8091 -17.32118,-0.058 -29.21451,8.6134 -39.6504,28.9092 -3.10772,6.044 -6.89461,14.7015 -8.4153,19.239 -1.5207,4.5375 -3.12992,8.25 -3.57606,8.25 -1.83269,0 -13.15886,-15.0848 -17.26918,-23 -5.69207,-10.9612 -7.8574,-19.286 -7.80315,-30 0.055,-10.8669 2.50798,-18.7713 9.43032,-30.3884 12.12478,-20.34781 27.16702,-32.56921 46.48329,-37.76637 11.01209,-2.96287 29.6493,-2.94584 40.7465,0.0372 26.17515,7.03621 48.17143,25.99565 58.40195,50.33875 2.2089401,5.2561 2.6318201,7.7447 2.5962701,15.2788 -0.0368,7.7957 -0.47645,10.0613 -3.2856001,16.9311 -8.34509,20.4078 -30.28477,48.8216 -55.605,72.0133 l -9.76532,8.9444 5.47847,-10.9444 z"
       id="path3992"
       inkscape:connector-curvature="0" />
    <path
       style="fill:#000000;fill-opacity:1"
       d="m -89.9375,242.90625 c -7.422964,-0.007 -14.8377,0.73731 -20.34375,2.21875 -19.31627,5.19716 -34.37522,17.40219 -46.5,37.75 -6.92234,11.6171 -9.35125,19.53935 -9.40625,30.40625 -0.0542,10.714 2.08918,19.0388 7.78125,30 4.11032,7.9152 15.44856,23 17.28125,23 0.44614,0 2.0418,-3.7125 3.5625,-8.25 1.52069,-4.5375 5.32978,-13.206 8.4375,-19.25 10.43589,-20.2958 22.30382,-28.96425 39.625,-28.90625 5.66696,0.019 8.05726,0.5574 12.4375,2.8125 6.96691,3.5868 14.16539,11.0126 17.75,18.3125 2.54487,5.1826 2.82286,6.74515 2.71875,15.28125 -0.17946,14.7137 -5.08942,31.3893 -15.125,51.4375 l -5.46875,10.9375 9.75,-8.9375 c 25.32023,-23.1917 47.27991,-51.5922 55.625,-72 2.80915,-6.8698 3.24445,-9.1418 3.28125,-16.9375 0.03555,-7.5341 -0.38481,-10.02515 -2.59375,-15.28125 -10.23052,-24.3431 -32.2311,-43.30754 -58.40625,-50.34375 -5.5486,-1.49152 -12.983286,-2.24322 -20.40625,-2.25 z m -3.90625,6.90625 c 1.322509,-0.011 2.74903,-0.002 4.34375,0 13.79886,0.0188 15.64061,0.21911 23,2.78125 13.00149,4.52643 21.95034,10.16892 32,20.1875 10.04235,10.0113 15.49705,18.4463 18.6875,28.875 1.92151,6.2808 1.98761,7.50565 0.84375,13.90625 -2.17887,12.1922 -12.5369,30.44365 -27.625,48.71875 -7.36755,8.9238 -14.29745,16.62115 -14.34375,15.90625 -0.02113,-0.3264 0.84102,-3.188 1.9375,-6.375 5.12296,-14.8902 6.37945,-35.02405 2.71875,-43.71875 -2.40902,-5.7218 -9.28677,-14.25295 -15.15625,-18.78125 -12.53873,-9.6736 -27.74119,-10.5631 -44.09375,-2.5625 -9.82479,4.8068 -20.3244,18.7482 -28.53125,37.875 l -3.375,7.875 -2.84375,-3.375 c -3.8003,-4.4894 -11.22149,-20.01905 -12.75,-26.71875 -1.92942,-8.4569 -0.782,-20.36295 2.78125,-28.84375 8.85369,-21.0724 25.78368,-37.55311 44.75,-43.5625 5.20942,-1.65058 8.39869,-2.11048 17.65625,-2.1875 z"
       id="path3960"
       inkscape:connector-curvature="0" />
  </g>
</svg>
