<svg xmlns="http://www.w3.org/2000/svg" width="2464.744" height="1970.724"><defs><filter id="a" width="1.103" height="1.866" x="-.052" y="-.433" color-interpolation-filters="sRGB"><feGaussianBlur stdDeviation="18.769"/></filter></defs><path d="M1392 1616.362c0 28.719-195.204 52-436 52s-436-23.281-436-52 195.204-52 436-52 436 23.281 436 52" style="fill:#e9e9e9;fill-opacity:1;stroke:none;filter:url(#a)" transform="translate(457.796 257.315)"/><g style="display:inline"><path d="M326.462-114.994c1.525-4.276 4.974-11.437 7.665-15.914s4.779-8.21 4.64-8.296c-3.775-2.31-21.631-16.374-26.99-21.257-12.513-11.403-17.766-19.531-17.759-27.478 0-5.345 2.605-9.742 8.213-13.888 7.107-5.255 27.45-14.452 41.783-18.891 7.425-2.3 14.175-4.42 15-4.712 2.005-.71-3.365-2.955-12.91-5.396-6.143-1.571-11.079-1.895-28.871-1.895-14.364 0-24.966-.52-32.056-1.573-10.283-1.527-31.96-6.654-34.761-8.222-.823-.46 17.186-5.182 44.356-11.628 36.552-8.673 48.555-11.937 59.742-16.248l14-5.395-9.5.543c-5.517.316-15.187-.069-23.067-.918-27.124-2.92-48.698-3.807-79.692-3.276-26.371.452-32.147.832-40.635 2.672-47.649 10.33-82.879 34.857-91.133 63.448-2.433 8.428-1.671 27.535 1.458 36.597 6.239 18.063 20.698 32.47 40.098 39.95 14.19 5.473 19.098 6.145 51.471 7.053 30.346.851 40.227 1.904 57 6.073 11.913 2.96 30.94 9.55 40 13.852 4.4 2.09 8.265 3.523 8.588 3.186.324-.338 1.836-4.112 3.36-8.387M1869.514 380.862c9.96-2.982 25.05-9.886 38.758-17.73 13.99-8.007 25.35-19.619 45.835-46.853 9.888-13.145 37.042-53.199 36.46-53.78-.186-.187-7.134 3.064-15.44 7.224-50.133 25.108-85.802 35.433-109.113 31.585-29.54-4.877-69.14-26.446-116.464-63.433-17.07-13.341-24.438-18.16-38.31-25.058-34.268-17.038-73.206-24.696-101.902-20.042-29.358 4.762-57.31 24.592-88.803 63.004-9.732 11.87-18.52 23.875-18.52 25.299 0 .56 3.44 4.14 7.646 7.953l7.647 6.933 12.103-7.729c35.918-22.935 66.822-37.75 82.428-39.516 8.196-.927 19.218 1.612 26.802 6.175 9.931 5.976 10.39 6.355 63.373 52.381 20.065 17.43 43.136 36.547 52.173 43.23 16.825 12.442 34.847 22.322 50.327 27.589 15.72 5.348 21.307 6.168 39.5 5.799 14.431-.293 17.629-.673 25.5-3.03M553.014 103.247c12.305-1.548 30.06-4.592 49.5-8.486 23.075-4.623 37.36-5.89 58-5.14 9.35.339 18.748.92 20.884 1.29 2.632.456 3.76.321 3.5-.42-.716-2.037-19.33-18.377-30.384-26.673-16.681-12.52-38.14-24.856-57.5-33.059a1839 1839 0 0 1-10-4.268l-3.5-1.515 14.617-2.29c19.05-2.984 35.735-6.74 49.383-11.117 10.928-3.504 35.062-13.452 36.762-15.152.519-.519-1.956-1.167-5.936-1.556-44.132-4.316-76.803-13.32-112.214-30.923l-12.387-6.16 3.887-.684c2.139-.376 8.613-1.441 14.388-2.366 21.438-3.434 42.914-11.065 68.5-24.341 14.887-7.725 42.967-24.018 42.332-24.563-.183-.156-6.096.527-13.141 1.518-26.886 3.782-55.613 4.856-77.676 2.903-8.841-.782-13.792-1.839-21.5-4.59-43.82-15.634-54.854-18.1-76.314-17.055-17.398.849-28.101 3.339-47.848 11.132l-18.62 7.35c-1.426.563-.403 1.736 5.325 6.102 3.9 2.973 11.126 9.44 16.058 14.373 21.611 21.61 35.89 45.036 47.375 77.722 10.605 30.181 21.12 56.464 33.62 84.04l7.284 16.069 3.553-.536c1.954-.295 7.377-1.017 12.052-1.605" style="fill:#ffb400;fill-opacity:1;display:inline" transform="translate(457.796 289.315)"/><path d="M1826.828 383.268c-26.214-4.155-53.585-17.805-82.814-41.3-9.157-7.36-38.327-32.257-80.917-69.063-6.92-5.98-14.827-12.393-17.57-14.25-5.959-4.035-5.114-4.177 5.186-.874 4.918 1.577 10.708 4.492 15.666 7.888 11.44 7.834 37.805 28.446 56.002 43.783 30.095 25.365 47.468 37.296 68.736 47.203 31.985 14.901 57.71 20.275 77.684 16.227 14.577-2.953 30.671-9.173 48.713-18.824l7-3.745-4.714 4.256c-5.445 4.915-26.49 16.67-38.42 21.46-13.546 5.44-22.554 7.364-36.366 7.772-6.875.202-15.058-.037-18.186-.533" style="fill:#de9d00;fill-opacity:1;display:inline" transform="translate(457.796 289.315)"/><path d="m1514.42 293.029-1.906-2.25 2.25 1.905c2.115 1.79 2.706 2.595 1.905 2.595-.19 0-1.202-1.013-2.25-2.25M1529.014 245.901c0-.207.788-.995 1.75-1.75 1.586-1.244 1.622-1.208.378.378-1.306 1.666-2.128 2.195-2.128 1.372M1551.014 223.901c0-.207.788-.995 1.75-1.75 1.586-1.244 1.622-1.208.378.378-1.306 1.666-2.128 2.195-2.128 1.372" style="fill:#8c8c8c;fill-opacity:1;display:inline" transform="translate(457.796 289.315)"/><path d="M637.513 63.6c-21.462-13.687-45.657-24.144-72.499-31.336-20.196-5.41-44.543-13.275-43.702-14.117.19-.19 11.34 1.197 24.774 3.082 19.884 2.241 37.304 5.175 43.168 2.952 1.243.804 4.735 2.414 7.76 3.578 8.893 3.422 38 18.16 38 19.24 0 .546 1.28 2.632 2.845 4.636 3.285 4.209 11.498 18.134 10.994 18.639-.188.187-5.29-2.816-11.34-6.674M620.211 4.31c-13.913-3.15-24.723-8.346-45.197-21.725-22.237-14.532-33.318-20.737-47.5-26.6-7.15-2.956-11.785-5.11-10.3-4.784l14.5 3.176c6.49 1.423 15.24 2.657 19.443 2.744s7.495.405 7.316.706c-.552.925 16.32 9.476 30.074 15.242 19.183 8.041 36.517 13.378 54.766 16.863 20.474 3.909 19.65 3.66 17.445 5.283-.966.711-6.434 3.156-12.15 5.434-12.079 4.81-19.241 5.734-28.397 3.661M221.2-217.408c3.822-6.914 13.543-16.67 20.195-20.457 3.865-2.16 7.674-4.618 10.342-5.278 1.832 1.48 20.786 6.28 33.277 8.601 7.329 1.362 14.643 1.759 32 1.735 18.274-.026 20.903.129 14 .823-17.129 1.722-27.633 3.901-41.906 8.695-20.972 7.044-39.395 10.068-61.331 10.068h-8.89z" style="fill:#de9d00;fill-opacity:1;display:inline" transform="translate(457.796 289.315)"/></g><g style="display:inline"><path d="M-155.05 645.767c-24.348-5.412-47.358-15.603-77.65-34.388-66.116-41-140.063-107.995-161.487-146.306-9.443-16.885-16.824-40.093-20.463-64.338-2.31-15.386-2.629-53.92-.583-70.258l1.378-11-11.226-15.054c-13-17.434-22.954-32.456-28.295-42.7-3.122-5.99-3.85-8.584-4.3-15.326-1.289-19.324 7.963-49.523 20.658-67.427 10.755-15.167 20.478-19.871 41.073-19.871 23.473 0 42.939 8.854 79.07 35.965 9.535 7.155 17.713 13.242 18.174 13.527s5.843.087 11.962-.438c23.926-2.052 47.23-3.253 79.07-4.073 25.792-.664 34.575-1.235 39.336-2.556 7.835-2.175 25.097-10.457 31.543-15.134l4.979-3.611 5.439 4.43c7.163 5.834 18.514 12.405 25.77 14.916 3.208 1.111 12.5 3.874 20.648 6.14 47.8 13.294 73.695 23.867 97.574 39.84 16.967 11.35 30.144 23.985 40.668 38.997 12.395 17.68 16.59 29.126 25.887 70.627 16.406 73.244 20.853 96.034 22.35 114.526 1.647 20.366-6.027 34.256-35.776 64.755-19.987 20.49-38.686 34.569-73.052 55-30.306 18.017-73.819 38.124-101.15 46.74-19.976 6.296-41.607 9.238-51.597 7.017" style="fill:#806330;fill-opacity:1" transform="translate(457.796 289.315)"/><path d="M-319 546.362c122.765 83.934 181.599 103.964 336 31-43.278 31.444-94.17 56.798-164 67-68.751-16.355-121.687-55.304-172-98M-129.615 330.476c14.34-15.782 28.836-31.23 55.154-21.213 27.527 27.505 21.063 46.513 15.557 65.76-18.568-42.745-52.85-59.194-70.71-44.547" style="fill:#70572a;fill-opacity:1;stroke:none;display:inline" transform="translate(457.796 289.315)"/></g><g style="display:inline"><path d="M474.929 1356.316c-.86-.808-8.28-7.454-16.492-14.77-20.603-18.353-51.236-48.904-62.003-61.835-12.28-14.75-21.725-29.17-30.795-47.02l-7.657-15.07-9.494 10.423c-10.186 11.184-29.224 34.901-29.224 36.408 0 .503 6.839 7.81 15.197 16.237 33.507 33.78 68.77 57.309 102.501 68.39 13.267 4.358 30.685 8.49 36.367 8.628 2.72.066 2.943-.128 1.6-1.391M1681.96 1170.104c29.739-26.507 49.773-59.531 61.529-101.422 3.649-13.004 6.948-27.796 6.339-28.417-.24-.244-3.788 3.59-7.885 8.52-11.824 14.23-48.168 50.804-60.227 60.607-17.695 14.386-41.23 29.959-64.053 42.385l-11.27 6.136 2.474 2.732c7.505 8.288 26.243 19.667 43.169 26.217l5.354 2.072 7.878-5.488c4.333-3.018 11.844-9.022 16.692-13.342M87.456 998.7c-1.492-7.491-4.166-31.978-4.985-45.656-1.063-17.755 2.07-43.752 8.18-67.864 1.204-4.756 1.938-8.887 1.63-9.18-1.02-.97-22.937-1.498-31.295-.752l-8.222.733v3.973c0 5.452 3.95 40.573 6.555 58.29 2.647 18 5.386 28.207 10.609 39.527 4.96 10.753 16.714 27.819 18.19 26.413.2-.189-.099-2.657-.662-5.483" style="fill:#989590;fill-opacity:1;display:inline" transform="translate(457.796 289.315)"/></g><g style="display:inline"><path d="M489.048 1334.564c8.096-13.59 16.685-32.424 21.793-47.785 3.873-11.646 5.028-16.452 14.666-61 5.459-25.232 8.43-35.76 9.917-35.127.6.255 7.165 3.143 14.59 6.417 70.905 31.266 168.39 57.701 260.5 70.64 79.622 11.185 163.43 13.998 240.5 8.071 99.89-7.681 192.397-29.065 285.5-65.994 83.649-33.179 158.044-75.169 221.09-124.786l2.26-1.778 5.734 9.778c10.593 18.067 28.395 44.038 39.112 57.06 1.017 1.236 3.026.488 13.5-5.029 36.525-19.236 58.693-35.56 87.869-64.707 17.174-17.156 38.935-41.275 38.935-43.153 0-1.182-12.523-8.293-26.376-14.978-16.216-7.826-27.607-11.356-62.77-19.45l-29.647-6.824 3.768-5.07c5.856-7.879 14.842-23.798 20.313-35.986 32.332-72.021 41.228-163.393 25.71-264.084-3.277-21.262-13.963-78.753-19.943-107.291-30.65-146.268-64.625-211.64-151.055-290.637-32.041-29.286-40.726-35.778-60.312-45.088-48.646-23.124-122.834-24.472-218.202-3.966-58.931 12.672-113.595 28.837-227.986 67.419-120.358 40.595-154.565 49.063-198.192 49.063-66.644 0-117.366-26.51-170.2-88.957-12.158-14.37-44.813-57.564-54.943-72.676-13.296-19.834-25.741-45.193-40.703-82.934-4.704-11.867-11.042-27.282-14.084-34.255-8.205-18.809-13.873-32.813-20.51-50.678-11.084-29.835-14.086-36.98-20.587-49-11.69-21.615-21.413-35.426-34.723-49.322-6.386-6.667-19.846-17.711-26.132-21.442-.591-.35-5.316.733-10.5 2.408s-16.834 5.028-25.889 7.451c-14.64 3.919-16.63 4.24-17.964 2.906-2.516-2.516.195-3.832 17.427-8.463 47.419-12.742 81.377-26.827 119.473-49.552 54.139-32.296 87.337-61.034 79.528-68.842-2.541-2.542-7.703-1.973-17.764 1.959-12.827 5.012-19.11 6.146-43.737 7.895-29.312 2.081-77.04 8.2-102.413 13.13-28.974 5.628-43.354 12.67-60.322 29.54-12.572 12.498-23.711 31.221-27.864 46.832-2.085 7.837-3.595 9.913-5.85 8.042-.853-.708-1.55-2.064-1.55-3.014 0-3.773-30.304-15.662-52-20.402-16.024-3.5-27.907-4.588-54.5-4.987-12.65-.19-26.376-.922-30.5-1.627-7.477-1.277-7.546-1.268-22 2.794-7.976 2.24-19.484 6.048-25.574 8.462-11.15 4.418-30.235 14.136-34.429 17.532l-2.26 1.83 3.515 4.935c4.485 6.296 9.582 16.389 11.835 23.435.967 3.025 2.13 5.403 2.585 5.285s3.624-1.367 7.041-2.775c24.275-10.002 54.822-10.705 82.786-1.905 36.017 11.333 65.431 40.211 77.426 76.014 7.06 21.071 8.532 46.825 3.832 67.006-5.63 24.164-15.24 41.706-32.258 58.882-15.433 15.575-30.563 24.941-50.5 31.263-13.767 4.365-22.765 5.697-38 5.626-33.261-.155-60.908-11.49-84.757-34.75-22.032-21.488-33.329-46.328-36.815-80.946l-.584-5.8-4.672.8c-12.668 2.168-34.412-.433-46.303-5.539l-4.632-1.988-3.469 3.663c-3.27 3.453-111.79 128.804-114.563 132.331-1.113 1.415-.783 2.146 2.343 5.182 4.485 4.355 15.515 11.1 23.284 14.239 3.2 1.292 14.108 4.648 24.242 7.458 34.552 9.578 51.882 15.817 72.2 25.992 42.058 21.061 70.238 51.653 81.658 88.648 2.533 8.205 17.319 73.477 23.686 104.564.986 4.812 2.127 8.75 2.537 8.75.409 0 1.957-1.592 3.441-3.537 3.955-5.186 16.642-15.054 24.33-18.926 14.27-7.186 27.109-8.826 58.893-7.522 29.565 1.212 34.527 2.995 66.681 23.96 23.152 15.095 30.543 19.077 44 23.704 10.976 3.773 11.037 3.782 27.5 3.801 15.002.018 17.398-.231 26.391-2.744 47.034-13.142 83.708-46.667 96.799-88.486 1.715-5.478 2.71-7.25 4.071-7.25 2.866 0 3.091 2.485.882 9.736-6.128 20.122-21.61 43.512-38.675 58.43-18.495 16.168-42.865 28.58-66.897 34.074-6.84 1.564-12.39 2.065-22.57 2.038-24.393-.066-40.077-6.06-74-28.282-20.223-13.247-31.276-19.071-40.5-21.34-6.451-1.588-23.5-2.75-23.5-1.601 0 .383 1.09 3.163 2.424 6.178 6.855 15.502 10.652 34.256 10.683 52.767.041 24.96-4.99 43.801-17.682 66.218-27.085 47.836-39.054 90.841-44.885 161.282-4.188 50.587-4.092 66.786.573 96 5.019 31.428 15.846 69.916 27.49 97.72 1.318 3.146 2.396 5.894 2.396 6.106 0 .213-11.812-3.313-26.25-7.836-25.051-7.848-34.856-10.575-42.862-11.922l-3.613-.607-1.614 5.77c-2.548 9.11-5.53 24.493-7.161 36.933-2.631 20.069-1.8 41.673 2.837 73.836 2.53 17.54.459 16.33 18.569 10.85 34.487-10.435 65.646-24.718 80.734-37.007 3.042-2.478 5.65-4.356 5.795-4.174.146.182 2.67 3.93 5.61 8.33 21.804 32.63 68.02 87.73 89.455 106.652 26.87 23.72 71.142 48.204 129 71.343 9.35 3.74 19.925 7.8 23.5 9.024l6.5 2.225-6 1.765c-15.185 4.47-35.494 15.288-53.297 28.392-10.765 7.923-29.203 23.98-29.203 25.43 0 .544 2.65 6.43 5.888 13.08 6.482 13.312 17.107 30.013 26.46 41.59 12.392 15.34 46.477 48.606 74.152 72.372l9 7.728 2.583-3.062c1.42-1.684 5.449-7.873 8.951-13.753" style="fill:#fffef1;fill-opacity:1;display:inline" transform="translate(457.796 289.315)"/><path d="M156.27 865.332c280.71 394.176 1125.334 477.884 1492.147 100.926l-15.37 27.053 73.916 20.739c-45.598 22.993-99.068 73.881-108.902 130.943l-38.89-57.275c-355.252 251.53-719.474 225.511-1023.891 106.773l-16.97 72.832c-17.107-51.955-56.868-81.255-127.28-79.903l50.912-27.578c-96.789-25.97-183.246-94.796-247.073-191.333-20.125 20.962-47.037 28.348-75.063 33.506 25.072-32.86 17.956-89.039-3.92-122.237l48.87 13.485z" style="fill:#dbdacf;fill-opacity:1;stroke:none" transform="translate(457.796 289.315)"/><path d="M372.022-96.212c-1.904-2.293-.39-9.475 3.74-17.742 2.617-5.242 5.905-9.546 11.795-15.443 16.512-16.532 33.796-24.904 71.957-34.856 25.102-6.546 36.214-10.452 61.122-21.486 12.373-5.481 13.865-5.924 15.26-4.529 1.358 1.358 1.368 1.722.082 2.983-2.131 2.09-33.702 15.716-45.964 19.84-5.775 1.941-19.95 6.084-31.5 9.205-24.857 6.718-38.136 11.704-49.017 18.404-11.69 7.197-27.985 22.759-24.932 23.809.522.179 3.424 1.748 6.45 3.486l5.5 3.16-3.344 1.37c-3.09 1.268-3.669 1.18-7.678-1.17-2.384-1.397-4.544-2.54-4.798-2.54-1.006 0-3.68 8.229-3.68 11.32 0 3.022-1.441 5.68-3.079 5.68-.372 0-1.234-.671-1.914-1.491z" style="fill:#333;fill-opacity:1;display:inline" transform="translate(457.796 289.315)"/><path d="M188.74 521.609c28.796-34 74.524-67.197 129.98-62.54-20.65 1.582-41.298-11.917-61.948-26.007-21.518-15.476-47.27-24.6-76.787-28.077 22.951 35.851 20.381 83.432 8.755 116.624" style="fill:#dbdacf;fill-opacity:1;stroke:none" transform="translate(457.796 289.315)"/><path d="M188.09-127.269c29.93 14.785 31.103 40.46 67.062 26.09 28.081-11.567 37.354-8.704 60.218-3.993-19.565-8.377-40.339-15.874-65.054-20.506-21.352-2.784-44.132-2.53-62.226-1.59" style="fill:#dbdacf;fill-opacity:1;stroke:none;display:inline" transform="translate(457.796 289.315)"/><path d="M368.05-77.948c47.61 3.712 71.53 19.271 99.348 32.88L421.436-93.15z" style="fill:#dbdacf;fill-opacity:1;stroke:none" transform="translate(457.796 289.315)"/><path d="M87.681 138.78c92.674 42.892 196.113-1.701 195.162-127.279 14.636 55.807 2.216 101.993-43.134 136.472-64.08 34.912-111.875 23.687-152.028-9.193" style="fill:#e8e8e8;fill-opacity:1;stroke:none" transform="translate(457.796 289.315)"/><path d="M407.5-289.312c-1.538.04-6.811 1.059-12.719 2.5-24.678 6.02-40.914 7.205-63.437 4.625-28.716-3.29-72.539-4.43-96.938-2.532-44.455 3.459-89.403 25.335-106.812 52-8.378 12.832-11.267 23.988-10.25 39.469 1.724 26.255 15.266 46.153 39.781 58.469l9.594 4.812-11.031 3.156c-18.218 5.204-38.008 13.808-53.282 23.157l-6.594 4.031-5.156-4.844c-29.244-27.529-74.3-31.668-109.75-10.062-11.224 6.84-24.897 20.675-30.781 31.125C-73.334-41.74-60.558 12.182-21.094 37.969l5.969 3.906-58 66.938c-31.897 36.826-60.194 69.28-62.875 72.125-8.333 8.842-24.259 17.087-38.312 19.812-4.68.907-17.811 1.567-37.688 1.906-26.12.446-68.324 2.616-78.594 4.031-2.688.371-4.768-.826-15-8.625-16.365-12.472-37.023-26.074-46.812-30.812-11.394-5.515-21.865-8.051-35.594-8.656-12.899-.569-22.95 1.042-30.625 4.875-5.998 2.995-17.129 14.83-22.375 23.812-5.036 8.623-11.175 24.582-14.156 36.719-1.594 6.487-2.19 12.066-2.25 21.344l-.094 12.562 4.25 8.594c4.876 9.845 17.081 28.445 29.656 45.188l8.688 11.53-1.282 8.782c-1.967 13.55-1.65 55.047.532 69.281 3.673 23.963 9.616 43.283 18.781 61.125 9.038 17.594 23.136 34.954 49.063 60.438 63.152 62.075 141.023 113.102 187.718 123 9.451 2.003 23.574 1.797 35-.532 47.382-9.655 127.396-49.812 174.25-87.437 10.945-8.789 30.345-28.6 40.813-41.687 7.663-9.581 13.56-20.749 15.594-29.47 1.765-7.568 1.519-15.783-1.094-33.843L103.03 443l4.688-5.5c9.906-11.595 24.222-21.233 36.781-24.719 3.813-1.058 11.769-1.866 21.781-2.219l15.75-.562 3.438 7.5c9.91 21.451 13.804 49.367 10.062 72.438-2.797 17.25-6.676 27.126-20.281 51.843-22.59 41.041-34.502 84.439-40.187 146.344-5.737 62.465-5.227 83.862 2.906 123.969 3.851 18.995 9.714 40.23 16.562 59.937 3.01 8.659 5.469 16.02 5.469 16.344.003.324-10.012-2.484-22.25-6.25-24.836-7.643-31.995-9.324-46.937-10.969-11.176-1.23-41.5-.594-43 .907-1.512 1.511 4.106 55.26 8.218 78.718 3.885 22.162 12.647 40.723 27.282 57.782 6.295 7.338 7.724 8.122 11.374 6.218 1.562-.814 3.335-1.5 3.97-1.5 2.805-.015 32.482-9.462 43.78-13.937 19.83-7.856 39.065-17.817 48.72-25.25l3.655-2.813 10.625 14.844c32.814 45.783 72.247 89.71 97.25 108.344 25.87 19.279 69.687 42.216 114.313 59.812 7.425 2.929 13.87 5.618 14.313 6 .441.383-4.284 3.202-10.5 6.25-11.572 5.674-27.631 15.79-38.313 24.157-21.948 17.189-53.073 50.019-66.25 69.843l-2.5 3.75 2.875 4.25c4.76 6.997 24.984 26.555 39.375 38.094 37.247 29.864 66.808 43.955 105.5 50.219 4.4.711 10.48 1.189 13.5 1.094l5.5-.157 6.75-10c8.19-12.106 21.152-37.964 26.625-53.093 4.767-13.178 7.559-23.82 13.563-52.094 6.871-32.36 9.827-44.305 11-44.281.589.012 3.087.927 5.562 2.062 28.933 13.273 80.155 31.313 121.5 42.781 103.224 28.634 212.112 42.553 319.5 40.813 113.612-1.842 208.64-18.166 312-53.563 87.281-29.889 180.839-78.325 246.5-127.625 7.15-5.367 13.52-9.808 14.156-9.875s5.412 6.625 10.594 14.875c32.244 51.336 49.19 67.47 84.5 80.438l6.25 2.312 5.5-3.343c22.33-13.534 46.524-39.214 61-64.782 12.455-21.996 23.57-56.035 27-82.656l.625-5.031-9.812-5.625c-27.96-16.052-41.665-21.238-78.313-29.719-14.575-3.373-27.038-6.352-27.719-6.594-.813-.29.707-3.607 4.438-9.718 34.268-56.148 51.713-143.507 46.281-231.782-2.289-37.195-6.634-66.739-20.094-136.5-30.408-157.607-60.18-225.39-131.437-299.312-8.167-8.472-14.34-15.646-13.844-16.094 1.52-1.371 29.416-18.575 37.875-23.344 12.363-6.969 26.108-13.655 36-17.562 8.127-3.21 9.972-3.571 19-3.625 9.187-.055 10.529.18 16.5 3.031 7.684 3.668 19.196 12.488 38.906 29.844 20.277 17.854 50.3 43.546 65.594 56.094 52.095 42.74 96.14 55.356 141 40.375 9.758-3.26 30.068-13.5 40.594-20.47 17.096-11.32 49.508-52.82 80.593-103.187 3.647-5.908 7.27-11.75 8.063-12.968 1.045-1.607-1.951-.278-10.906 4.812-16.738 9.513-43.373 22.404-60.344 29.219-36.175 14.527-56.55 17.727-77.75 12.219-27.539-7.156-63.052-27.777-106.5-61.844-19.245-15.09-32.53-22.867-53.25-31.188-35.495-14.254-71.883-18.469-99.5-11.531-18.878 4.742-39.952 18.445-61.5 40-12.096 12.1-29.657 32.93-36.281 43.063-1.769 2.703-3.512 4.927-3.875 4.937-.364.01-5.089-3.808-10.5-8.5-21.824-18.922-42.003-29.472-70.657-36.937-58.378-15.21-137.175-8.804-244.906 19.906-44.814 11.943-85.03 24.43-163.281 50.781-104.092 35.052-140.146 45.52-174 50.438-14.805 2.15-50.04 2.432-62 .5-49.78-8.042-89.47-31.568-129.375-76.657-13.063-14.76-22.963-27.203-40.219-50.5-25.885-34.946-32.716-45.77-44.406-70.468-6.297-13.305-18.5-42.378-18.5-44.094 0-.523 8.958-2.193 19.906-3.719s28.386-4.53 38.75-6.656 23.293-4.411 28.719-5.094c12.499-1.572 53.478-.652 65.594 1.469 4.654.814 8.61 1.328 8.781 1.156s-4.636-5.294-10.687-11.375c-12.816-12.876-26.87-24.848-39.563-33.719-9.399-6.568-31.051-19.024-40.5-23.312l-5.5-2.5 3-.782c1.65-.432 9.525-2.206 17.5-3.937 21.799-4.73 39.024-10.835 60.813-21.531 10.615-5.211 19.062-9.857 18.78-10.313-.28-.455-6.724-1.09-14.343-1.437-40.125-1.826-76.736-10.5-112.687-26.719l-4.97-2.25 12.97-3.281c28.543-7.217 53.032-18.198 88.687-39.813 13.326-8.078 36.036-23.683 35.406-24.312-.23-.23-4.403.698-9.281 2.062-21.448 6.001-42.947 8.62-76.469 9.313-34.095.704-38.77.117-60.312-7.656-37.012-13.356-52.145-16.29-73.094-14.22-4.95.49-9.117.783-9.281.657s4.336-2.81 10-5.969c13.797-7.693 40.049-24.177 51.969-32.625C573.028-175.992 587-190.452 587-200.156c0-4.348-1.807-6.94-6.656-9.438-3.63-1.87-6.891-1.312-19.125 3.25-14.081 5.25-19.588 6.251-41.719 7.656-24.818 1.577-71.219 7.398-99.594 12.5-33.827 6.083-51.162 14.487-69.375 33.625l-8.469 8.907-7.78-5.75c-18.707-13.834-28.684-23.55-32.876-32-3.328-6.71-2.652-10.06 2.938-14.844 9.602-8.219 39.073-19.988 62.156-24.812l10.969-2.313L373-226c-6.518-3.817-15.07-7.433-23.281-9.875-6.397-1.902-9.88-2.177-31.219-2.312-17.827-.114-26.904-.613-35.312-1.97-6.226-1.004-10.951-2.153-10.5-2.562.45-.409 16.337-4.397 35.312-8.875 33.377-7.876 35.6-8.564 68.125-20.781 29.385-11.038 33.553-12.863 33.125-14.5-.27-1.03-.874-2.116-1.344-2.406-.058-.037-.186-.037-.406-.031m-140.031 9.75c25.264-.147 44.735.85 68.469 3.406 7.88.848 17.544 1.221 23.062.906l9.5-.531-14 5.375c-11.187 4.31-23.167 7.577-59.719 16.25-27.17 6.446-45.197 11.164-44.375 11.625 2.802 1.568 24.499 6.723 34.781 8.25 7.091 1.053 17.668 1.562 32.032 1.562 17.793 0 22.731.335 28.875 1.906 9.544 2.442 14.911 4.666 12.906 5.375-.825.293-7.575 2.42-15 4.72-14.334 4.439-34.675 13.651-41.781 18.905-5.609 4.147-8.188 8.53-8.188 13.875-.007 7.947 5.238 16.066 17.75 27.47 5.359 4.883 23.226 18.94 27 21.25.14.084-1.965 3.834-4.656 8.312s-6.132 11.63-7.656 15.906-3.052 8.069-3.375 8.406c-.324.338-4.194-1.098-8.594-3.187-9.06-4.303-28.087-10.914-40-13.875-16.773-4.17-26.654-5.212-57-6.063-32.373-.907-37.28-1.59-51.469-7.062-19.4-7.482-33.855-21.875-40.094-39.938-3.13-9.061-3.87-28.166-1.437-36.594 8.254-28.59 43.476-53.139 91.125-63.468 8.488-1.84 14.254-2.204 40.625-2.656 3.874-.067 7.61-.105 11.219-.125m308.969 74.937c1.81.065 3.109.61 4.062 1.563 7.809 7.808-25.361 36.516-79.5 68.812-38.096 22.725-72.081 36.82-119.5 49.563-17.232 4.63-19.922 5.953-17.406 8.468 1.334 1.335 3.33 1.013 17.969-2.906 9.054-2.424 20.69-5.763 25.875-7.437s9.909-2.789 10.5-2.438c6.286 3.73 19.738 14.801 26.125 21.469 13.31 13.895 23.028 27.697 34.718 49.312 6.501 12.02 9.51 19.166 20.594 49 6.637 17.866 12.326 31.879 20.531 50.688 3.042 6.973 9.358 22.383 14.063 34.25 14.961 37.741 27.423 63.103 40.718 82.937 10.13 15.112 42.78 58.287 54.938 72.657 52.834 62.446 103.544 88.968 170.188 88.968 43.627 0 77.829-8.467 198.187-49.062 114.39-38.583 169.069-54.735 228-67.406 95.368-20.507 169.54-19.186 218.188 3.937 19.585 9.31 28.27 15.808 60.312 45.094 86.43 78.996 120.413 144.388 151.063 290.656 5.98 28.538 16.66 86.02 19.937 107.281 15.518 100.691 6.644 192.073-25.687 264.094-5.472 12.188-14.457 28.09-20.313 35.969l-3.781 5.062 29.656 6.844c35.164 8.094 46.534 11.612 62.75 19.438 13.853 6.685 26.375 13.787 26.375 14.968 0 1.88-21.732 26-38.906 43.156-29.177 29.147-51.35 45.483-87.875 64.72-10.474 5.516-12.483 6.267-13.5 5.03-10.718-13.021-28.532-38.995-39.125-57.062l-5.719-9.781-2.281 1.781c-63.046 49.617-137.446 91.603-221.094 124.781-93.103 36.93-185.61 58.32-285.5 66-77.071 5.928-160.878 3.122-240.5-8.062-92.11-12.94-189.595-39.39-260.5-70.657a5171 5171 0 0 0-14.562-6.406c-1.486-.632-4.48 9.893-9.938 35.125-9.637 44.549-10.784 49.355-14.656 61-5.108 15.362-13.686 34.192-21.781 47.781-3.503 5.88-7.549 12.066-8.97 13.75l-2.593 3.063-9-7.719c-27.675-23.765-61.733-57.035-74.125-72.375-9.352-11.576-19.986-28.281-26.469-41.594-3.238-6.649-5.906-12.55-5.906-13.093 0-1.451 18.454-17.483 29.219-25.407 17.803-13.103 38.096-23.936 53.281-28.406l6-1.75-6.5-2.219c-3.575-1.223-14.15-5.291-23.5-9.03-57.858-23.139-102.13-47.625-129-71.345-21.435-18.922-67.634-74.028-89.437-106.656-2.94-4.4-5.48-8.161-5.625-8.344-.146-.182-2.74 1.71-5.782 4.188-15.087 12.289-46.262 26.565-80.75 37-18.11 5.48-16.033 6.696-18.562-10.844-4.638-32.162-5.475-53.774-2.844-73.843 1.63-12.44 4.64-27.827 7.188-36.938l1.593-5.75 3.625.594c8.007 1.346 17.793 4.09 42.844 11.937 14.438 4.523 26.25 8.026 26.25 7.813s-1.057-2.948-2.375-6.094c-11.644-27.804-22.482-66.291-27.5-97.719-4.665-29.214-4.75-45.413-.562-96 5.831-70.44 17.79-113.444 44.875-161.281 12.692-22.416 17.728-41.258 17.687-66.219-.03-18.511-3.832-37.279-10.687-52.781-1.334-3.015-2.438-5.773-2.438-6.156 0-1.148 17.05.007 23.5 1.594 9.224 2.27 20.278 8.097 40.5 21.343 33.924 22.222 49.608 28.215 74 28.281 10.181.028 15.753-.467 22.594-2.03 24.032-5.495 48.38-17.927 66.875-34.094 17.065-14.919 32.559-38.316 38.687-58.438 2.209-7.251 1.99-9.719-.875-9.719-1.361 0-2.347 1.772-4.062 7.25-13.091 41.819-49.78 75.327-96.813 88.469-8.993 2.513-11.404 2.768-26.406 2.75-16.463-.02-16.524-.008-27.5-3.781-13.457-4.627-20.848-8.624-44-23.719-32.154-20.965-37.092-22.756-66.656-23.969-31.785-1.303-44.637.346-58.906 7.531-7.69 3.872-20.358 13.752-24.313 18.938-1.484 1.945-3.06 3.531-3.469 3.531s-1.545-3.937-2.531-8.75c-6.368-31.086-21.154-96.357-23.687-104.562-11.42-36.995-39.599-67.595-81.657-88.656-20.318-10.175-37.636-16.422-72.187-26-10.134-2.81-21.051-6.146-24.25-7.438-7.77-3.138-18.797-9.895-23.281-14.25-3.126-3.036-3.457-3.772-2.344-5.187 2.773-3.528 111.293-128.86 114.562-132.313l3.469-3.687 4.625 2c11.891 5.106 33.644 7.699 46.313 5.53l4.656-.78.593 5.78c3.487 34.618 14.782 59.482 36.813 80.97 23.849 23.26 51.488 34.595 84.75 34.75 15.235.07 24.233-1.26 38-5.625 19.937-6.322 35.067-15.707 50.5-31.282 17.019-17.175 26.653-34.71 32.281-58.875 4.7-20.18 3.216-45.928-3.844-67-11.994-35.802-41.42-64.697-77.437-76.031-27.964-8.8-58.507-8.096-82.781 1.906-3.418 1.408-6.577 2.663-7.031 2.781-.455.119-1.627-2.256-2.594-5.28-2.253-7.047-7.328-17.143-11.813-23.438l-3.531-4.938 2.25-1.812c4.194-3.396 23.287-13.145 34.438-17.563 6.09-2.413 17.587-6.196 25.562-8.437 14.455-4.062 14.523-4.09 22-2.813 4.125.705 17.85 1.435 30.5 1.625 26.594.4 38.476 1.5 54.5 5 21.697 4.74 52 16.634 52 20.406 0 .95.71 2.293 1.563 3 2.255 1.872 3.758-.193 5.843-8.03 4.153-15.611 15.303-34.346 27.875-46.844 16.968-16.87 31.339-23.903 60.313-29.532 25.372-4.929 73.094-11.043 102.406-13.125 24.626-1.748 30.923-2.894 43.75-7.906 6.288-2.457 10.67-3.608 13.688-3.5m-545.594 81.75c6.131.05 12.232.775 18.156 2.188 23.097 5.508 44.485 22.065 55.406 42.906 4.19 7.995 7.911 18.814 7.156 20.781-.765 1.995-62.531 100.46-64.062 102.125-1.562 1.699-26.567 2.492-34.375 1.094C-3.357 43.267-17.897 35.384-31 22.28-48.6 4.681-55.949-13.389-55.969-39c-.019-24.497 8.343-43.5 26.813-60.875 15.192-14.291 36.328-22.492 57.375-22.969a85 85 0 0 1 2.625-.031m471 11.281c17.087-.015 30.346 3.57 68.687 17.25 7.709 2.75 12.66 3.812 21.5 4.594 22.064 1.953 50.802.876 77.688-2.906 7.045-.991 12.943-1.688 13.125-1.531.635.544-27.458 16.838-42.344 24.562-25.586 13.276-47.062 20.91-68.5 24.344-5.775.925-12.237 1.998-14.375 2.375l-3.875.687 12.375 6.157c35.41 17.604 68.087 26.621 112.219 30.937 3.98.39 6.455 1.013 5.937 1.531-1.7 1.7-25.853 11.652-36.781 15.157-13.648 4.376-30.326 8.14-49.375 11.125l-14.625 2.28L587 26.5c1.925.833 6.425 2.735 10 4.25 19.36 8.202 40.818 20.543 57.5 33.063 11.054 8.296 29.69 24.65 30.406 26.687.26.74-.868.863-3.5.406-2.136-.37-11.556-.942-20.906-1.281-20.64-.749-34.925.502-58 5.125-19.44 3.895-37.195 6.952-49.5 8.5-4.675.588-10.077 1.299-12.031 1.594l-3.563.531-7.281-16.062c-12.5-27.577-23.02-53.85-33.625-84.032-11.485-32.685-25.764-56.107-47.375-77.718-4.932-4.932-12.163-11.403-16.062-14.376-5.728-4.366-6.74-5.53-5.313-6.093.972-.384 9.356-3.717 18.625-7.375 19.746-7.794 30.446-10.277 47.844-11.125 2.682-.131 5.184-.186 7.625-.188m-339.281 45.5c1.765-.008 3.726-.003 5.937 0 17.205.023 19.914.267 28.594 2.594 25.587 6.86 45.076 18.647 60.5 36.594 20.393 23.729 29.493 50.857 28.125 83.687-1.943 46.62-32.72 87.9-77.469 103.875-3.996 1.427-11.716 3.485-17.156 4.594-18.138 3.696-41.717 2.303-59.281-3.531-40.586-13.48-71.482-49.606-78.282-91.531-.84-5.18-1.531-12.158-1.531-15.5v-6.063L84.25-2.812 116.5-54.22l6.531-3.187c3.58-1.755 11.006-4.423 16.5-5.938 8.139-2.243 10.67-2.694 23.031-2.75m-558.094 230.5c2.168-.02 4.5.028 7.031.125 10.434.4 14.678 1.042 21.5 3.219 14.534 4.639 31.03 14.595 58.094 35.125 9.124 6.922 14.208 10.16 15.5 9.875 5.524-1.223 53.168-3.75 83.406-4.437 31.079-.706 35.242-1.01 41.938-2.97 9.724-2.844 19.92-7.65 28.437-13.405l6.875-4.657 4.625 3.781c11.663 9.517 20.877 13.935 41.125 19.657 41.712 11.786 57.955 17.477 77.75 27.344 26.549 13.232 45.247 28.048 59.625 47.187 15.46 20.578 18.995 30.287 31.125 85.094 21.893 98.919 23.039 109.136 14.031 126.875-4.388 8.642-9.173 14.878-23.312 30.469-21.692 23.918-45.922 42.25-85.75 64.875-45.451 25.819-89.977 43.67-120.469 48.28-9.308 1.409-10.966 1.501-14 .907-.825-.162-4.875-.83-9-1.5-11.226-1.821-23.692-6.285-41.5-14.875-29.504-14.231-58.177-32.948-93.219-60.781-36.971-29.365-69.981-61.488-88.031-85.719-17.333-23.268-27.991-53.93-31.312-89.937-1.356-14.7-.743-48.114 1.093-59.782l1.188-7.594-9.656-12.812c-11.902-15.765-23.005-32.393-28.688-42.969-4.057-7.549-4.343-8.535-4.687-17.5-.876-22.787 10.394-54.516 25.03-70.531 9.066-9.919 16.074-13.2 31.25-13.344m2022 27.031c26.01-.113 56.938 7.532 84.781 21.375 13.873 6.898 21.243 11.722 38.313 25.063 47.323 36.987 86.898 58.56 116.437 63.438 23.31 3.848 58.992-6.486 109.125-31.594 8.306-4.16 15.25-7.406 15.438-7.219.581.581-26.582 40.636-36.47 53.781-20.485 27.235-31.821 38.838-45.812 46.844-13.708 7.845-28.822 14.767-38.781 17.75-7.871 2.358-11.07 2.738-25.5 3.031-18.193.37-23.78-.464-39.5-5.812-15.48-5.267-33.487-15.151-50.312-27.594-9.037-6.683-32.124-25.79-52.188-43.219-52.983-46.026-53.412-46.4-63.344-52.375-7.583-4.563-18.616-7.115-26.812-6.187-15.606 1.765-46.52 16.596-82.438 39.531l-12.093 7.719-7.657-6.938c-4.205-3.813-7.656-7.408-7.656-7.969 0-1.423 8.799-13.41 18.531-25.28 31.494-38.412 59.455-58.24 88.813-63 5.38-.873 11.122-1.318 17.125-1.345M72.719 876.376c8.254.022 17.193.475 17.812 1.094.285.284-.386 4.288-1.5 8.906-5.646 23.413-8.545 48.666-7.562 65.906.757 13.281 3.214 37.07 4.594 44.344.52 2.745.808 5.129.624 5.313-1.364 1.364-12.227-15.215-16.812-25.657-4.827-10.992-7.366-20.896-9.812-38.375-2.408-17.204-6.063-51.3-6.063-56.593v-3.875l7.625-.688c1.931-.181 4.625-.305 7.625-.344 1.125-.014 2.29-.034 3.469-.03M1744.75 1047.75c.037-.014.08-.014.094 0 .57.57-2.53 14.12-5.938 26.031-10.977 38.37-29.667 68.628-57.437 92.906-4.526 3.958-11.548 9.455-15.594 12.22l-7.375 5.03-5-1.906c-15.805-5.999-33.273-16.409-40.281-24l-2.313-2.5 10.5-5.625c21.313-11.38 43.29-25.636 59.813-38.812 11.26-8.98 45.209-42.498 56.25-55.532 3.587-4.233 6.719-7.594 7.281-7.812zM357.313 1221.125l7.187 14c8.505 16.577 17.36 29.96 28.875 43.656 10.096 12.008 38.806 40.363 58.125 57.406 7.7 6.794 14.663 12.97 15.469 13.72 1.26 1.172 1.05 1.373-1.5 1.312-5.328-.128-21.653-3.984-34.094-8.032-31.63-10.29-64.706-32.13-96.125-63.5-7.837-7.825-14.25-14.595-14.25-15.062 0-1.4 17.855-23.427 27.406-33.813z" style="fill:#000;fill-opacity:1;display:inline" transform="translate(457.796 289.315)"/></g><g style="display:inline"><path d="M-43.81 561.21c-1.609-.218-6.873-.87-11.699-1.449-22.081-2.649-60.093-13.216-83.837-23.308-5.362-2.279-9.822-4.204-9.911-4.279-.09-.074 8.465-.152 19.01-.173 20.614-.04 30.038-1.24 46.468-5.912 17.471-4.97 26.157-9.67 44.355-24.005 26.948-21.227 42.863-29.378 53.765-27.536 4.597.777 9.917 5.098 12.494 10.15 3.747 7.344 5.21 26.975 2.854 38.276-3.743 17.948-17.014 31.209-36.455 36.427-5.646 1.515-30.313 2.72-37.044 1.809" style="fill:#fff;fill-opacity:1;display:inline" transform="translate(457.796 289.315)"/><path d="M27.287 508.279c0-2.475.195-3.488.433-2.25s.238 3.262 0 4.5-.433.225-.433-2.25" style="fill:#806330;fill-opacity:1;display:inline" transform="translate(457.796 289.315)"/><path d="M27.287 508.279c0-2.475.195-3.488.433-2.25s.238 3.262 0 4.5-.433.225-.433-2.25" style="fill:#806330;fill-opacity:1;display:inline" transform="translate(457.796 289.315)"/><path d="M12.546 472.501c-11.058.055-26.824 8.799-51.875 28.531-18.668 14.705-27.577 19.528-45.5 24.625-16.853 4.794-26.51 6.02-47.656 6.063-10.817.021-19.592.08-19.5.156s4.656 2.069 10.156 4.406c24.357 10.352 63.349 21.19 86 23.907 4.95.593 10.35 1.245 12 1.468 6.905.935 32.209-.289 38-1.843 19.943-5.353 33.567-18.964 37.407-37.375 2.417-11.593.905-31.717-2.938-39.25-2.643-5.182-8.097-9.61-12.812-10.407a19 19 0 0 0-3.282-.28m-.968 6.219c3.483-.136 6.472.536 8.156 2.031 3.408 3.026 5.687 9.08 6.969 18.5 1.813 13.328-.424 25.91-6.313 35.75-1.728 2.888-3.36 5.25-3.656 5.25-.297-.003-4.808-11.14-10-24.75S-3.31 489.281-4.047 487.47l-1.344-3.313 5.781-2.656c3.7-1.705 7.704-2.645 11.188-2.781m-22.844 9.094c1.11-.408 4.02 6.165 12.312 27.875 5.97 15.629 10.548 28.885 10.188 29.468-1.017 1.645-8.577 5.762-13.563 7.375-8.526 2.76-9.832 2.864-10.843.97-.517-.968-5.27-12.55-10.563-25.75l-9.625-24 2.781-2.25c4.898-3.981 17.813-13.137 19.313-13.688m-26.375 19.53 9.281 23.188c5.1 12.76 9.476 23.782 9.75 24.47.384.964-2.423 1.215-12.344 1.124-20.186-.186-18.04 1.444-23.281-17.812-4.21-15.47-4.385-16.484-2.687-17.5 2.657-1.59 13.04-8.745 16.375-11.282zm-27.094 17.376c1.015-.136 1.6 1.21 2.75 5.719.885 3.467 2.725 10.25 4.063 15.062l2.406 8.75-2.156-.094c-4.061-.15-24.709-4.587-25.594-5.5-.487-.5-1.177-4.506-1.531-8.906l-.657-8 9.313-3.062c5.125-1.69 10.05-3.41 10.937-3.813a1.8 1.8 0 0 1 .469-.156m-27.75 8.812c1.32-.09 1.723 1.533 2.688 8.97.764 5.898 1.16 5.864-16.032.593-14.401-4.416-17.054-5.844-10.812-5.844 3.82 0 19.75-2.436 23.531-3.594a2.8 2.8 0 0 1 .625-.125" style="fill:#000;fill-opacity:1;display:inline" transform="translate(457.796 289.315)"/></g><g style="display:inline"><path d="M204.27 73.72c-4.19-2.09-5.608-3.506-7.696-7.697-1.408-2.825-2.56-6.76-2.56-8.744s1.152-5.919 2.56-8.744c2.088-4.191 3.505-5.608 7.696-7.696 2.825-1.408 6.76-2.56 8.744-2.56s5.92 1.152 8.744 2.56c4.191 2.088 5.608 3.505 7.697 7.696 1.407 2.825 2.56 6.76 2.56 8.744s-1.153 5.919-2.56 8.744c-2.089 4.191-3.506 5.608-7.697 7.696-2.825 1.408-6.76 2.56-8.744 2.56s-5.919-1.152-8.744-2.56M43.656-17.619c-4.366-2.878-6.629-7.01-6.629-12.102 0-8.047 5.94-13.987 13.987-13.987s13.987 5.94 13.987 13.987-5.94 13.987-13.987 13.987c-2.73 0-5.624-.741-7.358-1.885" style="fill:#000;fill-opacity:1;display:inline" transform="translate(457.796 289.315)"/></g><g style="display:inline"><path d="M-71.708 397.714c10.036-20.048 14.938-36.73 15.118-51.444.104-8.536-.172-10.085-2.717-15.268-3.584-7.3-10.79-14.734-17.757-18.321-4.38-2.255-6.743-2.79-12.41-2.81-17.322-.057-29.215 8.614-39.65 28.91-3.109 6.044-6.895 14.701-8.416 19.239-1.52 4.537-3.13 8.25-3.576 8.25-1.833 0-13.16-15.085-17.27-23-5.691-10.961-7.857-19.286-7.803-30 .055-10.867 2.508-18.772 9.43-30.389 12.126-20.347 27.168-32.569 46.484-37.766 11.012-2.963 29.65-2.946 40.747.037 26.175 7.036 48.171 25.996 58.402 50.339 2.208 5.256 2.631 7.745 2.596 15.279-.037 7.795-.477 10.061-3.286 16.93-8.345 20.409-30.285 48.822-55.605 72.014l-9.765 8.945z" style="fill:#5c4722;fill-opacity:1" transform="translate(457.796 289.315)"/><path d="M-89.937 242.906c-7.423-.007-14.838.738-20.344 2.219-19.317 5.197-34.375 17.402-46.5 37.75-6.923 11.617-9.351 19.54-9.406 30.406-.055 10.714 2.089 19.039 7.78 30 4.111 7.915 15.45 23 17.282 23 .446 0 2.042-3.712 3.563-8.25 1.52-4.537 5.33-13.206 8.437-19.25 10.436-20.296 22.304-28.964 39.625-28.906 5.667.019 8.057.557 12.438 2.813 6.966 3.586 14.165 11.012 17.75 18.312 2.544 5.183 2.822 6.745 2.718 15.281-.18 14.714-5.09 31.39-15.125 51.438l-5.469 10.937 9.75-8.937c25.32-23.192 47.28-51.592 55.626-72 2.809-6.87 3.244-9.142 3.28-16.938.036-7.534-.384-10.025-2.593-15.281-10.23-24.343-32.231-43.308-58.406-50.344-5.549-1.491-12.984-2.243-20.406-2.25m-3.907 6.906c1.323-.01 2.75-.002 4.344 0 13.799.02 15.64.22 23 2.782 13.001 4.526 21.95 10.169 32 20.187 10.042 10.012 15.497 18.447 18.688 28.875 1.921 6.281 1.987 7.506.843 13.906-2.179 12.193-12.537 30.444-27.625 48.72-7.367 8.923-14.297 16.62-14.343 15.906-.022-.327.84-3.188 1.937-6.375 5.123-14.89 6.38-35.025 2.719-43.72-2.41-5.721-9.287-14.252-15.157-18.78-12.538-9.674-27.74-10.564-44.093-2.563-9.825 4.807-20.325 18.748-28.531 37.875l-3.375 7.875-2.844-3.375c-3.8-4.49-11.222-20.02-12.75-26.719-1.93-8.457-.782-20.363 2.781-28.844 8.854-21.072 25.784-37.553 44.75-43.562 5.21-1.65 8.399-2.11 17.656-2.187" style="fill:#000;fill-opacity:1" transform="translate(457.796 289.315)"/></g></svg>