<?xml version="1.0" encoding="utf-8"?>
<!-- Generator: Adobe Illustrator 15.1.0, SVG Export Plug-In . SVG Version: 6.00 Build 0)  -->
<!DOCTYPE svg PUBLIC "-//W3C//DTD SVG 1.1//EN" "http://www.w3.org/Graphics/SVG/1.1/DTD/svg11.dtd">
<svg version="1.1" id="circle_pieces" xmlns="http://www.w3.org/2000/svg" xmlns:xlink="http://www.w3.org/1999/xlink" x="0px"
	 y="0px" width="511.875px" height="511.824px" viewBox="0 0 511.875 511.824" enable-background="new 0 0 511.875 511.824"
	 xml:space="preserve">
<circle id="circle" fill="#FFFFFF" cx="256.252" cy="255.986" r="253.093"/>
<path id="blue-piece" fill="#3E5BA9" d="M455.398,412.197c33.792-43.021,53.946-97.262,53.946-156.211
	c0-139.779-113.313-253.093-253.093-253.093c-30.406,0-59.558,5.367-86.566,15.197C272.435,71.989,408.349,247.839,455.398,412.197z
	"/>
<path id="left-red-piece" fill="#9F1D20" d="M220.003,164.337c-39.481-42.533-83.695-76.312-130.523-98.715
	C36.573,112.011,3.159,180.092,3.159,255.986c0,63.814,23.626,122.104,62.597,166.623
	C100.111,319.392,164.697,219.907,220.003,164.337z"/>
<path id="bottom-red-piece" fill="#9F1D20" d="M266.638,221.727c-54.792,59.051-109.392,162.422-129.152,257.794
	c35.419,18.857,75.84,29.559,118.766,29.559c44.132,0,85.618-11.306,121.74-31.163C357.171,381.712,317.868,293.604,266.638,221.727
	z"/>
</svg>
