<?xml version="1.0" encoding="UTF-8"?><svg id="Logo" xmlns="http://www.w3.org/2000/svg" viewBox="0 0 16 14.87"><path d="M12.59,6.47c0-1.18-.22-2.35-.65-3.45-.09,.04-.16,.07-.2,.09h0c-.2,.1-.31,.32-.28,.54,.05,.48,.08,.96,.08,1.45,0,2.21-.71,4.33-2.01,5.96-1.22,1.55-2.87,2.54-4.65,2.83h.01c1.05,.6,2.32,.64,3.4,.11,2.52-1.23,4.3-4.14,4.3-7.53Z"/><path d="M13.08,2.8c-.16,0-.31,0-.47,.03,.45,1.16,.68,2.4,.68,3.64,0,3.79-2.11,7.16-5.2,8.39,.16,0,.31,.02,.47,.02h.02c1.49,0,2.9-.68,3.83-1.84,1.18-1.46,1.91-3.43,1.91-5.59,.01-1.63-.42-3.24-1.24-4.64Z"/><path d="M16,7.44c0-.98-.19-1.95-.57-2.85-.16-.41-.41-.77-.71-1.08-.17-.17-.35-.31-.56-.42-.05-.03-.1-.05-.16-.07,.68,1.38,1.03,2.89,1.03,4.43,0,2.2-.72,4.31-1.99,5.93,1.86-1.4,2.96-3.6,2.96-5.93Z"/><path d="M13.9,2.26C12.5,.81,10.58,0,8.57,0,4.46,0,1.09,3.4,1.13,7.51c0,.97,.21,1.94,.59,2.83-.12-.02-.25-.02-.37-.02-.33,.02-.8-.11-1.02-.17s-.4,.11-.32,.31H.02c.74,1.7,2.37,2.8,3.94,2.79h0c.1,0,.21,0,.31-.02,3.66-.28,6.56-3.83,6.56-8.16,0-.27-.01-.54-.03-.81,0-.09-.08-.15-.17-.15-.05,0-.09,.03-.12,.06h0c-1.01,1.34-2.51,3.69-4.38,2.47-.72-.47-1.11-1.48-.89-2.51,.39-1.85,2.55-3.06,3.5-2.68,.07,.03,.34,.14,.43,.38,.14,.37-.28,.68-.49,1.34-.23,.71-.1,1.47,.06,1.5,.18,.04,.48-.63,1.23-1.23,.54-.44,.95-.56,1.21-1.02,.25-.45-.19-.93-.04-.97s.29,.48,.74,.74c.37,.22,.71,.08,1.2,.06,.18,0,.36,.01,.54,.04,0,0,.1,.01,.25,.04,.03,0,.06,0,.07-.04,0-.02,0-.04-.02-.06Zm-5.54,5.73c.08-.11,.2-.18,.34-.21,.12-.02,.24,.02,.33,.09,.18,.17,.13,.49-.03,.68-.14,.17-.43,.28-.63,.16-.11-.09-.18-.22-.18-.36,0-.13,.06-.26,.16-.36Z"/></svg>