<?xml version="1.0" encoding="utf-8"?>
<!DOCTYPE svg PUBLIC "-//W3C//DTD SVG 1.1//EN" "http://www.w3.org/Graphics/SVG/1.1/DTD/svg11.dtd">
<svg version="1.1" xmlns="http://www.w3.org/2000/svg" viewBox="0 0 441.85 290.69">
    <path fill-rule="evenodd" transform="translate(-29.07 -104.65)"
        d="M29.52,117.06a16.16,16.16,0,0,1,16-12.4,16.24,16.24,0,0,1,4,.44l169.24,
        40.5h0c1,.24,2,.5,2.95.78a115.92,115.92,0,0,0,56.62,0c1-.28,2-.54,2.95-.78h0l169.24-40.5a16.21,
        16.21,0,1,1,8,31.41L289.06,177l-2.09.56a29.38,29.38,0,0,
        0-20.8,28.06v20.67a50.63,50.63,0,0,0,8.13,
        27.52l64.41,99.51a21.48,
        21.48,0,0,0,33.73,2.94l70.48-75.73a16.16,16.16,0,0,1,23.68,22L396.12,
        378.2a53.84,53.84,0,0,1-84.56-7.39L253,280.31a3.55,3.55,0,0,0-6,0l-58.58,90.5a53.84,
        53.84,0,0,1-84.56,7.39L33.4,302.47a16.16,16.16,0,0,1,23.68-22l70.48,75.73a21.48,
        21.48,0,0,0,
        33.73-2.94l64.41-99.51a50.63,50.63,0,
        0,0,8.13-27.52V205.57A29.37,
        29.37,0,0,0,213,177.51l-2.09-.56L41.49,136.51A16.14,16.14,0,0,1,29.52,117.06Z"
    />
</svg>
