<?xml version="1.0" encoding="UTF-8" standalone="no"?>
<!-- Generator: Adobe Illustrator 19.0.0, SVG Export Plug-In . SVG Version: 6.00 Build 0)  -->

<svg
   xmlns:dc="http://purl.org/dc/elements/1.1/"
   xmlns:cc="http://creativecommons.org/ns#"
   xmlns:rdf="http://www.w3.org/1999/02/22-rdf-syntax-ns#"
   xmlns:svg="http://www.w3.org/2000/svg"
   xmlns="http://www.w3.org/2000/svg"
   xmlns:sodipodi="http://sodipodi.sourceforge.net/DTD/sodipodi-0.dtd"
   xmlns:inkscape="http://www.inkscape.org/namespaces/inkscape"
   version="1.1"
   id="Layer_1"
   x="0px"
   y="0px"
   viewBox="0 0 894 270"
   xml:space="preserve"
   sodipodi:docname="site-logo-beta.svg"
   width="894"
   height="270"
   inkscape:version="0.92.2 (5c3e80d, 2017-08-06)"><metadata
     id="metadata34"><rdf:RDF><cc:Work
         rdf:about=""><dc:format>image/svg+xml</dc:format><dc:type
           rdf:resource="http://purl.org/dc/dcmitype/StillImage" /><dc:title></dc:title></cc:Work></rdf:RDF></metadata><defs
     id="defs32" /><sodipodi:namedview
     pagecolor="#ffffff"
     bordercolor="#666666"
     borderopacity="1"
     objecttolerance="10"
     gridtolerance="10"
     guidetolerance="10"
     inkscape:pageopacity="0"
     inkscape:pageshadow="2"
     inkscape:window-width="2560"
     inkscape:window-height="1385"
     id="namedview30"
     showgrid="false"
     inkscape:zoom="2"
     inkscape:cx="401.37707"
     inkscape:cy="149.97442"
     inkscape:window-x="0"
     inkscape:window-y="27"
     inkscape:window-maximized="1"
     inkscape:current-layer="Layer_1" /><style
     type="text/css"
     id="style2">
	.st0{fill:#3C3C3F;}
	.st1{fill:#67C52A;}
</style><g
     id="g128"
     transform="translate(-8.148752,-12.944682)"><g
       id="text80-5"
       style="font-style:normal;font-variant:normal;font-weight:bold;font-stretch:normal;font-size:131.8710022px;line-height:1.25;font-family:'Nimbus Sans L';-inkscape-font-specification:'Nimbus Sans L, Bold';font-variant-ligatures:normal;font-variant-caps:normal;font-variant-numeric:normal;font-feature-settings:normal;text-align:start;letter-spacing:0px;word-spacing:0px;writing-mode:lr-tb;text-anchor:start;fill:#000000;fill-opacity:1;stroke:none;stroke-width:2.47258139"
       transform="rotate(-34.76584,26.327563,-8.24194)"
       aria-label="BETA"><path
         id="path82-0"
         style="fill:#000000;stroke-width:2.47258139"
         d="m 343.27763,558.93536 h 43.25368 c 11.07717,0 18.46194,-2.10993 24.26427,-6.98916 5.80232,-4.87923 9.49471,-13.05523 9.49471,-20.70375 0,-9.49471 -5.14297,-17.01136 -15.95639,-23.34116 9.49471,-6.06607 13.1871,-11.60465 13.1871,-19.78065 0,-6.59355 -3.29678,-13.58272 -8.70349,-18.33007 -5.67045,-4.87923 -12.39587,-6.98917 -22.68181,-6.98917 h -42.85807 z m 19.78065,-79.65008 h 21.49497 c 9.0991,0 13.97832,3.82426 13.97832,10.94529 0,6.98916 -4.87922,10.81342 -13.97832,10.81342 h -21.49497 z m 0,38.24259 h 23.6049 c 9.62659,0 14.63769,4.35174 14.63769,12.52774 0,8.04414 -5.0111,12.39588 -14.63769,12.39588 h -23.6049 z"
         inkscape:connector-curvature="0" /><path
         id="path84-2"
         style="fill:#000000;stroke-width:2.47258139"
         d="m 457.96006,517.52787 h 46.02298 v -16.48388 h -46.02298 v -21.75871 h 49.71537 V 462.8014 h -69.49602 v 96.13396 h 71.8697 v -16.48387 h -52.08905 z"
         inkscape:connector-curvature="0" /><path
         id="path86-9"
         style="fill:#000000;stroke-width:2.47258139"
         d="m 566.61766,479.28528 h 28.08852 V 462.8014 h -77.01267 v 16.48388 h 29.1435 v 79.65008 h 19.78065 z"
         inkscape:connector-curvature="0" /><path
         id="path88-4"
         style="fill:#000000;stroke-width:2.47258139"
         d="m 662.53115,539.55033 6.32981,19.38503 h 20.30813 L 655.9376,462.8014 h -21.89059 l -34.15459,96.13396 h 20.17627 l 6.46167,-19.38503 z m -5.40671,-16.48388 h -25.05549 l 12.52774,-37.58323 z"
         inkscape:connector-curvature="0" /></g><g
       id="text80"
       style="font-style:normal;font-variant:normal;font-weight:bold;font-stretch:normal;font-size:131.8710022px;line-height:1.25;font-family:'Nimbus Sans L';-inkscape-font-specification:'Nimbus Sans L, Bold';font-variant-ligatures:normal;font-variant-caps:normal;font-variant-numeric:normal;font-feature-settings:normal;text-align:start;letter-spacing:0px;word-spacing:0px;writing-mode:lr-tb;text-anchor:start;fill:#ff0000;fill-opacity:1;stroke:none;stroke-width:2.47258139"
       transform="rotate(-34.76584,15.176413,22.284294)"
       aria-label="BETA"><path
         inkscape:connector-curvature="0"
         id="path82"
         style="fill:#ff0000;stroke-width:2.47258139"
         d="m 343.27763,558.93536 h 43.25368 c 11.07717,0 18.46194,-2.10993 24.26427,-6.98916 5.80232,-4.87923 9.49471,-13.05523 9.49471,-20.70375 0,-9.49471 -5.14297,-17.01136 -15.95639,-23.34116 9.49471,-6.06607 13.1871,-11.60465 13.1871,-19.78065 0,-6.59355 -3.29678,-13.58272 -8.70349,-18.33007 -5.67045,-4.87923 -12.39587,-6.98917 -22.68181,-6.98917 h -42.85807 z m 19.78065,-79.65008 h 21.49497 c 9.0991,0 13.97832,3.82426 13.97832,10.94529 0,6.98916 -4.87922,10.81342 -13.97832,10.81342 h -21.49497 z m 0,38.24259 h 23.6049 c 9.62659,0 14.63769,4.35174 14.63769,12.52774 0,8.04414 -5.0111,12.39588 -14.63769,12.39588 h -23.6049 z" /><path
         inkscape:connector-curvature="0"
         id="path84"
         style="fill:#ff0000;stroke-width:2.47258139"
         d="m 457.96006,517.52787 h 46.02298 v -16.48388 h -46.02298 v -21.75871 h 49.71537 V 462.8014 h -69.49602 v 96.13396 h 71.8697 v -16.48387 h -52.08905 z" /><path
         inkscape:connector-curvature="0"
         id="path86"
         style="fill:#ff0000;stroke-width:2.47258139"
         d="m 566.61766,479.28528 h 28.08852 V 462.8014 h -77.01267 v 16.48388 h 29.1435 v 79.65008 h 19.78065 z" /><path
         inkscape:connector-curvature="0"
         id="path88"
         style="fill:#ff0000;stroke-width:2.47258139"
         d="m 662.53115,539.55033 6.32981,19.38503 h 20.30813 L 655.9376,462.8014 h -21.89059 l -34.15459,96.13396 h 20.17627 l 6.46167,-19.38503 z m -5.40671,-16.48388 h -25.05549 l 12.52774,-37.58323 z" /></g></g></svg>