<?xml version="1.0" encoding="UTF-8" standalone="no"?>
<!-- Generator: Adobe Illustrator 19.0.0, SVG Export Plug-In . SVG Version: 6.00 Build 0)  -->

<svg
   xmlns:dc="http://purl.org/dc/elements/1.1/"
   xmlns:cc="http://creativecommons.org/ns#"
   xmlns:rdf="http://www.w3.org/1999/02/22-rdf-syntax-ns#"
   xmlns:svg="http://www.w3.org/2000/svg"
   xmlns="http://www.w3.org/2000/svg"
   xmlns:sodipodi="http://sodipodi.sourceforge.net/DTD/sodipodi-0.dtd"
   xmlns:inkscape="http://www.inkscape.org/namespaces/inkscape"
   version="1.1"
   id="Layer_1"
   x="0px"
   y="0px"
   viewBox="0 0 894 270"
   xml:space="preserve"
   sodipodi:docname="site-logo.svg"
   width="894"
   height="270"
   inkscape:version="0.92.2 (5c3e80d, 2017-08-06)"><metadata
     id="metadata34"><rdf:RDF><cc:Work
         rdf:about=""><dc:format>image/svg+xml</dc:format><dc:type
           rdf:resource="http://purl.org/dc/dcmitype/StillImage" /><dc:title></dc:title></cc:Work></rdf:RDF></metadata><defs
     id="defs32" /><sodipodi:namedview
     pagecolor="#ffffff"
     bordercolor="#666666"
     borderopacity="1"
     objecttolerance="10"
     gridtolerance="10"
     guidetolerance="10"
     inkscape:pageopacity="0"
     inkscape:pageshadow="2"
     inkscape:window-width="2560"
     inkscape:window-height="1385"
     id="namedview30"
     showgrid="false"
     inkscape:zoom="2"
     inkscape:cx="428.54963"
     inkscape:cy="149.97442"
     inkscape:window-x="0"
     inkscape:window-y="27"
     inkscape:window-maximized="1"
     inkscape:current-layer="Layer_1" /><style
     type="text/css"
     id="style2">
	.st0{fill:#3C3C3F;}
	.st1{fill:#67C52A;}
</style><g
     id="Compiler_Explorer"
     transform="translate(-194.61988,-264.269)"><g
       id="Explorer"><path
         id="XMLID_10_"
         class="st0"
         d="m 516.7,425.4 h -24.1 v 13 h 22.8 v 17.1 H 492.6 V 469 h 24.1 v 17.1 h -44.3 v -77.9 h 44.3 z"
         inkscape:connector-curvature="0"
         style="fill:#3c3c3f" /><path
         id="XMLID_16_"
         class="st0"
         d="m 561.3,444.6 -24.9,-36.3 h 24.9 l 11.9,20.1 11.9,-20.1 H 610 l -24.9,36.3 28.8,41.6 h -24.4 l -16.3,-25.4 -17.9,25.4 h -24.5 z"
         inkscape:connector-curvature="0"
         style="fill:#3c3c3f" /><path
         id="XMLID_18_"
         class="st0"
         d="m 628.3,486.2 v -77.9 h 31 c 8.7,0 15.6,2.1 20.7,6.4 5.1,4.2 7.6,10.7 7.6,19.3 0,17.6 -9.2,26.4 -27.6,26.4 h -11.5 v 25.8 z m 20.3,-61.6 V 444 h 3.4 c 1.9,0 3.4,0 4.4,-0.1 1,0 2.3,-0.2 3.8,-0.6 1.5,-0.3 2.7,-0.8 3.5,-1.4 0.8,-0.6 1.4,-1.5 2,-2.8 0.6,-1.2 0.9,-2.8 0.9,-4.6 0,-1.9 -0.3,-3.5 -0.8,-4.8 -0.6,-1.3 -1.2,-2.3 -2,-2.9 -0.8,-0.7 -1.9,-1.2 -3.4,-1.5 -1.5,-0.3 -2.8,-0.5 -3.8,-0.6 -1.1,-0.1 -2.6,-0.1 -4.6,-0.1 z"
         inkscape:connector-curvature="0"
         style="fill:#3c3c3f" /><path
         id="XMLID_22_"
         class="st0"
         d="M 724.2,408.3 V 469 h 24.3 v 17.1 H 704 v -77.9 h 20.2 z"
         inkscape:connector-curvature="0"
         style="fill:#3c3c3f" /><path
         id="XMLID_25_"
         class="st0"
         d="m 780.7,410.7 c 6.5,-3.3 13.6,-5 21.1,-5 7.5,0 14.5,1.7 21.1,5 6.5,3.3 11.8,8.1 15.9,14.3 4.1,6.2 6.1,13.1 6.1,20.8 0,12.6 -4,22.9 -12.1,30.9 -8.1,8 -18.4,12 -30.9,12 -12.5,0 -22.8,-4 -30.9,-12 -8.1,-8 -12.1,-18.3 -12.1,-30.9 0,-7.6 2,-14.6 6.1,-20.8 3.8,-6.2 9.1,-10.9 15.7,-14.3 z m 36.5,20.8 c -4.3,-4.1 -9.5,-6.2 -15.5,-6.2 -6,0 -11.2,2.1 -15.5,6.2 -4.3,4.1 -6.5,8.9 -6.5,14.4 0,6.6 2.1,12.1 6.4,16.6 4.3,4.4 9.5,6.7 15.6,6.7 6.1,0 11.3,-2.2 15.6,-6.7 4.3,-4.4 6.4,-10 6.4,-16.6 0.1,-5.4 -2.1,-10.2 -6.5,-14.4 z"
         inkscape:connector-curvature="0"
         style="fill:#3c3c3f" /><path
         id="XMLID_28_"
         class="st0"
         d="m 903.5,454.3 24.5,31.9 h -25.2 l -19.1,-30 h -0.2 v 30 h -20.2 v -77.9 h 30.3 c 8.1,0 14.7,2 19.6,6 5,4 7.4,10 7.4,18 0,5.6 -1.5,10.4 -4.5,14.5 -3.1,4 -7.3,6.5 -12.6,7.5 z m -20.1,-30.5 v 19.4 h 2 c 9.4,0 14,-3.2 14,-9.7 0,-6.5 -4.7,-9.7 -14,-9.7 z"
         inkscape:connector-curvature="0"
         style="fill:#3c3c3f" /><path
         id="XMLID_31_"
         class="st0"
         d="m 986.5,425.4 h -24.1 v 13 h 22.8 v 17.1 H 962.4 V 469 h 24.1 v 17.1 h -44.3 v -77.9 h 44.3 z"
         inkscape:connector-curvature="0"
         style="fill:#3c3c3f" /><path
         id="XMLID_33_"
         class="st0"
         d="m 1048.3,454.3 24.5,31.9 h -25.2 l -19.1,-30 h -0.2 v 30 H 1008 v -77.9 h 30.3 c 8.1,0 14.7,2 19.6,6 5,4 7.4,10 7.4,18 0,5.6 -1.5,10.4 -4.5,14.5 -2.9,4 -7.1,6.5 -12.5,7.5 z m -20,-30.5 v 19.4 h 2 c 9.4,0 14,-3.2 14,-9.7 0,-6.5 -4.7,-9.7 -14,-9.7 z"
         inkscape:connector-curvature="0"
         style="fill:#3c3c3f" /></g><g
       id="Compiler"><path
         id="XMLID_36_"
         class="st1"
         d="m 532,315.7 v 24.4 c -2.1,-2.8 -4.7,-4.9 -7.8,-6.4 -3.2,-1.5 -6.5,-2.2 -10,-2.2 -6.2,0 -11.2,2.1 -15.1,6.2 -3.9,4.2 -5.8,9.3 -5.8,15.5 0,6.2 2,11.3 5.9,15.3 3.9,4 9,6 15.3,6 3.3,0 6.5,-0.7 9.7,-2.2 3.1,-1.5 5.7,-3.5 7.9,-6.1 v 24.4 c -7.9,2.4 -13.9,3.6 -18,3.6 -11.1,0 -20.9,-3.8 -29.4,-11.5 -8.4,-7.5 -12.6,-17.4 -12.6,-29.6 0,-11.2 3.8,-20.8 11.5,-28.7 3.9,-3.9 8.4,-7 13.7,-9.3 5.3,-2.2 10.6,-3.4 16.1,-3.4 6,0.1 12.2,1.4 18.6,4 z"
         inkscape:connector-curvature="0"
         style="fill:#67c52a" /><path
         id="XMLID_38_"
         class="st1"
         d="m 570.4,316.3 c 6.6,-3.4 13.6,-5 21.2,-5 7.5,0 14.6,1.7 21.2,5 6.6,3.4 11.9,8.2 16,14.4 4.1,6.2 6.1,13.2 6.1,20.9 0,12.7 -4.1,23 -12.2,31.1 -8.1,8.1 -18.5,12.1 -31.1,12.1 -12.6,0 -23,-4 -31.1,-12.1 -8.1,-8.1 -12.2,-18.4 -12.2,-31.1 0,-7.7 2,-14.6 6.1,-20.9 4.1,-6.3 9.4,-11.1 16,-14.4 z m 36.8,20.9 c -4.4,-4.2 -9.6,-6.2 -15.6,-6.2 -6,0 -11.2,2.1 -15.6,6.2 -4.4,4.2 -6.5,9 -6.5,14.4 0,6.6 2.1,12.2 6.4,16.7 4.3,4.5 9.5,6.7 15.7,6.7 6.2,0 11.4,-2.2 15.7,-6.7 4.3,-4.5 6.4,-10 6.4,-16.7 0,-5.4 -2.1,-10.2 -6.5,-14.4 z"
         inkscape:connector-curvature="0"
         style="fill:#67c52a" /><path
         id="XMLID_41_"
         class="st1"
         d="m 647.5,392.1 13.3,-78.3 h 20 l 15.9,41.9 16.8,-41.9 h 20.3 l 11.8,78.3 H 725.2 L 719.5,347 h -0.2 l -18.8,45.1 h -8.1 l -18,-45.1 h -0.2 l -6.5,45.1 z"
         inkscape:connector-curvature="0"
         style="fill:#67c52a" /><path
         id="XMLID_43_"
         class="st1"
         d="m 763.3,392.1 v -78.3 h 31.2 c 8.8,0 15.7,2.1 20.8,6.4 5.1,4.3 7.6,10.7 7.6,19.4 0,17.7 -9.2,26.6 -27.7,26.6 h -11.5 v 26 h -20.4 z m 20.4,-61.9 v 19.5 h 3.4 c 1.9,0 3.4,0 4.4,-0.1 1,0 2.3,-0.2 3.8,-0.6 1.6,-0.3 2.7,-0.8 3.5,-1.5 0.8,-0.6 1.4,-1.6 2,-2.8 0.6,-1.2 0.9,-2.8 0.9,-4.7 0,-1.9 -0.3,-3.5 -0.8,-4.8 -0.6,-1.3 -1.2,-2.3 -2,-3 -0.8,-0.7 -1.9,-1.2 -3.4,-1.5 -1.5,-0.3 -2.8,-0.5 -3.8,-0.6 -1.1,-0.1 -2.6,-0.1 -4.6,-0.1 h -3.4 z"
         inkscape:connector-curvature="0"
         style="fill:#67c52a" /><path
         id="XMLID_46_"
         class="st1"
         d="m 860,313.8 v 78.3 h -20.4 v -78.3 z"
         inkscape:connector-curvature="0"
         style="fill:#67c52a" /><path
         id="XMLID_48_"
         class="st1"
         d="m 902.6,313.8 v 61.1 H 927 v 17.2 h -44.8 v -78.3 z"
         inkscape:connector-curvature="0"
         style="fill:#67c52a" /><path
         id="XMLID_50_"
         class="st1"
         d="m 986.4,331.1 h -24.2 v 13.1 h 23 v 17.2 h -23 v 13.5 h 24.2 v 17.2 h -44.6 v -78.3 h 44.6 z"
         inkscape:connector-curvature="0"
         style="fill:#67c52a" /><path
         id="XMLID_52_"
         class="st1"
         d="m 1048.6,360.1 24.6,32.1 h -25.3 l -19.2,-30.1 h -0.2 v 30.1 H 1008 v -78.3 h 30.4 c 8.2,0 14.7,2 19.7,6 5,4 7.5,10 7.5,18.1 0,5.6 -1.5,10.5 -4.5,14.5 -2.9,4.1 -7.1,6.6 -12.5,7.6 z m -20.2,-30.7 v 19.5 h 2 c 9.4,0 14.1,-3.3 14.1,-9.8 0,-6.5 -4.7,-9.8 -14.1,-9.8 h -2 z"
         inkscape:connector-curvature="0"
         style="fill:#67c52a" /></g></g><g
     id="CE"
     transform="translate(-194.61988,-264.269)"><path
       id="C"
       class="st1"
       d="m 422.8,456.7 c -1.1,-2.1 -1.1,-4.6 0,-6.6 1.4,-2.5 2.6,-5 3.8,-7.6 0.8,-1.9 -0.5,-4 -2.6,-4 h -22.5 c -2.3,0 -4.5,1.2 -5.7,3.1 -2.9,4.4 -6.3,8.7 -10.1,12.5 -14.5,14.5 -33.7,22.4 -54.1,22.4 -20.5,0 -39.7,-8 -54.1,-22.4 C 262.9,439.7 255,420.5 255,400 c 0,-20.5 8,-39.7 22.4,-54.1 14.5,-14.5 33.7,-22.4 54.1,-22.4 20.5,0 39.7,8 54.1,22.4 3.9,3.9 7.2,8.1 10.1,12.5 1.3,1.9 3.4,3.1 5.7,3.1 H 424 c 2.1,0 3.4,-2.1 2.6,-4 -1.2,-2.6 -2.4,-5.1 -3.8,-7.6 -1.1,-2.1 -1.1,-4.6 0,-6.6 l 7.6,-13.8 c 1.5,-2.7 1,-6 -1.2,-8.2 l -19.1,-19.1 c -2.2,-2.2 -5.5,-2.6 -8.2,-1.2 l -13.9,7.7 c -2.1,1.1 -4.6,1.1 -6.6,0 -6.6,-3.6 -13.6,-6.5 -20.8,-8.6 -2.3,-0.7 -4.1,-2.4 -4.7,-4.7 l -4.4,-15.2 c -0.9,-2.9 -3.5,-5 -6.6,-5 h -27 c -3.1,0 -5.8,2 -6.6,5 l -4.4,15.2 c -0.7,2.3 -2.4,4 -4.7,4.7 -7.2,2.1 -14.2,5 -20.8,8.6 -2.1,1.1 -4.6,1.2 -6.6,0 L 260.9,301 c -2.7,-1.5 -6,-1 -8.2,1.2 l -19.1,19.1 c -2.2,2.2 -2.6,5.5 -1.2,8.2 l 7.7,13.9 c 1.1,2.1 1.1,4.6 0,6.6 -3.6,6.6 -6.5,13.6 -8.6,20.8 -0.7,2.3 -2.4,4.1 -4.7,4.7 l -15.2,4.4 c -2.9,0.9 -5,3.5 -5,6.6 v 27 c 0,3.1 2,5.8 5,6.6 l 15.2,4.4 c 2.3,0.7 4,2.4 4.7,4.7 2.1,7.2 5,14.2 8.6,20.8 1.1,2.1 1.2,4.6 0,6.6 l -7.7,13.9 c -1.5,2.7 -1,6 1.2,8.2 l 19.1,19.1 c 2.2,2.2 5.5,2.6 8.2,1.2 l 13.9,-7.7 c 2.1,-1.1 4.6,-1.1 6.6,0 6.6,3.6 13.6,6.5 20.8,8.6 2.3,0.7 4.1,2.4 4.7,4.7 l 4.4,15.2 c 0.9,2.9 3.5,5 6.6,5 h 27 c 3.1,0 5.8,-2 6.6,-5 l 4.4,-15.2 c 0.7,-2.3 2.4,-4 4.7,-4.7 7.2,-2.1 14.2,-5 20.8,-8.6 2.1,-1.1 4.6,-1.2 6.6,0 l 13.9,7.7 c 2.7,1.5 6,1 8.2,-1.2 l 19.1,-19.1 c 2.2,-2.2 2.6,-5.5 1.2,-8.2 z"
       inkscape:connector-curvature="0"
       style="fill:#67c52a" /><g
       id="E"><rect
         id="XMLID_15_"
         x="285.70001"
         y="361.10001"
         class="st0"
         width="92.699997"
         height="17.200001"
         style="fill:#3c3c3f" /><rect
         id="XMLID_14_"
         x="285.70001"
         y="391.70001"
         class="st0"
         width="76.400002"
         height="17.200001"
         style="fill:#3c3c3f" /><rect
         id="XMLID_13_"
         x="285.70001"
         y="422.29999"
         class="st0"
         width="92.699997"
         height="17.200001"
         style="fill:#3c3c3f" /></g></g></svg>