<?xml version="1.0" encoding="utf-8"?>
<!-- Generator: Adobe Illustrator 19.0.0, SVG Export Plug-In . SVG Version: 6.00 Build 0)  -->
<svg version="1.1" id="Layer_1" xmlns="http://www.w3.org/2000/svg" xmlns:xlink="http://www.w3.org/1999/xlink" x="0px" y="0px"
	 viewBox="0 0 1280 800" style="enable-background:new 0 0 1280 800;" xml:space="preserve">
<style type="text/css">
	.st0{fill:#3C3C3F;}
	.st1{fill:#67C52A;}
</style>
<g id="Compiler_Explorer">
	<g id="Explorer">
		<path id="XMLID_10_" class="st0" d="M516.7,425.4h-24.1v13h22.8v17.1h-22.8V469h24.1v17.1h-44.3v-77.9h44.3V425.4z"/>
		<path id="XMLID_16_" class="st0" d="M561.3,444.6l-24.9-36.3h24.9l11.9,20.1l11.9-20.1H610l-24.9,36.3l28.8,41.6h-24.4l-16.3-25.4
			l-17.9,25.4h-24.5L561.3,444.6z"/>
		<path id="XMLID_18_" class="st0" d="M628.3,486.2v-77.9h31c8.7,0,15.6,2.1,20.7,6.4c5.1,4.2,7.6,10.7,7.6,19.3
			c0,17.6-9.2,26.4-27.6,26.4h-11.5v25.8H628.3z M648.6,424.6V444h3.4c1.9,0,3.4,0,4.4-0.1c1,0,2.3-0.2,3.8-0.6
			c1.5-0.3,2.7-0.8,3.5-1.4c0.8-0.6,1.4-1.5,2-2.8c0.6-1.2,0.9-2.8,0.9-4.6c0-1.9-0.3-3.5-0.8-4.8c-0.6-1.3-1.2-2.3-2-2.9
			c-0.8-0.7-1.9-1.2-3.4-1.5c-1.5-0.3-2.8-0.5-3.8-0.6c-1.1-0.1-2.6-0.1-4.6-0.1H648.6z"/>
		<path id="XMLID_22_" class="st0" d="M724.2,408.3V469h24.3v17.1H704v-77.9H724.2z"/>
		<path id="XMLID_25_" class="st0" d="M780.7,410.7c6.5-3.3,13.6-5,21.1-5c7.5,0,14.5,1.7,21.1,5c6.5,3.3,11.8,8.1,15.9,14.3
			c4.1,6.2,6.1,13.1,6.1,20.8c0,12.6-4,22.9-12.1,30.9c-8.1,8-18.4,12-30.9,12c-12.5,0-22.8-4-30.9-12c-8.1-8-12.1-18.3-12.1-30.9
			c0-7.6,2-14.6,6.1-20.8C768.8,418.8,774.1,414.1,780.7,410.7z M817.2,431.5c-4.3-4.1-9.5-6.2-15.5-6.2c-6,0-11.2,2.1-15.5,6.2
			c-4.3,4.1-6.5,8.9-6.5,14.4c0,6.6,2.1,12.1,6.4,16.6c4.3,4.4,9.5,6.7,15.6,6.7c6.1,0,11.3-2.2,15.6-6.7c4.3-4.4,6.4-10,6.4-16.6
			C823.8,440.5,821.6,435.7,817.2,431.5z"/>
		<path id="XMLID_28_" class="st0" d="M903.5,454.3l24.5,31.9h-25.2l-19.1-30h-0.2v30h-20.2v-77.9h30.3c8.1,0,14.7,2,19.6,6
			c5,4,7.4,10,7.4,18c0,5.6-1.5,10.4-4.5,14.5C913,450.8,908.8,453.3,903.5,454.3z M883.4,423.8v19.4h2c9.4,0,14-3.2,14-9.7
			c0-6.5-4.7-9.7-14-9.7H883.4z"/>
		<path id="XMLID_31_" class="st0" d="M986.5,425.4h-24.1v13h22.8v17.1h-22.8V469h24.1v17.1h-44.3v-77.9h44.3V425.4z"/>
		<path id="XMLID_33_" class="st0" d="M1048.3,454.3l24.5,31.9h-25.2l-19.1-30h-0.2v30H1008v-77.9h30.3c8.1,0,14.7,2,19.6,6
			c5,4,7.4,10,7.4,18c0,5.6-1.5,10.4-4.5,14.5C1057.9,450.8,1053.7,453.3,1048.3,454.3z M1028.3,423.8v19.4h2c9.4,0,14-3.2,14-9.7
			c0-6.5-4.7-9.7-14-9.7H1028.3z"/>
	</g>
	<g id="Compiler">
		<path id="XMLID_36_" class="st1" d="M532,315.7v24.4c-2.1-2.8-4.7-4.9-7.8-6.4c-3.2-1.5-6.5-2.2-10-2.2c-6.2,0-11.2,2.1-15.1,6.2
			c-3.9,4.2-5.8,9.3-5.8,15.5c0,6.2,2,11.3,5.9,15.3c3.9,4,9,6,15.3,6c3.3,0,6.5-0.7,9.7-2.2c3.1-1.5,5.7-3.5,7.9-6.1v24.4
			c-7.9,2.4-13.9,3.6-18,3.6c-11.1,0-20.9-3.8-29.4-11.5c-8.4-7.5-12.6-17.4-12.6-29.6c0-11.2,3.8-20.8,11.5-28.7
			c3.9-3.9,8.4-7,13.7-9.3c5.3-2.2,10.6-3.4,16.1-3.4C519.4,311.8,525.6,313.1,532,315.7z"/>
		<path id="XMLID_38_" class="st1" d="M570.4,316.3c6.6-3.4,13.6-5,21.2-5c7.5,0,14.6,1.7,21.2,5c6.6,3.4,11.9,8.2,16,14.4
			c4.1,6.2,6.1,13.2,6.1,20.9c0,12.7-4.1,23-12.2,31.1c-8.1,8.1-18.5,12.1-31.1,12.1c-12.6,0-23-4-31.1-12.1
			c-8.1-8.1-12.2-18.4-12.2-31.1c0-7.7,2-14.6,6.1-20.9C558.5,324.4,563.8,319.6,570.4,316.3z M607.2,337.2
			c-4.4-4.2-9.6-6.2-15.6-6.2c-6,0-11.2,2.1-15.6,6.2c-4.4,4.2-6.5,9-6.5,14.4c0,6.6,2.1,12.2,6.4,16.7c4.3,4.5,9.5,6.7,15.7,6.7
			c6.2,0,11.4-2.2,15.7-6.7c4.3-4.5,6.4-10,6.4-16.7C613.7,346.2,611.6,341.4,607.2,337.2z"/>
		<path id="XMLID_41_" class="st1" d="M647.5,392.1l13.3-78.3h20l15.9,41.9l16.8-41.9h20.3l11.8,78.3h-20.4l-5.7-45.1h-0.2
			l-18.8,45.1h-8.1l-18-45.1h-0.2l-6.5,45.1H647.5z"/>
		<path id="XMLID_43_" class="st1" d="M763.3,392.1v-78.3h31.2c8.8,0,15.7,2.1,20.8,6.4c5.1,4.3,7.6,10.7,7.6,19.4
			c0,17.7-9.2,26.6-27.7,26.6h-11.5v26H763.3z M783.7,330.2v19.5h3.4c1.9,0,3.4,0,4.4-0.1c1,0,2.3-0.2,3.8-0.6
			c1.6-0.3,2.7-0.8,3.5-1.5c0.8-0.6,1.4-1.6,2-2.8c0.6-1.2,0.9-2.8,0.9-4.7c0-1.9-0.3-3.5-0.8-4.8c-0.6-1.3-1.2-2.3-2-3
			c-0.8-0.7-1.9-1.2-3.4-1.5c-1.5-0.3-2.8-0.5-3.8-0.6c-1.1-0.1-2.6-0.1-4.6-0.1H783.7z"/>
		<path id="XMLID_46_" class="st1" d="M860,313.8v78.3h-20.4v-78.3H860z"/>
		<path id="XMLID_48_" class="st1" d="M902.6,313.8v61.1H927v17.2h-44.8v-78.3H902.6z"/>
		<path id="XMLID_50_" class="st1" d="M986.4,331.1h-24.2v13.1h23v17.2h-23v13.5h24.2v17.2h-44.6v-78.3h44.6V331.1z"/>
		<path id="XMLID_52_" class="st1" d="M1048.6,360.1l24.6,32.1h-25.3l-19.2-30.1h-0.2v30.1H1008v-78.3h30.4c8.2,0,14.7,2,19.7,6
			c5,4,7.5,10,7.5,18.1c0,5.6-1.5,10.5-4.5,14.5C1058.2,356.6,1054,359.1,1048.6,360.1z M1028.4,329.4v19.5h2
			c9.4,0,14.1-3.3,14.1-9.8c0-6.5-4.7-9.8-14.1-9.8H1028.4z"/>
	</g>
</g>
<g id="CE">
	<path id="C" class="st1" d="M422.8,456.7c-1.1-2.1-1.1-4.6,0-6.6c1.4-2.5,2.6-5,3.8-7.6c0.8-1.9-0.5-4-2.6-4h-22.5
		c-2.3,0-4.5,1.2-5.7,3.1c-2.9,4.4-6.3,8.7-10.1,12.5c-14.5,14.5-33.7,22.4-54.1,22.4c-20.5,0-39.7-8-54.1-22.4
		C262.9,439.7,255,420.5,255,400s8-39.7,22.4-54.1c14.5-14.5,33.7-22.4,54.1-22.4c20.5,0,39.7,8,54.1,22.4
		c3.9,3.9,7.2,8.1,10.1,12.5c1.3,1.9,3.4,3.1,5.7,3.1H424c2.1,0,3.4-2.1,2.6-4c-1.2-2.6-2.4-5.1-3.8-7.6c-1.1-2.1-1.1-4.6,0-6.6
		l7.6-13.8c1.5-2.7,1-6-1.2-8.2l-19.1-19.1c-2.2-2.2-5.5-2.6-8.2-1.2l-13.9,7.7c-2.1,1.1-4.6,1.1-6.6,0c-6.6-3.6-13.6-6.5-20.8-8.6
		c-2.3-0.7-4.1-2.4-4.7-4.7l-4.4-15.2c-0.9-2.9-3.5-5-6.6-5h-27c-3.1,0-5.8,2-6.6,5l-4.4,15.2c-0.7,2.3-2.4,4-4.7,4.7
		c-7.2,2.1-14.2,5-20.8,8.6c-2.1,1.1-4.6,1.2-6.6,0l-13.9-7.7c-2.7-1.5-6-1-8.2,1.2l-19.1,19.1c-2.2,2.2-2.6,5.5-1.2,8.2l7.7,13.9
		c1.1,2.1,1.1,4.6,0,6.6c-3.6,6.6-6.5,13.6-8.6,20.8c-0.7,2.3-2.4,4.1-4.7,4.7l-15.2,4.4c-2.9,0.9-5,3.5-5,6.6v27c0,3.1,2,5.8,5,6.6
		l15.2,4.4c2.3,0.7,4,2.4,4.7,4.7c2.1,7.2,5,14.2,8.6,20.8c1.1,2.1,1.2,4.6,0,6.6l-7.7,13.9c-1.5,2.7-1,6,1.2,8.2l19.1,19.1
		c2.2,2.2,5.5,2.6,8.2,1.2l13.9-7.7c2.1-1.1,4.6-1.1,6.6,0c6.6,3.6,13.6,6.5,20.8,8.6c2.3,0.7,4.1,2.4,4.7,4.7l4.4,15.2
		c0.9,2.9,3.5,5,6.6,5h27c3.1,0,5.8-2,6.6-5l4.4-15.2c0.7-2.3,2.4-4,4.7-4.7c7.2-2.1,14.2-5,20.8-8.6c2.1-1.1,4.6-1.2,6.6,0
		l13.9,7.7c2.7,1.5,6,1,8.2-1.2l19.1-19.1c2.2-2.2,2.6-5.5,1.2-8.2L422.8,456.7z"/>
	<g id="E">
		<rect id="XMLID_15_" x="285.7" y="361.1" class="st0" width="92.7" height="17.2"/>
		<rect id="XMLID_14_" x="285.7" y="391.7" class="st0" width="76.4" height="17.2"/>
		<rect id="XMLID_13_" x="285.7" y="422.3" class="st0" width="92.7" height="17.2"/>
	</g>
</g>
</svg>
